G04 DesignSpark PCB Gerber Version 10.0 Build 5299*
G04 #@! TF.Part,Single*
G04 #@! TF.FileFunction,Legend,Top*
G04 #@! TF.FilePolarity,Positive*
%FSLAX35Y35*%
%MOIN*%
%ADD103C,0.00394*%
%ADD15C,0.00500*%
%ADD102C,0.00787*%
%ADD101C,0.01000*%
%ADD104C,0.01969*%
G04 #@! TD.AperFunction*
X0Y0D02*
D02*
D15*
X98868Y125002D02*
Y128752D01*
X101055D01*
X101680Y128440D01*
X101993Y127815D01*
X101680Y127190D01*
X101055Y126877D01*
X98868D01*
X103868Y128752D02*
Y125002D01*
X106993D01*
X109180Y125315D02*
X109805Y125002D01*
X110430D01*
X111055Y125315D01*
X111368Y125940D01*
X111055Y126565D01*
X110430Y126877D01*
X109805D01*
X110430D02*
X111055Y127190D01*
X111368Y127815D01*
X111055Y128440D01*
X110430Y128752D01*
X109805D01*
X109180Y128440D01*
X98868Y286262D02*
Y290012D01*
X101055D01*
X101680Y289700D01*
X101993Y289074D01*
X101680Y288450D01*
X101055Y288137D01*
X98868D01*
X103868Y290012D02*
Y286262D01*
X106993D01*
X111368D02*
X108868D01*
X111055Y288450D01*
X111368Y289074D01*
X111055Y289700D01*
X110430Y290012D01*
X109493D01*
X108868Y289700D01*
X113986Y104844D02*
Y108594D01*
X116173D01*
X116798Y108282D01*
X117111Y107657D01*
X116798Y107032D01*
X116173Y106720D01*
X113986D01*
X116173D02*
X117111Y104844D01*
X119611D02*
X120861D01*
X120236D02*
Y108594D01*
X119611Y107970D01*
X124298Y105157D02*
X124923Y104844D01*
X125548D01*
X126173Y105157D01*
X126486Y105782D01*
X126173Y106407D01*
X125548Y106720D01*
X124923D01*
X125548D02*
X126173Y107032D01*
X126486Y107657D01*
X126173Y108282D01*
X125548Y108594D01*
X124923D01*
X124298Y108282D01*
X113986Y266104D02*
Y269854D01*
X116173D01*
X116798Y269542D01*
X117111Y268917D01*
X116798Y268292D01*
X116173Y267980D01*
X113986D01*
X116173D02*
X117111Y266104D01*
X119923Y267980D02*
X120548D01*
X121173Y268292D01*
X121486Y268917D01*
X121173Y269542D01*
X120548Y269854D01*
X119923D01*
X119298Y269542D01*
X118986Y268917D01*
X119298Y268292D01*
X119923Y267980D01*
X119298Y267667D01*
X118986Y267042D01*
X119298Y266417D01*
X119923Y266104D01*
X120548D01*
X121173Y266417D01*
X121486Y267042D01*
X121173Y267667D01*
X120548Y267980D01*
X124670Y153344D02*
X124357Y153031D01*
X123732Y152719D01*
X122795D01*
X122170Y153031D01*
X121857Y153344D01*
X121545Y153969D01*
Y155219D01*
X121857Y155844D01*
X122170Y156156D01*
X122795Y156469D01*
X123732D01*
X124357Y156156D01*
X124670Y155844D01*
X127482Y152719D02*
X128107Y153031D01*
X128732Y153656D01*
X129045Y154594D01*
Y155531D01*
X128732Y156156D01*
X128107Y156469D01*
X127482D01*
X126857Y156156D01*
X126545Y155531D01*
X126857Y154906D01*
X127482Y154594D01*
X128107D01*
X128732Y154906D01*
X129045Y155531D01*
X124670Y314604D02*
X124357Y314291D01*
X123732Y313978D01*
X122795D01*
X122170Y314291D01*
X121857Y314604D01*
X121545Y315228D01*
Y316478D01*
X121857Y317104D01*
X122170Y317416D01*
X122795Y317728D01*
X123732D01*
X124357Y317416D01*
X124670Y317104D01*
X126857Y314291D02*
X127482Y313978D01*
X128107D01*
X128732Y314291D01*
X129045Y314916D01*
X128732Y315541D01*
X128107Y315854D01*
X127482D01*
X128107D02*
X128732Y316166D01*
X129045Y316791D01*
X128732Y317416D01*
X128107Y317728D01*
X127482D01*
X126857Y317416D01*
X121584Y103986D02*
X131584D01*
Y83986D01*
X121584D01*
Y103986D01*
Y265246D02*
X131584D01*
Y245246D01*
X121584D01*
Y265246D01*
X123084Y149702D02*
Y133702D01*
X130084D01*
Y149702D01*
X123084D01*
Y310962D02*
Y294962D01*
X130084D01*
Y310962D01*
X123084D01*
X124025Y58553D02*
X129025D01*
X124025Y219813D02*
X129025D01*
X126584Y83986D02*
Y78986D01*
Y108986D02*
Y103986D01*
Y245246D02*
Y240246D01*
Y270246D02*
Y265246D01*
X129025Y53553D02*
Y63553D01*
X149025D01*
Y53553D01*
X129025D01*
Y214813D02*
Y224813D01*
X149025D01*
Y214813D01*
X129025D01*
X134143Y64530D02*
Y68280D01*
X136331D01*
X136956Y67967D01*
X137269Y67342D01*
X136956Y66717D01*
X136331Y66405D01*
X134143D01*
X136331D02*
X137269Y64530D01*
X139769D02*
X141019D01*
X140393D02*
Y68280D01*
X139769Y67655D01*
X144143Y65467D02*
X144456Y66092D01*
X145081Y66405D01*
X145706D01*
X146331Y66092D01*
X146643Y65467D01*
X146331Y64842D01*
X145706Y64530D01*
X145081D01*
X144456Y64842D01*
X144143Y65467D01*
Y66405D01*
X144456Y67342D01*
X145081Y67967D01*
X145706Y68280D01*
X134143Y225789D02*
Y229539D01*
X136331D01*
X136956Y229227D01*
X137269Y228602D01*
X136956Y227977D01*
X136331Y227665D01*
X134143D01*
X136331D02*
X137269Y225789D01*
X139143D02*
X141643Y229539D01*
X139143D01*
X136663Y104844D02*
Y108594D01*
X138850D01*
X139476Y108282D01*
X139788Y107657D01*
X139476Y107032D01*
X138850Y106720D01*
X136663D01*
X138850D02*
X139788Y104844D01*
X142288D02*
X143538D01*
X142913D02*
Y108594D01*
X142288Y107970D01*
X146663Y104844D02*
X149163Y108594D01*
X146663D01*
X139788Y153344D02*
X139476Y153031D01*
X138850Y152719D01*
X137913D01*
X137288Y153031D01*
X136976Y153344D01*
X136663Y153969D01*
Y155219D01*
X136976Y155844D01*
X137288Y156156D01*
X137913Y156469D01*
X138850D01*
X139476Y156156D01*
X139788Y155844D01*
X142600Y154594D02*
X143226D01*
X143850Y154906D01*
X144163Y155531D01*
X143850Y156156D01*
X143226Y156469D01*
X142600D01*
X141976Y156156D01*
X141663Y155531D01*
X141976Y154906D01*
X142600Y154594D01*
X141976Y154281D01*
X141663Y153656D01*
X141976Y153031D01*
X142600Y152719D01*
X143226D01*
X143850Y153031D01*
X144163Y153656D01*
X143850Y154281D01*
X143226Y154594D01*
X136663Y266104D02*
Y269854D01*
X138850D01*
X139476Y269542D01*
X139788Y268917D01*
X139476Y268292D01*
X138850Y267980D01*
X136663D01*
X138850D02*
X139788Y266104D01*
X142600D02*
X143226Y266417D01*
X143850Y267042D01*
X144163Y267980D01*
Y268917D01*
X143850Y269542D01*
X143226Y269854D01*
X142600D01*
X141976Y269542D01*
X141663Y268917D01*
X141976Y268292D01*
X142600Y267980D01*
X143226D01*
X143850Y268292D01*
X144163Y268917D01*
X139788Y314604D02*
X139476Y314291D01*
X138850Y313978D01*
X137913D01*
X137288Y314291D01*
X136976Y314604D01*
X136663Y315228D01*
Y316478D01*
X136976Y317104D01*
X137288Y317416D01*
X137913Y317728D01*
X138850D01*
X139476Y317416D01*
X139788Y317104D01*
X144163Y313978D02*
X141663D01*
X143850Y316166D01*
X144163Y316791D01*
X143850Y317416D01*
X143226Y317728D01*
X142288D01*
X141663Y317416D01*
X138202Y149702D02*
Y133702D01*
X145202D01*
Y149702D01*
X138202D01*
Y310962D02*
Y294962D01*
X145202D01*
Y310962D01*
X138202D01*
X141742Y103986D02*
X151742D01*
Y83986D01*
X141742D01*
Y103986D01*
Y265246D02*
X151742D01*
Y245246D01*
X141742D01*
Y265246D01*
X146742Y83986D02*
Y78986D01*
Y108986D02*
Y103986D01*
Y245246D02*
Y240246D01*
Y270246D02*
Y265246D01*
X149025Y58553D02*
X154025D01*
X149025Y219813D02*
X154025D01*
X154301Y92246D02*
Y95996D01*
X156488D01*
X157113Y95684D01*
X157426Y95059D01*
X157113Y94434D01*
X156488Y94121D01*
X154301D01*
X156488D02*
X157426Y92246D01*
X161801D02*
X159301D01*
X161488Y94434D01*
X161801Y95059D01*
X161488Y95684D01*
X160863Y95996D01*
X159926D01*
X159301Y95684D01*
X154301Y253506D02*
Y257256D01*
X156488D01*
X157113Y256944D01*
X157426Y256319D01*
X157113Y255694D01*
X156488Y255381D01*
X154301D01*
X156488D02*
X157426Y253506D01*
X159926D02*
X161176D01*
X160551D02*
Y257256D01*
X159926Y256631D01*
X155840Y91750D02*
Y75750D01*
X162840D01*
Y91750D01*
X155840D01*
Y253009D02*
Y237009D01*
X162840D01*
Y253009D01*
X155840D01*
X167135Y149261D02*
X162135D01*
X167135Y310521D02*
X162135D01*
X170356Y104844D02*
X171606D01*
X170981D02*
Y108594D01*
X170356D02*
X171606D01*
X177544Y105470D02*
X177231Y105157D01*
X176606Y104844D01*
X175669D01*
X175044Y105157D01*
X174731Y105470D01*
X174419Y106094D01*
Y107344D01*
X174731Y107970D01*
X175044Y108282D01*
X175669Y108594D01*
X176606D01*
X177231Y108282D01*
X177544Y107970D01*
X180981Y104844D02*
Y108594D01*
X179419Y106094D01*
X181919D01*
X170356Y266104D02*
X171606D01*
X170981D02*
Y269854D01*
X170356D02*
X171606D01*
X177544Y266730D02*
X177231Y266417D01*
X176606Y266104D01*
X175669D01*
X175044Y266417D01*
X174731Y266730D01*
X174419Y267354D01*
Y268604D01*
X174731Y269230D01*
X175044Y269542D01*
X175669Y269854D01*
X176606D01*
X177231Y269542D01*
X177544Y269230D01*
X180044Y266104D02*
X181294D01*
X180669D02*
Y269854D01*
X180044Y269230D01*
X171939Y34293D02*
Y38043D01*
X174126D01*
X174751Y37731D01*
X175064Y37106D01*
X174751Y36481D01*
X174126Y36169D01*
X171939D01*
X176939Y38043D02*
Y34293D01*
X180064D01*
X181939Y34606D02*
X182564Y34293D01*
X183501D01*
X184126Y34606D01*
X184439Y35231D01*
Y35543D01*
X184126Y36169D01*
X183501Y36481D01*
X181939D01*
Y38043D01*
X184439D01*
X171939Y155238D02*
Y158988D01*
X174126D01*
X174751Y158676D01*
X175064Y158051D01*
X174751Y157426D01*
X174126Y157113D01*
X171939D01*
X174126D02*
X175064Y155238D01*
X177564D02*
X178814D01*
X178189D02*
Y158988D01*
X177564Y158363D01*
X182876Y155238D02*
X183501Y155551D01*
X184126Y156176D01*
X184439Y157113D01*
Y158051D01*
X184126Y158676D01*
X183501Y158988D01*
X182876D01*
X182251Y158676D01*
X181939Y158051D01*
X182251Y157426D01*
X182876Y157113D01*
X183501D01*
X184126Y157426D01*
X184439Y158051D01*
X171939Y195553D02*
Y199303D01*
X174126D01*
X174751Y198991D01*
X175064Y198366D01*
X174751Y197741D01*
X174126Y197428D01*
X171939D01*
X176939Y199303D02*
Y195553D01*
X180064D01*
X182564D02*
X183814D01*
X183189D02*
Y199303D01*
X182564Y198678D01*
X171939Y316498D02*
Y320248D01*
X174126D01*
X174751Y319936D01*
X175064Y319311D01*
X174751Y318686D01*
X174126Y318373D01*
X171939D01*
X174126D02*
X175064Y316498D01*
X177564D02*
X178814D01*
X178189D02*
Y320248D01*
X177564Y319623D01*
X182564Y316498D02*
X183814D01*
X183189D02*
Y320248D01*
X182564Y319623D01*
X179498Y72089D02*
Y75839D01*
X181685D01*
X182310Y75526D01*
X182623Y74901D01*
X182310Y74276D01*
X181685Y73964D01*
X179498D01*
X181685D02*
X182623Y72089D01*
X185123D02*
X186373D01*
X185748D02*
Y75839D01*
X185123Y75214D01*
X191060Y72089D02*
Y75839D01*
X189498Y73339D01*
X191998D01*
X179498Y233348D02*
Y237098D01*
X181685D01*
X182310Y236786D01*
X182623Y236161D01*
X182310Y235536D01*
X181685Y235224D01*
X179498D01*
X181685D02*
X182623Y233348D01*
X186060D02*
Y237098D01*
X184498Y234598D01*
X186998D01*
X187135Y154261D02*
Y144261D01*
X167135D01*
Y154261D01*
X187135D01*
Y315521D02*
Y305521D01*
X167135D01*
Y315521D01*
X187135D01*
X189576Y58220D02*
Y59470D01*
X189889Y60096D01*
X190202Y60408D01*
X190826Y60720D01*
X191452D01*
X192076Y60408D01*
X192389Y60096D01*
X192702Y59470D01*
Y58220D01*
X192389Y57596D01*
X192076Y57283D01*
X191452Y56970D01*
X190826D01*
X190202Y57283D01*
X189889Y57596D01*
X189576Y58220D01*
X191764Y57908D02*
X192702Y56970D01*
X194576Y57283D02*
X195202Y56970D01*
X196139D01*
X196764Y57283D01*
X197076Y57908D01*
Y58220D01*
X196764Y58846D01*
X196139Y59158D01*
X194576D01*
Y60720D01*
X197076D01*
X189576Y219480D02*
Y220730D01*
X189889Y221356D01*
X190202Y221668D01*
X190826Y221980D01*
X191452D01*
X192076Y221668D01*
X192389Y221356D01*
X192702Y220730D01*
Y219480D01*
X192389Y218856D01*
X192076Y218543D01*
X191452Y218230D01*
X190826D01*
X190202Y218543D01*
X189889Y218856D01*
X189576Y219480D01*
X191764Y219168D02*
X192702Y218230D01*
X197076D02*
X194576D01*
X196764Y220418D01*
X197076Y221043D01*
X196764Y221668D01*
X196139Y221980D01*
X195202D01*
X194576Y221668D01*
X192135Y149261D02*
X187135D01*
X192135Y310521D02*
X187135D01*
X195057Y84730D02*
X179057D01*
Y77730D01*
X195057D01*
Y84730D01*
Y245990D02*
X179057D01*
Y238990D01*
X195057D01*
Y245990D01*
X197135Y73339D02*
Y74589D01*
X197448Y75214D01*
X197761Y75526D01*
X198385Y75839D01*
X199011D01*
X199635Y75526D01*
X199948Y75214D01*
X200261Y74589D01*
Y73339D01*
X199948Y72714D01*
X199635Y72401D01*
X199011Y72089D01*
X198385D01*
X197761Y72401D01*
X197448Y72714D01*
X197135Y73339D01*
X199323Y73026D02*
X200261Y72089D01*
X203698D02*
Y75839D01*
X202135Y73339D01*
X204635D01*
X200261Y105470D02*
X199948Y105157D01*
X199323Y104844D01*
X198385D01*
X197761Y105157D01*
X197448Y105470D01*
X197135Y106094D01*
Y107344D01*
X197448Y107970D01*
X197761Y108282D01*
X198385Y108594D01*
X199323D01*
X199948Y108282D01*
X200261Y107970D01*
X202135Y104844D02*
X204635Y108594D01*
X202135D01*
X197135Y234598D02*
Y235848D01*
X197448Y236474D01*
X197761Y236786D01*
X198385Y237098D01*
X199011D01*
X199635Y236786D01*
X199948Y236474D01*
X200261Y235848D01*
Y234598D01*
X199948Y233974D01*
X199635Y233661D01*
X199011Y233348D01*
X198385D01*
X197761Y233661D01*
X197448Y233974D01*
X197135Y234598D01*
X199323Y234286D02*
X200261Y233348D01*
X202761D02*
X204011D01*
X203385D02*
Y237098D01*
X202761Y236474D01*
X200261Y266730D02*
X199948Y266417D01*
X199323Y266104D01*
X198385D01*
X197761Y266417D01*
X197448Y266730D01*
X197135Y267354D01*
Y268604D01*
X197448Y269230D01*
X197761Y269542D01*
X198385Y269854D01*
X199323D01*
X199948Y269542D01*
X200261Y269230D01*
X202761Y266104D02*
X204011D01*
X203385D02*
Y269854D01*
X202761Y269230D01*
X209970Y45954D02*
X204970D01*
X209970Y207214D02*
X204970D01*
X212254Y51931D02*
Y55681D01*
X214441D01*
X215066Y55369D01*
X215379Y54744D01*
X215066Y54119D01*
X214441Y53806D01*
X212254D01*
X214441D02*
X215379Y51931D01*
X217879D02*
X219129D01*
X218504D02*
Y55681D01*
X217879Y55056D01*
X224754Y51931D02*
X222254D01*
X224441Y54119D01*
X224754Y54744D01*
X224441Y55369D01*
X223816Y55681D01*
X222879D01*
X222254Y55369D01*
X212254Y213191D02*
Y216941D01*
X214441D01*
X215066Y216629D01*
X215379Y216004D01*
X215066Y215379D01*
X214441Y215066D01*
X212254D01*
X214441D02*
X215379Y213191D01*
X217254Y214129D02*
X217566Y214754D01*
X218191Y215066D01*
X218816D01*
X219441Y214754D01*
X219754Y214129D01*
X219441Y213504D01*
X218816Y213191D01*
X218191D01*
X217566Y213504D01*
X217254Y214129D01*
Y215066D01*
X217566Y216004D01*
X218191Y216629D01*
X218816Y216941D01*
X213234Y100946D02*
Y116946D01*
X206234D01*
Y100946D01*
X213234D01*
Y262206D02*
Y278206D01*
X206234D01*
Y262206D01*
X213234D01*
X214773Y132561D02*
Y136311D01*
X216961D01*
X217586Y135999D01*
X217898Y135374D01*
X217586Y134749D01*
X216961Y134436D01*
X214773D01*
X216961D02*
X217898Y132561D01*
X220398D02*
X221648D01*
X221023D02*
Y136311D01*
X220398Y135686D01*
X224773Y132874D02*
X225398Y132561D01*
X226336D01*
X226961Y132874D01*
X227273Y133499D01*
Y133811D01*
X226961Y134436D01*
X226336Y134749D01*
X224773D01*
Y136311D01*
X227273D01*
X214773Y161508D02*
Y157758D01*
X217898D01*
X219773D02*
Y161508D01*
X222898D01*
X222273Y159633D02*
X219773D01*
Y157758D02*
X222898D01*
X224773D02*
Y161508D01*
X226648D01*
X227273Y161196D01*
X227586Y160883D01*
X227898Y160258D01*
Y159008D01*
X227586Y158383D01*
X227273Y158070D01*
X226648Y157758D01*
X224773D01*
X232273D02*
X229773D01*
X231961Y159946D01*
X232273Y160570D01*
X231961Y161196D01*
X231336Y161508D01*
X230398D01*
X229773Y161196D01*
X214773Y293821D02*
Y297571D01*
X216961D01*
X217586Y297259D01*
X217898Y296633D01*
X217586Y296009D01*
X216961Y295696D01*
X214773D01*
X216961D02*
X217898Y293821D01*
X219773Y294133D02*
X220398Y293821D01*
X221336D01*
X221961Y294133D01*
X222273Y294759D01*
Y295071D01*
X221961Y295696D01*
X221336Y296009D01*
X219773D01*
Y297571D01*
X222273D01*
X214773Y322768D02*
Y319018D01*
X217898D01*
X219773D02*
Y322768D01*
X222898D01*
X222273Y320893D02*
X219773D01*
Y319018D02*
X222898D01*
X224773D02*
Y322768D01*
X226648D01*
X227273Y322456D01*
X227586Y322143D01*
X227898Y321518D01*
Y320268D01*
X227586Y319643D01*
X227273Y319330D01*
X226648Y319018D01*
X224773D01*
X230398D02*
X231648D01*
X231023D02*
Y322768D01*
X230398Y322143D01*
X223872Y147183D02*
Y131183D01*
X230872D01*
Y147183D01*
X223872D01*
Y308443D02*
Y292443D01*
X230872D01*
Y308443D01*
X223872D01*
X224852Y86230D02*
Y91230D01*
Y111230D02*
Y116230D01*
Y247490D02*
Y252490D01*
Y272490D02*
Y277490D01*
X227372Y70819D02*
Y72069D01*
X227684Y72694D01*
X227997Y73007D01*
X228622Y73319D01*
X229247D01*
X229872Y73007D01*
X230184Y72694D01*
X230497Y72069D01*
Y70819D01*
X230184Y70194D01*
X229872Y69881D01*
X229247Y69569D01*
X228622D01*
X227997Y69881D01*
X227684Y70194D01*
X227372Y70819D01*
X229559Y70507D02*
X230497Y69569D01*
X232372Y70507D02*
X232684Y71131D01*
X233309Y71444D01*
X233934D01*
X234559Y71131D01*
X234872Y70507D01*
X234559Y69881D01*
X233934Y69569D01*
X233309D01*
X232684Y69881D01*
X232372Y70507D01*
Y71444D01*
X232684Y72381D01*
X233309Y73007D01*
X233934Y73319D01*
X227372Y232079D02*
Y233329D01*
X227684Y233954D01*
X227997Y234267D01*
X228622Y234579D01*
X229247D01*
X229872Y234267D01*
X230184Y233954D01*
X230497Y233329D01*
Y232079D01*
X230184Y231454D01*
X229872Y231141D01*
X229247Y230829D01*
X228622D01*
X227997Y231141D01*
X227684Y231454D01*
X227372Y232079D01*
X229559Y231767D02*
X230497Y230829D01*
X232684Y231141D02*
X233309Y230829D01*
X233934D01*
X234559Y231141D01*
X234872Y231767D01*
X234559Y232391D01*
X233934Y232704D01*
X233309D01*
X233934D02*
X234559Y233017D01*
X234872Y233641D01*
X234559Y234267D01*
X233934Y234579D01*
X233309D01*
X232684Y234267D01*
X229852Y91230D02*
X219852D01*
Y111230D01*
X229852D01*
Y91230D01*
Y252490D02*
X219852D01*
Y272490D01*
X229852D01*
Y252490D01*
X229891Y112404D02*
Y116154D01*
X232079D01*
X232704Y115841D01*
X233017Y115216D01*
X232704Y114591D01*
X232079Y114279D01*
X229891D01*
X232079D02*
X233017Y112404D01*
X235517D02*
X236767D01*
X236141D02*
Y116154D01*
X235517Y115529D01*
X240829Y114279D02*
X241454D01*
X242079Y114591D01*
X242391Y115216D01*
X242079Y115841D01*
X241454Y116154D01*
X240829D01*
X240204Y115841D01*
X239891Y115216D01*
X240204Y114591D01*
X240829Y114279D01*
X240204Y113966D01*
X239891Y113341D01*
X240204Y112716D01*
X240829Y112404D01*
X241454D01*
X242079Y112716D01*
X242391Y113341D01*
X242079Y113966D01*
X241454Y114279D01*
X229891Y273663D02*
Y277413D01*
X232079D01*
X232704Y277101D01*
X233017Y276476D01*
X232704Y275851D01*
X232079Y275539D01*
X229891D01*
X232079D02*
X233017Y273663D01*
X235517D02*
X236767D01*
X236141D02*
Y277413D01*
X235517Y276789D01*
X240204Y273976D02*
X240829Y273663D01*
X241454D01*
X242079Y273976D01*
X242391Y274601D01*
Y276476D01*
X242079Y277101D01*
X241454Y277413D01*
X240829D01*
X240204Y277101D01*
X239891Y276476D01*
Y274601D01*
X240204Y273976D01*
X242079Y277101D01*
X229970Y50954D02*
Y40954D01*
X209970D01*
Y50954D01*
X229970D01*
Y212214D02*
Y202214D01*
X209970D01*
Y212214D01*
X229970D01*
X234970Y45954D02*
X229970D01*
X234970Y207214D02*
X229970D01*
X243381Y136683D02*
Y139183D01*
X244631Y137933D02*
X242131D01*
X243381Y297943D02*
Y300443D01*
X244631Y299193D02*
X242131D01*
X252569Y130683D02*
G75*
G02*
X236569Y146683I0J16000D01*
G01*
G75*
G02*
X252569Y162683I16000J0D01*
G01*
G75*
G02*
X268569Y146683I0J-16000D01*
G01*
G75*
G02*
X252569Y130683I-16000J0D01*
G01*
Y291943D02*
G75*
G02*
X236569Y307943I0J16000D01*
G01*
G75*
G02*
X252569Y323943I16000J0D01*
G01*
G75*
G02*
X268569Y307943I0J-16000D01*
G01*
G75*
G02*
X252569Y291943I-16000J0D01*
G01*
X260128Y107364D02*
Y111114D01*
X262003D01*
X262628Y110802D01*
X262940Y110489D01*
X263253Y109864D01*
Y108614D01*
X262940Y107989D01*
X262628Y107677D01*
X262003Y107364D01*
X260128D01*
X267628D02*
X265128D01*
X267315Y109552D01*
X267628Y110177D01*
X267315Y110802D01*
X266690Y111114D01*
X265753D01*
X265128Y110802D01*
X260128Y268624D02*
Y272374D01*
X262003D01*
X262628Y272062D01*
X262940Y271749D01*
X263253Y271124D01*
Y269874D01*
X262940Y269249D01*
X262628Y268937D01*
X262003Y268624D01*
X260128D01*
X265753D02*
X267003D01*
X266378D02*
Y272374D01*
X265753Y271749D01*
X265772Y160903D02*
X265460Y160590D01*
X264835Y160278D01*
X263897D01*
X263272Y160590D01*
X262960Y160903D01*
X262647Y161528D01*
Y162778D01*
X262960Y163403D01*
X263272Y163715D01*
X263897Y164028D01*
X264835D01*
X265460Y163715D01*
X265772Y163403D01*
X268272Y160278D02*
X269522D01*
X268897D02*
Y164028D01*
X268272Y163403D01*
X272960Y160590D02*
X273585Y160278D01*
X274210D01*
X274835Y160590D01*
X275147Y161215D01*
Y163090D01*
X274835Y163715D01*
X274210Y164028D01*
X273585D01*
X272960Y163715D01*
X272647Y163090D01*
Y161215D01*
X272960Y160590D01*
X274835Y163715D01*
X265772Y322163D02*
X265460Y321850D01*
X264835Y321537D01*
X263897D01*
X263272Y321850D01*
X262960Y322163D01*
X262647Y322787D01*
Y324037D01*
X262960Y324663D01*
X263272Y324975D01*
X263897Y325287D01*
X264835D01*
X265460Y324975D01*
X265772Y324663D01*
X269210Y321537D02*
Y325287D01*
X267647Y322787D01*
X270147D01*
X291301Y160278D02*
X292551D01*
X291926D02*
Y164028D01*
X291301D02*
X292551D01*
X298489Y160903D02*
X298176Y160590D01*
X297551Y160278D01*
X296614D01*
X295989Y160590D01*
X295676Y160903D01*
X295364Y161528D01*
Y162778D01*
X295676Y163403D01*
X295989Y163715D01*
X296614Y164028D01*
X297551D01*
X298176Y163715D01*
X298489Y163403D01*
X300676Y160590D02*
X301301Y160278D01*
X301926D01*
X302551Y160590D01*
X302864Y161215D01*
X302551Y161840D01*
X301926Y162153D01*
X301301D01*
X301926D02*
X302551Y162465D01*
X302864Y163090D01*
X302551Y163715D01*
X301926Y164028D01*
X301301D01*
X300676Y163715D01*
X291301Y321537D02*
X292551D01*
X291926D02*
Y325287D01*
X291301D02*
X292551D01*
X298489Y322163D02*
X298176Y321850D01*
X297551Y321537D01*
X296614D01*
X295989Y321850D01*
X295676Y322163D01*
X295364Y322787D01*
Y324037D01*
X295676Y324663D01*
X295989Y324975D01*
X296614Y325287D01*
X297551D01*
X298176Y324975D01*
X298489Y324663D01*
X302864Y321537D02*
X300364D01*
X302551Y323725D01*
X302864Y324350D01*
X302551Y324975D01*
X301926Y325287D01*
X300989D01*
X300364Y324975D01*
X308616Y130041D02*
Y133791D01*
Y131917D02*
X309553D01*
X311741Y133791D01*
X309553Y131917D02*
X311741Y130041D01*
X316116D02*
X313616D01*
X315803Y132229D01*
X316116Y132854D01*
X315803Y133479D01*
X315178Y133791D01*
X314241D01*
X313616Y133479D01*
X308616Y291301D02*
Y295051D01*
Y293176D02*
X309553D01*
X311741Y295051D01*
X309553Y293176D02*
X311741Y291301D01*
X314241D02*
X315491D01*
X314866D02*
Y295051D01*
X314241Y294426D01*
X327218Y146742D02*
G75*
G02*
X343218Y162742I16000J0D01*
G01*
G75*
G02*
X359218Y146742I0J-16000D01*
G01*
G75*
G02*
X343218Y130742I-16000J0D01*
G01*
G75*
G02*
X327218Y146742I0J16000D01*
G01*
Y308002D02*
G75*
G02*
X343218Y324002I16000J0D01*
G01*
G75*
G02*
X359218Y308002I0J-16000D01*
G01*
G75*
G02*
X343218Y292002I-16000J0D01*
G01*
G75*
G02*
X327218Y308002I0J16000D01*
G01*
X333218Y155929D02*
X335718D01*
X334468Y154679D02*
Y157179D01*
X333218Y317189D02*
X335718D01*
X334468Y315939D02*
Y318439D01*
X359001Y160903D02*
X358688Y160590D01*
X358063Y160278D01*
X357126D01*
X356501Y160590D01*
X356188Y160903D01*
X355876Y161528D01*
Y162778D01*
X356188Y163403D01*
X356501Y163715D01*
X357126Y164028D01*
X358063D01*
X358688Y163715D01*
X359001Y163403D01*
X361501Y160278D02*
X362751D01*
X362126D02*
Y164028D01*
X361501Y163403D01*
X368376Y160278D02*
X365876D01*
X368063Y162465D01*
X368376Y163090D01*
X368063Y163715D01*
X367438Y164028D01*
X366501D01*
X365876Y163715D01*
X359001Y322163D02*
X358688Y321850D01*
X358063Y321537D01*
X357126D01*
X356501Y321850D01*
X356188Y322163D01*
X355876Y322787D01*
Y324037D01*
X356188Y324663D01*
X356501Y324975D01*
X357126Y325287D01*
X358063D01*
X358688Y324975D01*
X359001Y324663D01*
X360876Y322475D02*
X361188Y323100D01*
X361813Y323413D01*
X362438D01*
X363063Y323100D01*
X363376Y322475D01*
X363063Y321850D01*
X362438Y321537D01*
X361813D01*
X361188Y321850D01*
X360876Y322475D01*
Y323413D01*
X361188Y324350D01*
X361813Y324975D01*
X362438Y325287D01*
X381678Y160903D02*
X381365Y160590D01*
X380740Y160278D01*
X379803D01*
X379178Y160590D01*
X378865Y160903D01*
X378553Y161528D01*
Y162778D01*
X378865Y163403D01*
X379178Y163715D01*
X379803Y164028D01*
X380740D01*
X381365Y163715D01*
X381678Y163403D01*
X384178Y160278D02*
X385428D01*
X384803D02*
Y164028D01*
X384178Y163403D01*
X389178Y160278D02*
X390428D01*
X389803D02*
Y164028D01*
X389178Y163403D01*
X381678Y322163D02*
X381365Y321850D01*
X380740Y321537D01*
X379803D01*
X379178Y321850D01*
X378865Y322163D01*
X378553Y322787D01*
Y324037D01*
X378865Y324663D01*
X379178Y324975D01*
X379803Y325287D01*
X380740D01*
X381365Y324975D01*
X381678Y324663D01*
X383553Y321850D02*
X384178Y321537D01*
X385115D01*
X385740Y321850D01*
X386053Y322475D01*
Y322787D01*
X385740Y323413D01*
X385115Y323725D01*
X383553D01*
Y325287D01*
X386053D01*
X380738Y78454D02*
Y119281D01*
X401565D01*
Y80954D01*
X399065Y78454D01*
X380738D01*
Y239714D02*
Y280541D01*
X401565D01*
Y242214D01*
X399065Y239714D01*
X380738D01*
X382651Y146742D02*
G75*
G02*
X398651Y162742I16000J0D01*
G01*
G75*
G02*
X414651Y146742I0J-16000D01*
G01*
G75*
G02*
X398651Y130742I-16000J0D01*
G01*
G75*
G02*
X382651Y146742I0J16000D01*
G01*
Y308002D02*
G75*
G02*
X398651Y324002I16000J0D01*
G01*
G75*
G02*
X414651Y308002I0J-16000D01*
G01*
G75*
G02*
X398651Y292002I-16000J0D01*
G01*
G75*
G02*
X382651Y308002I0J16000D01*
G01*
X386112Y72089D02*
Y75839D01*
X388299D01*
X388924Y75526D01*
X389237Y74901D01*
X388924Y74276D01*
X388299Y73964D01*
X386112D01*
X391112Y75839D02*
Y72089D01*
X394237D01*
X396112Y73026D02*
X396424Y73651D01*
X397049Y73964D01*
X397674D01*
X398299Y73651D01*
X398612Y73026D01*
X398299Y72401D01*
X397674Y72089D01*
X397049D01*
X396424Y72401D01*
X396112Y73026D01*
Y73964D01*
X396424Y74901D01*
X397049Y75526D01*
X397674Y75839D01*
X386112Y233348D02*
Y237098D01*
X388299D01*
X388924Y236786D01*
X389237Y236161D01*
X388924Y235536D01*
X388299Y235224D01*
X386112D01*
X391112Y237098D02*
Y233348D01*
X394237D01*
X397674D02*
Y237098D01*
X396112Y234598D01*
X398612D01*
X388651Y155929D02*
X391151D01*
X389901Y154679D02*
Y157179D01*
X388651Y317189D02*
X391151D01*
X389901Y315939D02*
Y318439D01*
D02*
D101*
X111427Y131663D02*
Y151663D01*
X101427D01*
Y131663D01*
X111427D01*
Y292923D02*
Y312923D01*
X101427D01*
Y292923D01*
X111427D01*
X187017Y50954D02*
X167017D01*
Y40954D01*
X187017D01*
Y50954D01*
Y212214D02*
X167017D01*
Y202214D01*
X187017D01*
Y212214D01*
X270206Y127254D02*
Y62293D01*
X358789D01*
Y127254D01*
X270206D01*
Y288513D02*
Y223553D01*
X358789D01*
Y288513D01*
X270206D01*
D02*
D102*
X188454Y139025D02*
X160462D01*
X188454Y300285D02*
X160462D01*
X191742Y99025D02*
X160462D01*
X191742Y260285D02*
X160462D01*
X218553Y153907D02*
Y154694D02*
G75*
G02*
Y153907I0J-394D01*
G01*
Y154694D02*
G75*
G03*
Y153907I0J-394D01*
G01*
Y315167D02*
Y315954D02*
G75*
G02*
Y315167I0J-394D01*
G01*
Y315954D02*
G75*
G03*
Y315167I0J-394D01*
G01*
X257608Y87155D02*
Y73033D01*
Y248415D02*
Y234293D01*
X262234Y100836D02*
X257608Y105462D01*
Y119584D01*
X262234Y105462D02*
Y87155D01*
X252982D01*
Y105462D01*
X262234D01*
Y262096D02*
X257608Y266722D01*
Y280844D01*
X262234Y266722D02*
Y248415D01*
X252982D01*
Y266722D01*
X262234D01*
X276899Y160324D02*
Y142214D01*
X317844D01*
Y154301D01*
X276899Y321584D02*
Y303474D01*
X317844D01*
Y315561D01*
D02*
D103*
X173587Y61969D02*
G75*
G03*
X190140Y61983I8273J4143D01*
G01*
X173587Y223229D02*
G75*
G03*
X190140Y223243I8273J4143D01*
G01*
X174254Y71380D02*
X189466D01*
X174254Y232639D02*
X189466D01*
X204466Y73467D02*
Y88678D01*
Y234726D02*
Y249938D01*
X213876Y72800D02*
G75*
G03*
X213862Y89352I-4143J8273D01*
G01*
X213876Y234059D02*
G75*
G03*
X213862Y250612I-4143J8273D01*
G01*
X223671Y152726D02*
X226033D01*
X223671Y155876D02*
X226033D01*
X223671Y313986D02*
X226033D01*
X223671Y317135D02*
X226033D01*
X238347Y89660D02*
G75*
G03*
X238361Y73107I4143J-8273D01*
G01*
X238347Y250920D02*
G75*
G03*
X238361Y234367I4143J-8273D01*
G01*
X247757Y88993D02*
Y73781D01*
Y250253D02*
Y235041D01*
D02*
D104*
X264600Y95958D02*
G75*
G02*
X262876I-862J0D01*
G01*
X264600D02*
G75*
G02*
X262876I-862J0D01*
G01*
G75*
G02*
X264600I862J0D01*
G01*
Y257218D02*
G75*
G02*
X262876I-862J0D01*
G01*
X264600D02*
G75*
G02*
X262876I-862J0D01*
G01*
G75*
G02*
X264600I862J0D01*
G01*
X0Y0D02*
M02*
