G04 DesignSpark PCB Gerber Version 10.0 Build 5299*
G04 #@! TF.Part,Single*
G04 #@! TF.FileFunction,Soldermask,Bot*
G04 #@! TF.FilePolarity,Negative*
%FSLAX35Y35*%
%MOIN*%
G04 #@! TA.AperFunction,ComponentPad*
%ADD93R,0.05167X0.05167*%
%ADD136R,0.08080X0.08080*%
%ADD95R,0.08356X0.08356*%
%ADD89R,0.08395X0.08395*%
%ADD132C,0.07569*%
%ADD129C,0.07765*%
G04 #@! TA.AperFunction,ViaPad*
%ADD128C,0.08080*%
G04 #@! TA.AperFunction,ComponentPad*
%ADD110C,0.08277*%
%ADD133C,0.08710*%
%ADD131C,0.09261*%
%ADD98C,0.17293*%
%ADD137R,0.16427X0.16427*%
G04 #@! TD.AperFunction*
X0Y0D02*
D02*
D89*
X308002Y154301D03*
Y315561D03*
D02*
D93*
X189458Y104025D03*
Y265285D03*
D02*
D95*
X257608Y124065D03*
Y285324D03*
D02*
D98*
X280246Y94773D03*
Y256033D03*
X288120Y71151D03*
Y118395D03*
Y232411D03*
Y279655D03*
X336151Y71151D03*
Y118395D03*
Y232411D03*
Y279655D03*
D02*
D110*
X171624Y66112D03*
Y227372D03*
X181860Y66112D03*
Y227372D03*
X192096Y66112D03*
Y227372D03*
X209734Y70836D03*
Y81072D03*
Y91309D03*
Y232096D03*
Y242332D03*
Y252569D03*
X242490Y71151D03*
Y81387D03*
Y91624D03*
Y232411D03*
Y242647D03*
Y252883D03*
D02*
D128*
X171939Y81230D03*
Y242490D03*
D02*
D129*
X119025Y58553D03*
Y219813D03*
X126584Y73986D03*
Y113986D03*
Y235246D03*
Y275246D03*
X146742Y73986D03*
Y113986D03*
Y235246D03*
Y275246D03*
X157135Y149261D03*
Y310521D03*
X159025Y58553D03*
Y219813D03*
X197135Y149261D03*
Y310521D03*
X199970Y45954D03*
Y207214D03*
X224852Y81230D03*
Y121230D03*
Y242490D03*
Y282490D03*
X239970Y45954D03*
Y207214D03*
X252569Y139183D03*
Y154183D03*
Y300443D03*
Y315443D03*
X335718Y146742D03*
Y308002D03*
X350718Y146742D03*
Y308002D03*
X391151Y146742D03*
Y308002D03*
X406151Y146742D03*
Y308002D03*
D02*
D131*
X286742Y154301D03*
Y315561D03*
X297372Y154301D03*
Y315561D03*
D02*
D132*
X159458Y104025D03*
Y114025D03*
Y124025D03*
Y134025D03*
Y265285D03*
Y275285D03*
Y285285D03*
Y295285D03*
X189458Y114025D03*
Y124025D03*
Y134025D03*
Y275285D03*
Y285285D03*
Y295285D03*
D02*
D133*
X257608Y68553D03*
Y229813D03*
D02*
D136*
X106427Y136663D03*
Y146663D03*
Y297923D03*
Y307923D03*
X172017Y45954D03*
Y207214D03*
X182017Y45954D03*
Y207214D03*
D02*
D137*
X391151Y88868D03*
Y108868D03*
Y250128D03*
Y270128D03*
X0Y0D02*
M02*
