G04 DesignSpark PCB Gerber Version 10.0 Build 5299*
G04 #@! TF.Part,Single*
G04 #@! TF.FileFunction,Copper,L1,Top*
G04 #@! TF.FilePolarity,Positive*
%FSLAX35Y35*%
%MOIN*%
G04 #@! TA.AperFunction,SMDPad,CuDef*
%ADD117R,0.06496X0.06496*%
%ADD121R,0.03701X0.03701*%
G04 #@! TA.AperFunction,ComponentPad*
%ADD21R,0.04567X0.04567*%
%ADD123R,0.07480X0.07480*%
%ADD23R,0.07756X0.07756*%
%ADD19R,0.07795X0.07795*%
G04 #@! TD.AperFunction*
%ADD15C,0.00500*%
%ADD10C,0.01200*%
%ADD114C,0.03465*%
%ADD11C,0.03937*%
G04 #@! TA.AperFunction,ComponentPad*
%ADD119C,0.06969*%
%ADD116C,0.07165*%
G04 #@! TA.AperFunction,ViaPad*
%ADD115C,0.07480*%
G04 #@! TA.AperFunction,ComponentPad*
%ADD106C,0.07677*%
%ADD120C,0.08110*%
%ADD118C,0.08661*%
%ADD26C,0.16693*%
G04 #@! TA.AperFunction,SMDPad,CuDef*
%ADD122R,0.06496X0.06496*%
G04 #@! TA.AperFunction,ComponentPad*
%ADD124R,0.15827X0.15827*%
G04 #@! TD.AperFunction*
X0Y0D02*
D02*
D10*
X28965Y163731D02*
Y28965D01*
X413180D01*
Y142676D01*
G75*
G02*
X398031Y146742I-7028J4066D01*
G01*
G75*
G02*
X413180Y150807I8120J0D01*
G01*
Y163731D01*
X381072D01*
G75*
G02*
X377904Y166899I0J3169D01*
G01*
Y187057D01*
G75*
G02*
X381072Y190225I3169J0D01*
G01*
X413180D01*
Y303936D01*
G75*
G02*
X398031Y308002I-7028J4066D01*
G01*
G75*
G02*
X413180Y312067I8120J0D01*
G01*
Y324991D01*
X28965D01*
Y190225D01*
X50994D01*
G75*
G02*
X54162Y187057I0J-3169D01*
G01*
Y166899D01*
G75*
G02*
X50994Y163731I-3169J0D01*
G01*
X28965D01*
X144222Y190225D02*
G75*
G02*
X147391Y187057I0J-3169D01*
G01*
Y166899D01*
G75*
G02*
X144222Y163731I-3169J0D01*
G01*
X78710D01*
G75*
G02*
X75542Y166899I0J3169D01*
G01*
Y187057D01*
G75*
G02*
X78710Y190225I3169J0D01*
G01*
X144222D01*
X98151Y154939D02*
X114702D01*
Y138387D01*
X112734D01*
Y130356D01*
X100120D01*
Y138387D01*
X98151D01*
Y154939D01*
X119025Y64704D02*
G75*
G02*
X125176Y58553I0J-6151D01*
G01*
G75*
G02*
X119025Y52402I-6151J0D01*
G01*
G75*
G02*
X112874Y58553I0J6151D01*
G01*
G75*
G02*
X119025Y64704I6151J0D01*
G01*
X155199Y138326D02*
G75*
G02*
X165511Y134025I4259J-4301D01*
G01*
G75*
G02*
X162869Y129025I-6053J0D01*
G01*
G75*
G02*
Y119025I-3411J-5000D01*
G01*
G75*
G02*
Y109025I-3411J-5000D01*
G01*
G75*
G02*
X159458Y97972I-3411J-5000D01*
G01*
G75*
G02*
X156047Y109025I0J6053D01*
G01*
G75*
G02*
Y119025I3411J5000D01*
G01*
G75*
G02*
Y129025I3411J5000D01*
G01*
G75*
G02*
X155199Y129724I3411J5001D01*
G01*
X144885D01*
G75*
G02*
X141839Y130984I-5J4301D01*
G01*
X141435Y131387D01*
X135887D01*
Y138419D01*
X132399D01*
Y134411D01*
X146673Y120137D01*
G75*
G02*
X152893Y113986I69J-6151D01*
G01*
G75*
G02*
X140591I-6151J0D01*
G01*
G75*
G02*
X140591Y114054I6152J-1D01*
G01*
X123546Y131099D01*
G75*
G02*
X123282Y131387I3039J3048D01*
G01*
X120769D01*
Y138419D01*
X118801D01*
Y153986D01*
X149486D01*
Y151984D01*
G75*
G02*
X165255Y149261I7650J-2723D01*
G01*
G75*
G02*
X149486Y146539I-8120J0D01*
G01*
Y138419D01*
X147517D01*
Y138326D01*
X155199D01*
X214967Y77376D02*
G75*
G02*
X218109Y70836I-5233J-6539D01*
G01*
G75*
G02*
X201358I-8376J0D01*
G01*
G75*
G02*
X203824Y76772I8376J0D01*
G01*
X197372D01*
Y75415D01*
X195857D01*
Y71298D01*
G75*
G02*
X192096Y59705I-3761J-5187D01*
G01*
G75*
G02*
X186978Y62257I0J6407D01*
G01*
G75*
G02*
X178163Y60879I-5118J3855D01*
G01*
G75*
G02*
X163248Y66112I-6539J5233D01*
G01*
G75*
G02*
X178163Y71345I8376J0D01*
G01*
G75*
G02*
X186978Y69966I3697J-5233D01*
G01*
G75*
G02*
X187256Y70310I5119J-3855D01*
G01*
Y75415D01*
X176742D01*
Y76929D01*
X176556D01*
G75*
G02*
X170777Y75028I-4618J4301D01*
G01*
G75*
G02*
X169953Y74949I-819J4222D01*
G01*
X165155D01*
Y73435D01*
X153525D01*
Y94065D01*
X159073D01*
X159355Y94346D01*
G75*
G02*
X162399Y95609I3044J-3038D01*
G01*
X204985D01*
G75*
G02*
X205433Y96058I4750J-4302D01*
G01*
Y98631D01*
X203919D01*
Y109146D01*
X196277D01*
Y97206D01*
X182639D01*
Y110844D01*
X184309D01*
G75*
G02*
X186047Y119025I5150J3181D01*
G01*
G75*
G02*
Y129025I3411J5000D01*
G01*
G75*
G02*
X189458Y140078I3411J5000D01*
G01*
G75*
G02*
X192869Y129025I0J-6053D01*
G01*
G75*
G02*
Y119025I-3411J-5000D01*
G01*
G75*
G02*
X194231Y117747I-3411J-5001D01*
G01*
X203919D01*
Y119261D01*
X215549D01*
Y98631D01*
X214035D01*
Y96058D01*
G75*
G02*
X213588Y86191I-4301J-4749D01*
G01*
G75*
G02*
X214967Y77376I-3855J-5118D01*
G01*
X199970Y52106D02*
G75*
G02*
X206121Y45954I0J-6151D01*
G01*
G75*
G02*
X199970Y39803I-6151J0D01*
G01*
G75*
G02*
X193819Y45954I0J6151D01*
G01*
G75*
G02*
X199970Y52106I6151J0D01*
G01*
X165710Y52261D02*
X188324D01*
Y39647D01*
X165710D01*
Y52261D01*
X140591Y73986D02*
G75*
G02*
X152893I6151J0D01*
G01*
G75*
G02*
X140591I-6151J0D01*
G01*
X159025Y64704D02*
G75*
G02*
X165176Y58553I0J-6151D01*
G01*
G75*
G02*
X159025Y52402I-6151J0D01*
G01*
G75*
G02*
X152874Y58553I0J6151D01*
G01*
G75*
G02*
X159025Y64704I6151J0D01*
G01*
X120433Y73986D02*
G75*
G02*
X132735I6151J0D01*
G01*
G75*
G02*
X120433I-6151J0D01*
G01*
Y113986D02*
G75*
G02*
X132735I6151J0D01*
G01*
G75*
G02*
X120433I-6151J0D01*
G01*
X98151Y316198D02*
X114702D01*
Y299647D01*
X112734D01*
Y291616D01*
X100120D01*
Y299647D01*
X98151D01*
Y316198D01*
X119025Y225964D02*
G75*
G02*
X125176Y219813I0J-6151D01*
G01*
G75*
G02*
X119025Y213661I-6151J0D01*
G01*
G75*
G02*
X112874Y219813I0J6151D01*
G01*
G75*
G02*
X119025Y225964I6151J0D01*
G01*
X155199Y299586D02*
G75*
G02*
X165511Y295285I4259J-4301D01*
G01*
G75*
G02*
X162869Y290285I-6053J0D01*
G01*
G75*
G02*
Y280285I-3411J-5000D01*
G01*
G75*
G02*
Y270285I-3411J-5000D01*
G01*
G75*
G02*
X159458Y259232I-3411J-5000D01*
G01*
G75*
G02*
X156047Y270285I0J6053D01*
G01*
G75*
G02*
Y280285I3411J5000D01*
G01*
G75*
G02*
Y290285I3411J5000D01*
G01*
G75*
G02*
X155199Y290984I3411J5001D01*
G01*
X144885D01*
G75*
G02*
X141839Y292244I-5J4301D01*
G01*
X141435Y292647D01*
X135887D01*
Y299679D01*
X132399D01*
Y295670D01*
X146673Y281396D01*
G75*
G02*
X152893Y275246I69J-6151D01*
G01*
G75*
G02*
X140591I-6151J0D01*
G01*
G75*
G02*
X140591Y275314I6152J-1D01*
G01*
X123546Y292359D01*
G75*
G02*
X123282Y292647I3039J3048D01*
G01*
X120769D01*
Y299679D01*
X118801D01*
Y315246D01*
X149486D01*
Y313244D01*
G75*
G02*
X165255Y310521I7650J-2723D01*
G01*
G75*
G02*
X149486Y307798I-8120J0D01*
G01*
Y299679D01*
X147517D01*
Y299586D01*
X155199D01*
X214967Y238635D02*
G75*
G02*
X218109Y232096I-5233J-6539D01*
G01*
G75*
G02*
X201358I-8376J0D01*
G01*
G75*
G02*
X203824Y238031I8376J0D01*
G01*
X197372D01*
Y236675D01*
X195857D01*
Y232558D01*
G75*
G02*
X192096Y220965I-3761J-5187D01*
G01*
G75*
G02*
X186978Y223517I0J6407D01*
G01*
G75*
G02*
X178163Y222139I-5118J3855D01*
G01*
G75*
G02*
X163248Y227372I-6539J5233D01*
G01*
G75*
G02*
X178163Y232605I8376J0D01*
G01*
G75*
G02*
X186978Y231226I3697J-5233D01*
G01*
G75*
G02*
X187256Y231570I5119J-3855D01*
G01*
Y236675D01*
X176742D01*
Y238189D01*
X176556D01*
G75*
G02*
X170777Y236287I-4618J4301D01*
G01*
G75*
G02*
X169953Y236209I-819J4222D01*
G01*
X165155D01*
Y234694D01*
X153525D01*
Y255324D01*
X159073D01*
X159355Y255606D01*
G75*
G02*
X162399Y256869I3044J-3038D01*
G01*
X204985D01*
G75*
G02*
X205433Y257318I4750J-4302D01*
G01*
Y259891D01*
X203919D01*
Y270406D01*
X196277D01*
Y258466D01*
X182639D01*
Y272104D01*
X184309D01*
G75*
G02*
X186047Y280285I5150J3181D01*
G01*
G75*
G02*
Y290285I3411J5000D01*
G01*
G75*
G02*
X189458Y301338I3411J5000D01*
G01*
G75*
G02*
X192869Y290285I0J-6053D01*
G01*
G75*
G02*
Y280285I-3411J-5000D01*
G01*
G75*
G02*
X194231Y279007I-3411J-5001D01*
G01*
X203919D01*
Y280521D01*
X215549D01*
Y259891D01*
X214035D01*
Y257318D01*
G75*
G02*
X213588Y247450I-4301J-4749D01*
G01*
G75*
G02*
X214967Y238635I-3855J-5118D01*
G01*
X199970Y213365D02*
G75*
G02*
X206121Y207214I0J-6151D01*
G01*
G75*
G02*
X199970Y201063I-6151J0D01*
G01*
G75*
G02*
X193819Y207214I0J6151D01*
G01*
G75*
G02*
X199970Y213365I6151J0D01*
G01*
X165710Y213521D02*
X188324D01*
Y200907D01*
X165710D01*
Y213521D01*
X260128Y190225D02*
G75*
G02*
X263296Y187057I0J-3169D01*
G01*
Y166899D01*
G75*
G02*
X260128Y163731I-3169J0D01*
G01*
X176978D01*
G75*
G02*
X173809Y166899I0J3169D01*
G01*
Y187057D01*
G75*
G02*
X176978Y190225I3169J0D01*
G01*
X260128D01*
X232401Y149498D02*
X233187D01*
Y128868D01*
X231672D01*
Y123750D01*
G75*
G02*
X231000Y121440I-4301J0D01*
G01*
G75*
G02*
X231003Y121230I-6148J-209D01*
G01*
G75*
G02*
X218701I-6151J0D01*
G01*
G75*
G02*
X223071Y127118I6151J0D01*
G01*
Y128868D01*
X221557D01*
Y139382D01*
X202714D01*
G75*
G02*
X199670Y140645I0J4301D01*
G01*
X197204Y143111D01*
G75*
G02*
X197135Y143110I-70J6152D01*
G01*
G75*
G02*
X190984Y149261I0J6151D01*
G01*
G75*
G02*
X197135Y155413I6151J0D01*
G01*
G75*
G02*
X203287Y149261I0J-6151D01*
G01*
G75*
G02*
X203286Y149193I-6152J1D01*
G01*
X204496Y147983D01*
X215218D01*
Y160687D01*
X227990D01*
Y158718D01*
X232517D01*
Y149883D01*
X232401D01*
Y149498D01*
X231850Y45954D02*
G75*
G02*
X248090I8120J0D01*
G01*
G75*
G02*
X231850I-8120J0D01*
G01*
X218701Y81230D02*
G75*
G02*
X231003I6151J0D01*
G01*
G75*
G02*
X218701I-6151J0D01*
G01*
X234114Y91624D02*
G75*
G02*
X250865I8376J0D01*
G01*
G75*
G02*
X247723Y85084I-8376J0D01*
G01*
G75*
G02*
X246344Y76269I-5233J-3697D01*
G01*
G75*
G02*
X248897Y71151I-3854J-5118D01*
G01*
G75*
G02*
X236083I-6407J0D01*
G01*
G75*
G02*
X238635Y76269I6407J0D01*
G01*
G75*
G02*
X237257Y85084I3855J5118D01*
G01*
G75*
G02*
X234114Y91624I5233J6539D01*
G01*
X244449Y154183D02*
G75*
G02*
X260688I8120J0D01*
G01*
G75*
G02*
X244449I-8120J0D01*
G01*
X246417Y139183D02*
G75*
G02*
X258720I6151J0D01*
G01*
G75*
G02*
X246417I-6151J0D01*
G01*
X250984Y68553D02*
G75*
G02*
X264231I6624J0D01*
G01*
G75*
G02*
X250984I-6624J0D01*
G01*
X251163Y130509D02*
X264053D01*
Y117620D01*
X251163D01*
Y130509D01*
X140591Y235246D02*
G75*
G02*
X152893I6151J0D01*
G01*
G75*
G02*
X140591I-6151J0D01*
G01*
X159025Y225964D02*
G75*
G02*
X165176Y219813I0J-6151D01*
G01*
G75*
G02*
X159025Y213661I-6151J0D01*
G01*
G75*
G02*
X152874Y219813I0J6151D01*
G01*
G75*
G02*
X159025Y225964I6151J0D01*
G01*
X120433Y235246D02*
G75*
G02*
X132735I6151J0D01*
G01*
G75*
G02*
X120433I-6151J0D01*
G01*
Y275246D02*
G75*
G02*
X132735I6151J0D01*
G01*
G75*
G02*
X120433I-6151J0D01*
G01*
X232401Y310757D02*
X233187D01*
Y290128D01*
X231672D01*
Y285009D01*
G75*
G02*
X231000Y282700I-4301J0D01*
G01*
G75*
G02*
X231003Y282490I-6148J-209D01*
G01*
G75*
G02*
X218701I-6151J0D01*
G01*
G75*
G02*
X223071Y288378I6151J0D01*
G01*
Y290128D01*
X221557D01*
Y300642D01*
X202714D01*
G75*
G02*
X199670Y301905I0J4301D01*
G01*
X197204Y304370D01*
G75*
G02*
X197135Y304370I-70J6152D01*
G01*
G75*
G02*
X190984Y310521I0J6151D01*
G01*
G75*
G02*
X197135Y316672I6151J0D01*
G01*
G75*
G02*
X203287Y310521I0J-6151D01*
G01*
G75*
G02*
X203286Y310453I-6152J1D01*
G01*
X204496Y309243D01*
X215218D01*
Y321946D01*
X227990D01*
Y319978D01*
X232517D01*
Y311143D01*
X232401D01*
Y310757D01*
X231850Y207214D02*
G75*
G02*
X248090I8120J0D01*
G01*
G75*
G02*
X231850I-8120J0D01*
G01*
X218701Y242490D02*
G75*
G02*
X231003I6151J0D01*
G01*
G75*
G02*
X218701I-6151J0D01*
G01*
X234114Y252883D02*
G75*
G02*
X250865I8376J0D01*
G01*
G75*
G02*
X247723Y246344I-8376J0D01*
G01*
G75*
G02*
X246344Y237529I-5233J-3697D01*
G01*
G75*
G02*
X248897Y232411I-3854J-5118D01*
G01*
G75*
G02*
X236083I-6407J0D01*
G01*
G75*
G02*
X238635Y237529I6407J0D01*
G01*
G75*
G02*
X237257Y246344I3855J5118D01*
G01*
G75*
G02*
X234114Y252883I5233J6539D01*
G01*
X244449Y315443D02*
G75*
G02*
X260688I8120J0D01*
G01*
G75*
G02*
X244449I-8120J0D01*
G01*
X246417Y300443D02*
G75*
G02*
X258720I6151J0D01*
G01*
G75*
G02*
X246417I-6151J0D01*
G01*
X250984Y229813D02*
G75*
G02*
X264231I6624J0D01*
G01*
G75*
G02*
X250984I-6624J0D01*
G01*
X251163Y291769D02*
X264053D01*
Y278880D01*
X251163D01*
Y291769D01*
X269331Y94773D02*
G75*
G02*
X291161I10915J0D01*
G01*
G75*
G02*
X269331I-10915J0D01*
G01*
X277205Y71151D02*
G75*
G02*
X299035I10915J0D01*
G01*
G75*
G02*
X277205I-10915J0D01*
G01*
X269331Y256033D02*
G75*
G02*
X291161I10915J0D01*
G01*
G75*
G02*
X269331I-10915J0D01*
G01*
X277205Y118395D02*
G75*
G02*
X299035I10915J0D01*
G01*
G75*
G02*
X277205I-10915J0D01*
G01*
Y232411D02*
G75*
G02*
X299035I10915J0D01*
G01*
G75*
G02*
X277205I-10915J0D01*
G01*
X303442Y160765D02*
X314466D01*
Y147836D01*
X303442D01*
G75*
G02*
X290597Y148579I-6070J6465D01*
G01*
G75*
G02*
X279843Y154301I-3855J5722D01*
G01*
G75*
G02*
X290597Y160022I6899J0D01*
G01*
G75*
G02*
X303442Y160765I6775J-5722D01*
G01*
X353356Y190225D02*
G75*
G02*
X356524Y187057I0J-3169D01*
G01*
Y166899D01*
G75*
G02*
X353356Y163731I-3169J0D01*
G01*
X285324D01*
G75*
G02*
X282156Y166899I0J3169D01*
G01*
Y187057D01*
G75*
G02*
X285324Y190225I3169J0D01*
G01*
X353356D01*
X325236Y71151D02*
G75*
G02*
X347066I10915J0D01*
G01*
G75*
G02*
X325236I-10915J0D01*
G01*
Y118395D02*
G75*
G02*
X347066I10915J0D01*
G01*
G75*
G02*
X325236I-10915J0D01*
G01*
X335718Y152893D02*
G75*
G02*
X341869Y146742I0J-6151D01*
G01*
G75*
G02*
X335718Y140591I-6151J0D01*
G01*
G75*
G02*
X329567Y146742I0J6151D01*
G01*
G75*
G02*
X335718Y152893I6151J0D01*
G01*
X342598Y146742D02*
G75*
G02*
X358838I8120J0D01*
G01*
G75*
G02*
X342598I-8120J0D01*
G01*
X277205Y279655D02*
G75*
G02*
X299035I10915J0D01*
G01*
G75*
G02*
X277205I-10915J0D01*
G01*
X303442Y322025D02*
X314466D01*
Y309096D01*
X303442D01*
G75*
G02*
X290597Y309839I-6070J6465D01*
G01*
G75*
G02*
X279843Y315561I-3855J5722D01*
G01*
G75*
G02*
X290597Y321282I6899J0D01*
G01*
G75*
G02*
X303442Y322025I6775J-5722D01*
G01*
X325236Y232411D02*
G75*
G02*
X347066I10915J0D01*
G01*
G75*
G02*
X325236I-10915J0D01*
G01*
Y279655D02*
G75*
G02*
X347066I10915J0D01*
G01*
G75*
G02*
X325236I-10915J0D01*
G01*
X335718Y314153D02*
G75*
G02*
X341869Y308002I0J-6151D01*
G01*
G75*
G02*
X335718Y301850I-6151J0D01*
G01*
G75*
G02*
X329567Y308002I0J6151D01*
G01*
G75*
G02*
X335718Y314153I6151J0D01*
G01*
X342598Y308002D02*
G75*
G02*
X358838I8120J0D01*
G01*
G75*
G02*
X342598I-8120J0D01*
G01*
X376283Y114088D02*
G75*
G02*
X378852Y111519I0J-2569D01*
G01*
Y86019D01*
G75*
G02*
X376283Y83451I-2569J0D01*
G01*
X369783D01*
G75*
G02*
X367215Y86019I0J2569D01*
G01*
Y111519D01*
G75*
G02*
X369783Y114088I2569J0D01*
G01*
X376283D01*
Y277867D02*
G75*
G02*
X378852Y275299I0J-2569D01*
G01*
Y249799D01*
G75*
G02*
X376283Y247230I-2569J0D01*
G01*
X369783D01*
G75*
G02*
X367215Y249799I0J2569D01*
G01*
Y275299D01*
G75*
G02*
X369783Y277867I2569J0D01*
G01*
X376283D01*
X380671Y280608D02*
X401631D01*
Y239647D01*
X380671D01*
Y280608D01*
X391151Y314153D02*
G75*
G02*
X397302Y308002I0J-6151D01*
G01*
G75*
G02*
X391151Y301850I-6151J0D01*
G01*
G75*
G02*
X385000Y308002I0J6151D01*
G01*
G75*
G02*
X391151Y314153I6151J0D01*
G01*
Y152893D02*
G75*
G02*
X397302Y146742I0J-6151D01*
G01*
G75*
G02*
X391151Y140591I-6151J0D01*
G01*
G75*
G02*
X385000Y146742I0J6151D01*
G01*
G75*
G02*
X391151Y152893I6151J0D01*
G01*
X380671Y119348D02*
X401631D01*
Y78387D01*
X380671D01*
Y119348D01*
X29565Y45954D02*
G36*
X29565Y45954D02*
Y29565D01*
X412580D01*
Y45954D01*
X248090D01*
G75*
G02*
X231850I-8120J0D01*
G01*
X206121D01*
Y45954D01*
G75*
G02*
X199970Y39803I-6151J0D01*
G01*
G75*
G02*
X193819Y45954I0J6151D01*
G01*
Y45954D01*
X188324D01*
Y39647D01*
X165710D01*
Y45954D01*
X29565D01*
G37*
Y58553D02*
G36*
X29565Y58553D02*
Y45954D01*
X165710D01*
Y52261D01*
X188324D01*
Y45954D01*
X193819D01*
Y45955D01*
G75*
G02*
X199970Y52106I6151J0D01*
G01*
G75*
G02*
X206121Y45955I0J-6151D01*
G01*
Y45954D01*
X231850D01*
G75*
G02*
X248090I8120J0D01*
G01*
X412580D01*
Y58553D01*
X175230D01*
G75*
G02*
X168017I-3607J7559D01*
G01*
X165176D01*
Y58552D01*
G75*
G02*
X159025Y52402I-6151J0D01*
G01*
G75*
G02*
X152874Y58552I0J6151D01*
G01*
Y58553D01*
X125176D01*
Y58552D01*
G75*
G02*
X119025Y52402I-6151J0D01*
G01*
G75*
G02*
X112874Y58552I0J6151D01*
G01*
Y58553D01*
X29565D01*
G37*
Y73986D02*
G36*
X29565Y73986D02*
Y58553D01*
X112874D01*
Y58553D01*
G75*
G02*
X119025Y64704I6151J0D01*
G01*
G75*
G02*
X125176Y58553I0J-6151D01*
G01*
Y58553D01*
X152874D01*
Y58553D01*
G75*
G02*
X159025Y64704I6151J0D01*
G01*
G75*
G02*
X165176Y58553I0J-6151D01*
G01*
Y58553D01*
X168017D01*
G75*
G02*
X163248Y66112I3607J7559D01*
G01*
G75*
G02*
X168769Y73986I8376J0D01*
G01*
X165155D01*
Y73435D01*
X153525D01*
Y73986D01*
X152893D01*
G75*
G02*
X140591I-6151J0D01*
G01*
X132735D01*
G75*
G02*
X120433I-6151J0D01*
G01*
X29565D01*
G37*
X178163Y60879D02*
G36*
X178163Y60879D02*
G75*
G02*
X175230Y58553I-6539J5233D01*
G01*
X412580D01*
Y73986D01*
X346692D01*
G75*
G02*
X347066Y71151I-10541J-2834D01*
G01*
G75*
G02*
X325236I-10915J0D01*
G01*
G75*
G02*
X325611Y73986I10915J0D01*
G01*
X298660D01*
G75*
G02*
X299035Y71151I-10541J-2834D01*
G01*
G75*
G02*
X277205I-10915J0D01*
G01*
G75*
G02*
X277579Y73986I10915J0D01*
G01*
X261396D01*
G75*
G02*
X264231Y68553I-3789J-5433D01*
G01*
G75*
G02*
X250984I-6624J0D01*
G01*
G75*
G02*
X253819Y73986I6624J0D01*
G01*
X248236D01*
G75*
G02*
X248897Y71151I-5746J-2834D01*
G01*
G75*
G02*
X236083I-6407J0D01*
G01*
G75*
G02*
X236744Y73986I6407J0D01*
G01*
X217494D01*
G75*
G02*
X218109Y70836I-7761J-3150D01*
G01*
G75*
G02*
X201358I-8376J0D01*
G01*
G75*
G02*
Y70837I9023J0D01*
G01*
G75*
G02*
X201973Y73986I8374J0D01*
G01*
X195857D01*
Y71298D01*
G75*
G02*
X198503Y66112I-3762J-5187D01*
G01*
G75*
G02*
X192096Y59705I-6407J0D01*
G01*
G75*
G02*
X186978Y62257I0J6407D01*
G01*
G75*
G02*
X178163Y60879I-5118J3855D01*
G01*
G37*
X174478Y73986D02*
G36*
X174478Y73986D02*
G75*
G02*
X178163Y71345I-2855J-7874D01*
G01*
G75*
G02*
X186978Y69966I3697J-5233D01*
G01*
G75*
G02*
X187256Y70310I5121J-3857D01*
G01*
Y73986D01*
X174478D01*
G37*
X29565Y81230D02*
G36*
X29565Y81230D02*
Y73986D01*
X120433D01*
G75*
G02*
X132735I6151J0D01*
G01*
X140591D01*
G75*
G02*
X152893I6151J0D01*
G01*
X153525D01*
Y81230D01*
X29565D01*
G37*
X165155Y74949D02*
G36*
X165155Y74949D02*
Y73986D01*
X168769D01*
G75*
G02*
X174478I2854J-7874D01*
G01*
X187256D01*
Y75415D01*
X176742D01*
Y76929D01*
X176556D01*
G75*
G02*
X170777Y75028I-4617J4300D01*
G01*
G75*
G02*
X169953Y74949I-823J4265D01*
G01*
X165155D01*
G37*
X195857Y75415D02*
G36*
X195857Y75415D02*
Y73986D01*
X201973D01*
G75*
G02*
X203824Y76772I7759J-3149D01*
G01*
X197372D01*
Y75415D01*
X195857D01*
G37*
X216141Y81072D02*
G36*
X216141Y81072D02*
G75*
G02*
X214967Y77376I-6408J0D01*
G01*
G75*
G02*
X217494Y73986I-5233J-6539D01*
G01*
X236744D01*
G75*
G02*
X238635Y76269I5746J-2835D01*
G01*
G75*
G02*
X236085Y81230I3855J5119D01*
G01*
X231003D01*
G75*
G02*
X218701I-6151J0D01*
G01*
X216139D01*
G75*
G02*
X216141Y81072I-6402J-159D01*
G01*
G37*
X246344Y76269D02*
G36*
X246344Y76269D02*
G75*
G02*
X248236Y73986I-3854J-5118D01*
G01*
X253819D01*
G75*
G02*
X261396I3789J-5433D01*
G01*
X277579D01*
G75*
G02*
X283930Y81230I10541J-2835D01*
G01*
X248895D01*
G75*
G02*
X246344Y76269I-6405J157D01*
G01*
G37*
X292309Y81230D02*
G36*
X292309Y81230D02*
G75*
G02*
X298660Y73986I-4190J-10079D01*
G01*
X325611D01*
G75*
G02*
X331961Y81230I10541J-2835D01*
G01*
X292309D01*
G37*
X340341D02*
G36*
X340341Y81230D02*
G75*
G02*
X346692Y73986I-4190J-10079D01*
G01*
X412580D01*
Y81230D01*
X401631D01*
Y78387D01*
X380671D01*
Y81230D01*
X340341D01*
G37*
X29565Y94773D02*
G36*
X29565Y94773D02*
Y81230D01*
X153525D01*
Y94065D01*
X159073D01*
X159355Y94346D01*
G75*
G02*
X159851Y94773I3045J-3040D01*
G01*
X29565D01*
G37*
X213588Y86191D02*
G36*
X213588Y86191D02*
G75*
G02*
X216139Y81230I-3855J-5119D01*
G01*
X218701D01*
G75*
G02*
X231003I6151J0D01*
G01*
X236085D01*
G75*
G02*
X236083Y81387I6402J159D01*
G01*
G75*
G02*
X237257Y85084I6408J0D01*
G01*
G75*
G02*
X234114Y91624I5233J6539D01*
G01*
G75*
G02*
X234729Y94773I8376J0D01*
G01*
X215123D01*
G75*
G02*
X216141Y91309I-5390J-3465D01*
G01*
G75*
G02*
X213588Y86191I-6407J0D01*
G01*
G37*
X248897Y81387D02*
G36*
X248897Y81387D02*
G75*
G02*
X248895Y81230I-6409J1D01*
G01*
X283930D01*
G75*
G02*
X292309I4190J-10078D01*
G01*
X331961D01*
G75*
G02*
X340341I4190J-10078D01*
G01*
X380671D01*
Y94773D01*
X378852D01*
Y86019D01*
G75*
G02*
X376283Y83451I-2569J0D01*
G01*
X369783D01*
G75*
G02*
X367215Y86019I0J2569D01*
G01*
Y94773D01*
X291161D01*
G75*
G02*
X269331I-10915J0D01*
G01*
X250251D01*
G75*
G02*
X250865Y91624I-7761J-3149D01*
G01*
G75*
G02*
X247723Y85084I-8375J0D01*
G01*
G75*
G02*
X248897Y81387I-5232J-3697D01*
G01*
G37*
X401631Y94773D02*
G36*
X401631Y94773D02*
Y81230D01*
X412580D01*
Y94773D01*
X401631D01*
G37*
X29565Y113986D02*
G36*
X29565Y113986D02*
Y94773D01*
X159851D01*
G75*
G02*
X162399Y95609I2548J-3465D01*
G01*
X204985D01*
G75*
G02*
X205433Y96058I4625J-4177D01*
G01*
Y98631D01*
X203919D01*
Y109146D01*
X196277D01*
Y97206D01*
X182639D01*
Y110844D01*
X184309D01*
G75*
G02*
X183406Y113986I5149J3181D01*
G01*
X165511D01*
G75*
G02*
X162869Y109025I-6053J39D01*
G01*
G75*
G02*
X165511Y104025I-3411J-5000D01*
G01*
G75*
G02*
X159458Y97972I-6053J0D01*
G01*
G75*
G02*
X153406Y104025I0J6053D01*
G01*
G75*
G02*
X156047Y109025I6053J0D01*
G01*
G75*
G02*
X153406Y113986I3411J5000D01*
G01*
X152893D01*
G75*
G02*
X140591I-6151J0D01*
G01*
X132735D01*
G75*
G02*
X120433I-6151J0D01*
G01*
X29565D01*
G37*
X214035Y98631D02*
G36*
X214035Y98631D02*
Y96058D01*
G75*
G02*
X215123Y94773I-4302J-4749D01*
G01*
X234729D01*
G75*
G02*
X250251I7761J-3150D01*
G01*
X269331D01*
G75*
G02*
X291161I10915J0D01*
G01*
X367215D01*
Y111519D01*
G75*
G02*
X369067Y113986I2569J0D01*
G01*
X346136D01*
G75*
G02*
X326167I-9985J4409D01*
G01*
X298104D01*
G75*
G02*
X278135I-9985J4409D01*
G01*
X215549D01*
Y98631D01*
X214035D01*
G37*
X378852Y111519D02*
G36*
X378852Y111519D02*
Y94773D01*
X380671D01*
Y113986D01*
X377000D01*
G75*
G02*
X378852Y111519I-717J-2467D01*
G01*
G37*
X401631Y113986D02*
G36*
X401631Y113986D02*
Y94773D01*
X412580D01*
Y113986D01*
X401631D01*
G37*
X29565Y124065D02*
G36*
X29565Y124065D02*
Y113986D01*
X120433D01*
G75*
G02*
X132735I6151J0D01*
G01*
X140591D01*
G75*
G02*
Y114003I3017J9D01*
G01*
G75*
G02*
X140591Y114054I2971J3D01*
G01*
X130581Y124065D01*
X29565D01*
G37*
X142745D02*
G36*
X142745Y124065D02*
X146673Y120137D01*
G75*
G02*
X152893Y113986I68J-6151D01*
G01*
X153406D01*
G75*
G02*
Y114025I6064J20D01*
G01*
G75*
G02*
X156047Y119025I6053J0D01*
G01*
G75*
G02*
X153406Y124025I3411J5000D01*
G01*
G75*
G02*
Y124065I6064J20D01*
G01*
X142745D01*
G37*
X165511Y114025D02*
G36*
X165511Y114025D02*
G75*
G02*
Y113986I-6064J-20D01*
G01*
X183406D01*
G75*
G02*
X183405Y114025I6064J80D01*
G01*
G75*
G02*
X186047Y119025I6052J0D01*
G01*
G75*
G02*
X183406Y124025I3411J5000D01*
G01*
G75*
G02*
Y124065I6064J20D01*
G01*
X165511D01*
G75*
G02*
Y124025I-6064J-20D01*
G01*
G75*
G02*
X162869Y119025I-6053J0D01*
G01*
G75*
G02*
X165511Y114025I-3411J-5000D01*
G01*
G37*
X192869Y119025D02*
G36*
X192869Y119025D02*
G75*
G02*
X194231Y117747I-3415J-5005D01*
G01*
X203919D01*
Y119261D01*
X215549D01*
Y113986D01*
X278135D01*
G75*
G02*
X277205Y118395I9985J4409D01*
G01*
G75*
G02*
X278793Y124065I10915J0D01*
G01*
X264053D01*
Y117620D01*
X251163D01*
Y124065D01*
X231672D01*
Y123750D01*
G75*
G02*
X231000Y121440I-4303J0D01*
G01*
G75*
G02*
X231003Y121241I-5579J-199D01*
G01*
G75*
G02*
Y121230I-5537J-5D01*
G01*
G75*
G02*
X218701I-6151J0D01*
G01*
G75*
G02*
X219393Y124065I6152J0D01*
G01*
X195511D01*
G75*
G02*
Y124025I-6064J-20D01*
G01*
G75*
G02*
X192869Y119025I-6053J0D01*
G01*
G37*
X299035Y118395D02*
G36*
X299035Y118395D02*
G75*
G02*
X298104Y113986I-10915J0D01*
G01*
X326167D01*
G75*
G02*
X325236Y118395I9985J4409D01*
G01*
G75*
G02*
X326824Y124065I10915J0D01*
G01*
X297447D01*
G75*
G02*
X299035Y118395I-9327J-5669D01*
G01*
G37*
X347066D02*
G36*
X347066Y118395D02*
G75*
G02*
X346136Y113986I-10915J0D01*
G01*
X369067D01*
G75*
G02*
X369783Y114088I717J-2468D01*
G01*
X376283D01*
G75*
G02*
X377000Y113986I0J-2570D01*
G01*
X380671D01*
Y119348D01*
X401631D01*
Y113986D01*
X412580D01*
Y124065D01*
X345478D01*
G75*
G02*
X347066Y118395I-9327J-5669D01*
G01*
G37*
X29565Y142647D02*
G36*
X29565Y142647D02*
Y124065D01*
X130581D01*
X123546Y131099D01*
G75*
G02*
X123282Y131387I3030J3039D01*
G01*
X120769D01*
Y138419D01*
X118801D01*
Y142647D01*
X114702D01*
Y138387D01*
X112734D01*
Y130356D01*
X100120D01*
Y138387D01*
X98151D01*
Y142647D01*
X29565D01*
G37*
X132399Y138419D02*
G36*
X132399Y138419D02*
Y134411D01*
X142745Y124065D01*
X153406D01*
G75*
G02*
X156047Y129025I6053J-39D01*
G01*
G75*
G02*
X155199Y129724I3426J5019D01*
G01*
X144885D01*
G75*
G02*
X141839Y130984I-5J4300D01*
G01*
X141435Y131387D01*
X135887D01*
Y138419D01*
X132399D01*
G37*
X147517D02*
G36*
X147517Y138419D02*
Y138326D01*
X155199D01*
G75*
G02*
X165511Y134025I4259J-4301D01*
G01*
G75*
G02*
X162869Y129025I-6054J0D01*
G01*
G75*
G02*
X165511Y124065I-3411J-5000D01*
G01*
X183406D01*
G75*
G02*
X186047Y129025I6053J-39D01*
G01*
G75*
G02*
X183406Y134025I3411J5000D01*
G01*
G75*
G02*
X189458Y140078I6053J0D01*
G01*
G75*
G02*
X195511Y134025I0J-6053D01*
G01*
G75*
G02*
X192869Y129025I-6053J0D01*
G01*
G75*
G02*
X195511Y124065I-3411J-5000D01*
G01*
X219393D01*
G75*
G02*
X223071Y127118I5459J-2834D01*
G01*
Y128868D01*
X221557D01*
Y139382D01*
X202714D01*
G75*
G02*
X199670Y140645I0J4302D01*
G01*
X197667Y142647D01*
X161845D01*
G75*
G02*
X152426I-4709J6615D01*
G01*
X149486D01*
Y138419D01*
X147517D01*
G37*
X231672Y128868D02*
G36*
X231672Y128868D02*
Y124065D01*
X251163D01*
Y130509D01*
X264053D01*
Y124065D01*
X278793D01*
G75*
G02*
X297447I9327J-5669D01*
G01*
X326824D01*
G75*
G02*
X345478I9327J-5669D01*
G01*
X412580D01*
Y141781D01*
G75*
G02*
X399139Y142647I-6428J4960D01*
G01*
X395742D01*
G75*
G02*
X391151Y140591I-4591J4094D01*
G01*
G75*
G02*
X386561Y142647I0J6151D01*
G01*
X357730D01*
G75*
G02*
X343706I-7012J4094D01*
G01*
X340309D01*
G75*
G02*
X335718Y140591I-4591J4094D01*
G01*
G75*
G02*
X331128Y142647I0J6151D01*
G01*
X257651D01*
G75*
G02*
X258720Y139183I-5083J-3465D01*
G01*
G75*
G02*
X246417I-6151J0D01*
G01*
G75*
G02*
X247486Y142647I6151J0D01*
G01*
X233187D01*
Y128868D01*
X231672D01*
G37*
X29565Y154183D02*
G36*
X29565Y154183D02*
Y142647D01*
X98151D01*
Y154183D01*
X29565D01*
G37*
X114702D02*
G36*
X114702Y154183D02*
Y142647D01*
X118801D01*
Y153986D01*
X149486D01*
Y151984D01*
G75*
G02*
X150677Y154183I7650J-2723D01*
G01*
X114702D01*
G37*
X149486Y146539D02*
G36*
X149486Y146539D02*
Y142647D01*
X152426D01*
G75*
G02*
X149486Y146539I4710J6614D01*
G01*
G37*
X165255Y149261D02*
G36*
X165255Y149261D02*
G75*
G02*
X161845Y142647I-8120J0D01*
G01*
X197667D01*
X197204Y143111D01*
G75*
G02*
X197135Y143110I-52J2980D01*
G01*
G75*
G02*
X190984Y149261I0J6151D01*
G01*
Y149261D01*
Y149262D01*
G75*
G02*
X193445Y154183I6151J0D01*
G01*
X163594D01*
G75*
G02*
X165255Y149261I-6458J-4921D01*
G01*
G37*
X203287Y149262D02*
G36*
X203287Y149262D02*
Y149261D01*
G75*
G02*
Y149244I-2948J-8D01*
G01*
G75*
G02*
X203286Y149193I-2994J-3D01*
G01*
X204496Y147983D01*
X215218D01*
Y154183D01*
X200826D01*
G75*
G02*
X203287Y149262I-3690J-4921D01*
G01*
G37*
X232401Y149883D02*
G36*
X232401Y149883D02*
Y149498D01*
X233187D01*
Y142647D01*
X247486D01*
G75*
G02*
X257651I5083J-3465D01*
G01*
X331128D01*
G75*
G02*
X329567Y146741I4590J4094D01*
G01*
Y146742D01*
Y146742D01*
G75*
G02*
X335718Y152893I6151J0D01*
G01*
G75*
G02*
X341869Y146742I0J-6151D01*
G01*
Y146742D01*
Y146741D01*
G75*
G02*
X340309Y142647I-6151J0D01*
G01*
X343706D01*
G75*
G02*
X342598Y146742I7012J4094D01*
G01*
G75*
G02*
X347468Y154183I8120J0D01*
G01*
X314466D01*
Y147836D01*
X303442D01*
G75*
G02*
X290597Y148579I-6070J6465D01*
G01*
G75*
G02*
X279844Y154183I-3855J5721D01*
G01*
X260688D01*
G75*
G02*
X244449I-8120J0D01*
G01*
X232517D01*
Y149883D01*
X232401D01*
G37*
X358838Y146742D02*
G36*
X358838Y146742D02*
G75*
G02*
X357730Y142647I-8120J0D01*
G01*
X386561D01*
G75*
G02*
X385000Y146741I4590J4094D01*
G01*
Y146742D01*
Y146742D01*
G75*
G02*
X391151Y152893I6151J0D01*
G01*
G75*
G02*
X397302Y146742I0J-6151D01*
G01*
Y146742D01*
Y146741D01*
G75*
G02*
X395742Y142647I-6151J0D01*
G01*
X399139D01*
G75*
G02*
X398031Y146742I7012J4094D01*
G01*
G75*
G02*
X402901Y154183I8120J0D01*
G01*
X353968D01*
G75*
G02*
X358838Y146742I-3250J-7441D01*
G01*
G37*
X409401Y154183D02*
G36*
X409401Y154183D02*
G75*
G02*
X412580Y151702I-3250J-7441D01*
G01*
Y154183D01*
X409401D01*
G37*
X29565Y163731D02*
G36*
X29565Y163731D02*
Y154183D01*
X98151D01*
Y154939D01*
X114702D01*
Y154183D01*
X150677D01*
G75*
G02*
X163594I6458J-4921D01*
G01*
X193445D01*
G75*
G02*
X197135Y155413I3690J-4921D01*
G01*
G75*
G02*
X200826Y154183I0J-6151D01*
G01*
X215218D01*
Y160687D01*
X227990D01*
Y158718D01*
X232517D01*
Y154183D01*
X244449D01*
G75*
G02*
X260688I8120J0D01*
G01*
X279844D01*
G75*
G02*
X279843Y154301I6912J128D01*
G01*
G75*
G02*
X290597Y160022I6900J0D01*
G01*
G75*
G02*
X303442Y160765I6775J-5722D01*
G01*
X314466D01*
Y154183D01*
X347468D01*
G75*
G02*
X353968I3250J-7441D01*
G01*
X402901D01*
G75*
G02*
X409401I3250J-7441D01*
G01*
X412580D01*
Y163731D01*
X381072D01*
G75*
G02*
X377904Y166899I0J3168D01*
G01*
Y166899D01*
Y176978D01*
X356524D01*
Y166899D01*
Y166899D01*
G75*
G02*
X353356Y163731I-3169J0D01*
G01*
X285324D01*
G75*
G02*
X282156Y166899I0J3168D01*
G01*
Y166899D01*
Y176978D01*
X263296D01*
Y166899D01*
Y166899D01*
G75*
G02*
X260128Y163731I-3169J0D01*
G01*
X176978D01*
G75*
G02*
X173809Y166899I0J3168D01*
G01*
Y166899D01*
Y176978D01*
X147391D01*
Y166899D01*
Y166899D01*
G75*
G02*
X144222Y163731I-3169J0D01*
G01*
X78710D01*
G75*
G02*
X75542Y166899I0J3168D01*
G01*
Y166899D01*
Y176978D01*
X54162D01*
Y166899D01*
Y166899D01*
G75*
G02*
X50994Y163731I-3169J0D01*
G01*
X29565D01*
G37*
Y207214D02*
G36*
X29565Y207214D02*
Y190225D01*
X50994D01*
G75*
G02*
X54162Y187057I0J-3168D01*
G01*
Y187057D01*
Y176978D01*
X75542D01*
Y187057D01*
Y187057D01*
G75*
G02*
X78710Y190225I3169J0D01*
G01*
X144222D01*
G75*
G02*
X147391Y187057I0J-3168D01*
G01*
Y187057D01*
Y176978D01*
X173809D01*
Y187057D01*
Y187057D01*
G75*
G02*
X176978Y190225I3169J0D01*
G01*
X260128D01*
G75*
G02*
X263296Y187057I0J-3168D01*
G01*
Y187057D01*
Y176978D01*
X282156D01*
Y187057D01*
Y187057D01*
G75*
G02*
X285324Y190225I3169J0D01*
G01*
X353356D01*
G75*
G02*
X356524Y187057I0J-3168D01*
G01*
Y187057D01*
Y176978D01*
X377904D01*
Y187057D01*
Y187057D01*
G75*
G02*
X381072Y190225I3169J0D01*
G01*
X412580D01*
Y207214D01*
X248090D01*
G75*
G02*
X231850I-8120J0D01*
G01*
X206121D01*
Y207214D01*
G75*
G02*
X199970Y201063I-6151J0D01*
G01*
G75*
G02*
X193819Y207214I0J6151D01*
G01*
Y207214D01*
X188324D01*
Y200907D01*
X165710D01*
Y207214D01*
X29565D01*
G37*
Y219813D02*
G36*
X29565Y219813D02*
Y207214D01*
X165710D01*
Y213521D01*
X188324D01*
Y207214D01*
X193819D01*
Y207215D01*
G75*
G02*
X199970Y213365I6151J0D01*
G01*
G75*
G02*
X206121Y207215I0J-6151D01*
G01*
Y207214D01*
X231850D01*
G75*
G02*
X248090I8120J0D01*
G01*
X412580D01*
Y219813D01*
X175230D01*
G75*
G02*
X168017I-3607J7559D01*
G01*
X165176D01*
Y219812D01*
G75*
G02*
X159025Y213661I-6151J0D01*
G01*
G75*
G02*
X152874Y219812I0J6151D01*
G01*
Y219813D01*
X125176D01*
Y219812D01*
G75*
G02*
X119025Y213661I-6151J0D01*
G01*
G75*
G02*
X112874Y219812I0J6151D01*
G01*
Y219813D01*
X29565D01*
G37*
Y235246D02*
G36*
X29565Y235246D02*
Y219813D01*
X112874D01*
Y219813D01*
G75*
G02*
X119025Y225964I6151J0D01*
G01*
G75*
G02*
X125176Y219813I0J-6151D01*
G01*
Y219813D01*
X152874D01*
Y219813D01*
G75*
G02*
X159025Y225964I6151J0D01*
G01*
G75*
G02*
X165176Y219813I0J-6151D01*
G01*
Y219813D01*
X168017D01*
G75*
G02*
X163248Y227372I3607J7559D01*
G01*
G75*
G02*
X168769Y235246I8376J0D01*
G01*
X165155D01*
Y234694D01*
X153525D01*
Y235246D01*
X152893D01*
G75*
G02*
X140591I-6151J0D01*
G01*
X132735D01*
G75*
G02*
X120433I-6151J0D01*
G01*
X29565D01*
G37*
X178163Y222139D02*
G36*
X178163Y222139D02*
G75*
G02*
X175230Y219813I-6539J5233D01*
G01*
X412580D01*
Y235246D01*
X346692D01*
G75*
G02*
X347066Y232411I-10541J-2834D01*
G01*
G75*
G02*
X325236I-10915J0D01*
G01*
G75*
G02*
X325611Y235246I10915J0D01*
G01*
X298660D01*
G75*
G02*
X299035Y232411I-10541J-2834D01*
G01*
G75*
G02*
X277205I-10915J0D01*
G01*
G75*
G02*
X277579Y235246I10915J0D01*
G01*
X261396D01*
G75*
G02*
X264231Y229813I-3789J-5433D01*
G01*
G75*
G02*
X250984I-6624J0D01*
G01*
G75*
G02*
X253819Y235246I6624J0D01*
G01*
X248236D01*
G75*
G02*
X248897Y232411I-5746J-2834D01*
G01*
G75*
G02*
X236083I-6407J0D01*
G01*
G75*
G02*
X236744Y235246I6407J0D01*
G01*
X217494D01*
G75*
G02*
X218109Y232096I-7761J-3150D01*
G01*
G75*
G02*
X201358I-8376J0D01*
G01*
G75*
G02*
Y232097I9023J0D01*
G01*
G75*
G02*
X201973Y235246I8374J0D01*
G01*
X195857D01*
Y232558D01*
G75*
G02*
X198503Y227372I-3762J-5187D01*
G01*
G75*
G02*
X192096Y220965I-6407J0D01*
G01*
G75*
G02*
X186978Y223517I0J6407D01*
G01*
G75*
G02*
X178163Y222139I-5118J3855D01*
G01*
G37*
X174478Y235246D02*
G36*
X174478Y235246D02*
G75*
G02*
X178163Y232605I-2855J-7874D01*
G01*
G75*
G02*
X186978Y231226I3697J-5233D01*
G01*
G75*
G02*
X187256Y231570I5121J-3857D01*
G01*
Y235246D01*
X174478D01*
G37*
X29565Y242490D02*
G36*
X29565Y242490D02*
Y235246D01*
X120433D01*
G75*
G02*
X132735I6151J0D01*
G01*
X140591D01*
G75*
G02*
X152893I6151J0D01*
G01*
X153525D01*
Y242490D01*
X29565D01*
G37*
X165155Y236209D02*
G36*
X165155Y236209D02*
Y235246D01*
X168769D01*
G75*
G02*
X174478I2854J-7874D01*
G01*
X187256D01*
Y236675D01*
X176742D01*
Y238189D01*
X176556D01*
G75*
G02*
X170777Y236287I-4617J4300D01*
G01*
G75*
G02*
X169953Y236209I-823J4265D01*
G01*
X165155D01*
G37*
X195857Y236675D02*
G36*
X195857Y236675D02*
Y235246D01*
X201973D01*
G75*
G02*
X203824Y238031I7759J-3149D01*
G01*
X197372D01*
Y236675D01*
X195857D01*
G37*
X216141Y242332D02*
G36*
X216141Y242332D02*
G75*
G02*
X214967Y238635I-6408J0D01*
G01*
G75*
G02*
X217494Y235246I-5233J-6539D01*
G01*
X236744D01*
G75*
G02*
X238635Y237529I5746J-2835D01*
G01*
G75*
G02*
X236085Y242490I3855J5119D01*
G01*
X231003D01*
G75*
G02*
X218701I-6151J0D01*
G01*
X216139D01*
G75*
G02*
X216141Y242332I-6402J-159D01*
G01*
G37*
X246344Y237529D02*
G36*
X246344Y237529D02*
G75*
G02*
X248236Y235246I-3854J-5118D01*
G01*
X253819D01*
G75*
G02*
X261396I3789J-5433D01*
G01*
X277579D01*
G75*
G02*
X283930Y242490I10541J-2835D01*
G01*
X248895D01*
G75*
G02*
X246344Y237529I-6405J157D01*
G01*
G37*
X292309Y242490D02*
G36*
X292309Y242490D02*
G75*
G02*
X298660Y235246I-4190J-10079D01*
G01*
X325611D01*
G75*
G02*
X331961Y242490I10541J-2835D01*
G01*
X292309D01*
G37*
X340341D02*
G36*
X340341Y242490D02*
G75*
G02*
X346692Y235246I-4190J-10079D01*
G01*
X412580D01*
Y242490D01*
X401631D01*
Y239647D01*
X380671D01*
Y242490D01*
X340341D01*
G37*
X29565Y256033D02*
G36*
X29565Y256033D02*
Y242490D01*
X153525D01*
Y255324D01*
X159073D01*
X159355Y255606D01*
G75*
G02*
X159851Y256033I3045J-3040D01*
G01*
X29565D01*
G37*
X213588Y247450D02*
G36*
X213588Y247450D02*
G75*
G02*
X216139Y242490I-3855J-5119D01*
G01*
X218701D01*
G75*
G02*
X231003I6151J0D01*
G01*
X236085D01*
G75*
G02*
X236083Y242647I6402J159D01*
G01*
G75*
G02*
X237257Y246344I6408J0D01*
G01*
G75*
G02*
X234114Y252883I5233J6539D01*
G01*
G75*
G02*
X234729Y256033I8376J0D01*
G01*
X215123D01*
G75*
G02*
X216141Y252569I-5390J-3465D01*
G01*
G75*
G02*
X213588Y247450I-6407J0D01*
G01*
G37*
X248897Y242647D02*
G36*
X248897Y242647D02*
G75*
G02*
X248895Y242490I-6409J1D01*
G01*
X283930D01*
G75*
G02*
X292309I4190J-10078D01*
G01*
X331961D01*
G75*
G02*
X340341I4190J-10078D01*
G01*
X380671D01*
Y256033D01*
X378852D01*
Y249799D01*
G75*
G02*
X376283Y247230I-2569J0D01*
G01*
X369783D01*
G75*
G02*
X367215Y249799I0J2569D01*
G01*
Y256033D01*
X291161D01*
G75*
G02*
X269331I-10915J0D01*
G01*
X250251D01*
G75*
G02*
X250865Y252883I-7761J-3149D01*
G01*
G75*
G02*
X247723Y246344I-8375J0D01*
G01*
G75*
G02*
X248897Y242647I-5232J-3697D01*
G01*
G37*
X401631Y256033D02*
G36*
X401631Y256033D02*
Y242490D01*
X412580D01*
Y256033D01*
X401631D01*
G37*
X29565Y275246D02*
G36*
X29565Y275246D02*
Y256033D01*
X159851D01*
G75*
G02*
X162399Y256869I2548J-3465D01*
G01*
X204985D01*
G75*
G02*
X205433Y257318I4625J-4177D01*
G01*
Y259891D01*
X203919D01*
Y270406D01*
X196277D01*
Y258466D01*
X182639D01*
Y272104D01*
X184309D01*
G75*
G02*
X183406Y275246I5149J3181D01*
G01*
X165511D01*
G75*
G02*
X162869Y270285I-6053J39D01*
G01*
G75*
G02*
X165511Y265285I-3411J-5000D01*
G01*
G75*
G02*
X159458Y259232I-6053J0D01*
G01*
G75*
G02*
X153406Y265285I0J6053D01*
G01*
G75*
G02*
X156047Y270285I6053J0D01*
G01*
G75*
G02*
X153406Y275246I3411J5000D01*
G01*
X152893D01*
G75*
G02*
X140591I-6151J0D01*
G01*
X132735D01*
G75*
G02*
X120433I-6151J0D01*
G01*
X29565D01*
G37*
X214035Y259891D02*
G36*
X214035Y259891D02*
Y257318D01*
G75*
G02*
X215123Y256033I-4302J-4749D01*
G01*
X234729D01*
G75*
G02*
X250251I7761J-3150D01*
G01*
X269331D01*
G75*
G02*
X291161I10915J0D01*
G01*
X367215D01*
Y275246D01*
X346136D01*
G75*
G02*
X326167I-9985J4409D01*
G01*
X298104D01*
G75*
G02*
X278135I-9985J4409D01*
G01*
X215549D01*
Y259891D01*
X214035D01*
G37*
X378852Y275246D02*
G36*
X378852Y275246D02*
Y256033D01*
X380671D01*
Y275246D01*
X378852D01*
G37*
X401631D02*
G36*
X401631Y275246D02*
Y256033D01*
X412580D01*
Y275246D01*
X401631D01*
G37*
X29565Y285324D02*
G36*
X29565Y285324D02*
Y275246D01*
X120433D01*
G75*
G02*
X132735I6151J0D01*
G01*
X140591D01*
G75*
G02*
Y275263I3017J9D01*
G01*
G75*
G02*
X140591Y275314I2971J3D01*
G01*
X130581Y285324D01*
X29565D01*
G37*
X142745D02*
G36*
X142745Y285324D02*
X146673Y281396D01*
G75*
G02*
X152893Y275246I68J-6151D01*
G01*
X153406D01*
G75*
G02*
Y275285I6064J20D01*
G01*
G75*
G02*
X156047Y280285I6053J0D01*
G01*
G75*
G02*
X153406Y285285I3411J5000D01*
G01*
G75*
G02*
Y285324I6064J20D01*
G01*
X142745D01*
G37*
X165511Y275285D02*
G36*
X165511Y275285D02*
G75*
G02*
Y275246I-6064J-20D01*
G01*
X183406D01*
G75*
G02*
X183405Y275285I6064J80D01*
G01*
G75*
G02*
X186047Y280285I6052J0D01*
G01*
G75*
G02*
X183406Y285285I3411J5000D01*
G01*
G75*
G02*
Y285324I6064J20D01*
G01*
X165511D01*
G75*
G02*
Y285285I-6064J-20D01*
G01*
G75*
G02*
X162869Y280285I-6053J0D01*
G01*
G75*
G02*
X165511Y275285I-3411J-5000D01*
G01*
G37*
X192869Y280285D02*
G36*
X192869Y280285D02*
G75*
G02*
X194231Y279007I-3415J-5005D01*
G01*
X203919D01*
Y280521D01*
X215549D01*
Y275246D01*
X278135D01*
G75*
G02*
X277205Y279655I9985J4409D01*
G01*
G75*
G02*
X278793Y285324I10915J0D01*
G01*
X264053D01*
Y278880D01*
X251163D01*
Y285324D01*
X231672D01*
Y285009D01*
G75*
G02*
X231000Y282700I-4303J0D01*
G01*
G75*
G02*
X231003Y282500I-5579J-199D01*
G01*
G75*
G02*
Y282490I-5537J-5D01*
G01*
G75*
G02*
X218701I-6151J0D01*
G01*
G75*
G02*
X219393Y285324I6152J0D01*
G01*
X195511D01*
G75*
G02*
Y285285I-6064J-20D01*
G01*
G75*
G02*
X192869Y280285I-6053J0D01*
G01*
G37*
X299035Y279655D02*
G36*
X299035Y279655D02*
G75*
G02*
X298104Y275246I-10915J0D01*
G01*
X326167D01*
G75*
G02*
X325236Y279655I9985J4409D01*
G01*
G75*
G02*
X326824Y285324I10915J0D01*
G01*
X297447D01*
G75*
G02*
X299035Y279655I-9327J-5669D01*
G01*
G37*
X347066D02*
G36*
X347066Y279655D02*
G75*
G02*
X346136Y275246I-10915J0D01*
G01*
X367215D01*
Y275299D01*
G75*
G02*
X369783Y277867I2569J0D01*
G01*
X376283D01*
G75*
G02*
X378852Y275299I0J-2569D01*
G01*
Y275246D01*
X380671D01*
Y280608D01*
X401631D01*
Y275246D01*
X412580D01*
Y285324D01*
X345478D01*
G75*
G02*
X347066Y279655I-9327J-5669D01*
G01*
G37*
X29565Y303907D02*
G36*
X29565Y303907D02*
Y285324D01*
X130581D01*
X123546Y292359D01*
G75*
G02*
X123282Y292647I3030J3039D01*
G01*
X120769D01*
Y299679D01*
X118801D01*
Y303907D01*
X114702D01*
Y299647D01*
X112734D01*
Y291616D01*
X100120D01*
Y299647D01*
X98151D01*
Y303907D01*
X29565D01*
G37*
X132399Y299679D02*
G36*
X132399Y299679D02*
Y295670D01*
X142745Y285324D01*
X153406D01*
G75*
G02*
X156047Y290285I6053J-39D01*
G01*
G75*
G02*
X155199Y290984I3426J5019D01*
G01*
X144885D01*
G75*
G02*
X141839Y292244I-5J4300D01*
G01*
X141435Y292647D01*
X135887D01*
Y299679D01*
X132399D01*
G37*
X147517D02*
G36*
X147517Y299679D02*
Y299586D01*
X155199D01*
G75*
G02*
X165511Y295285I4259J-4301D01*
G01*
G75*
G02*
X162869Y290285I-6054J0D01*
G01*
G75*
G02*
X165511Y285324I-3411J-5000D01*
G01*
X183406D01*
G75*
G02*
X186047Y290285I6053J-39D01*
G01*
G75*
G02*
X183406Y295285I3411J5000D01*
G01*
G75*
G02*
X189458Y301338I6053J0D01*
G01*
G75*
G02*
X195511Y295285I0J-6053D01*
G01*
G75*
G02*
X192869Y290285I-6053J0D01*
G01*
G75*
G02*
X195511Y285324I-3411J-5000D01*
G01*
X219393D01*
G75*
G02*
X223071Y288378I5459J-2834D01*
G01*
Y290128D01*
X221557D01*
Y300642D01*
X202714D01*
G75*
G02*
X199670Y301905I0J4302D01*
G01*
X197667Y303907D01*
X161845D01*
G75*
G02*
X152426I-4709J6615D01*
G01*
X149486D01*
Y299679D01*
X147517D01*
G37*
X231672Y290128D02*
G36*
X231672Y290128D02*
Y285324D01*
X251163D01*
Y291769D01*
X264053D01*
Y285324D01*
X278793D01*
G75*
G02*
X297447I9327J-5669D01*
G01*
X326824D01*
G75*
G02*
X345478I9327J-5669D01*
G01*
X412580D01*
Y303041D01*
G75*
G02*
X399139Y303907I-6428J4960D01*
G01*
X395742D01*
G75*
G02*
X391151Y301850I-4591J4094D01*
G01*
G75*
G02*
X386561Y303907I0J6151D01*
G01*
X357730D01*
G75*
G02*
X343706I-7012J4094D01*
G01*
X340309D01*
G75*
G02*
X335718Y301850I-4591J4094D01*
G01*
G75*
G02*
X331128Y303907I0J6151D01*
G01*
X257651D01*
G75*
G02*
X258720Y300443I-5083J-3465D01*
G01*
G75*
G02*
X246417I-6151J0D01*
G01*
G75*
G02*
X247486Y303907I6151J0D01*
G01*
X233187D01*
Y290128D01*
X231672D01*
G37*
X29565Y315443D02*
G36*
X29565Y315443D02*
Y303907D01*
X98151D01*
Y315443D01*
X29565D01*
G37*
X114702D02*
G36*
X114702Y315443D02*
Y303907D01*
X118801D01*
Y315246D01*
X149486D01*
Y313244D01*
G75*
G02*
X150677Y315443I7650J-2723D01*
G01*
X114702D01*
G37*
X149486Y307798D02*
G36*
X149486Y307798D02*
Y303907D01*
X152426D01*
G75*
G02*
X149486Y307798I4710J6614D01*
G01*
G37*
X165255Y310521D02*
G36*
X165255Y310521D02*
G75*
G02*
X161845Y303907I-8120J0D01*
G01*
X197667D01*
X197204Y304370D01*
G75*
G02*
X197135Y304370I-52J2980D01*
G01*
G75*
G02*
X190984Y310521I0J6151D01*
G01*
Y310521D01*
Y310522D01*
G75*
G02*
X193445Y315443I6151J0D01*
G01*
X163594D01*
G75*
G02*
X165255Y310521I-6458J-4921D01*
G01*
G37*
X203287Y310522D02*
G36*
X203287Y310522D02*
Y310521D01*
G75*
G02*
Y310504I-2948J-8D01*
G01*
G75*
G02*
X203286Y310453I-2994J-3D01*
G01*
X204496Y309243D01*
X215218D01*
Y315443D01*
X200826D01*
G75*
G02*
X203287Y310522I-3690J-4921D01*
G01*
G37*
X232401Y311143D02*
G36*
X232401Y311143D02*
Y310757D01*
X233187D01*
Y303907D01*
X247486D01*
G75*
G02*
X257651I5083J-3465D01*
G01*
X331128D01*
G75*
G02*
X329567Y308001I4590J4094D01*
G01*
Y308002D01*
Y308002D01*
G75*
G02*
X335718Y314153I6151J0D01*
G01*
G75*
G02*
X341869Y308002I0J-6151D01*
G01*
Y308002D01*
Y308001D01*
G75*
G02*
X340309Y303907I-6151J0D01*
G01*
X343706D01*
G75*
G02*
X342598Y308002I7012J4094D01*
G01*
G75*
G02*
X347468Y315443I8120J0D01*
G01*
X314466D01*
Y309096D01*
X303442D01*
G75*
G02*
X290597Y309839I-6070J6465D01*
G01*
G75*
G02*
X279844Y315443I-3855J5721D01*
G01*
X260688D01*
G75*
G02*
X244449I-8120J0D01*
G01*
X232517D01*
Y311143D01*
X232401D01*
G37*
X358838Y308002D02*
G36*
X358838Y308002D02*
G75*
G02*
X357730Y303907I-8120J0D01*
G01*
X386561D01*
G75*
G02*
X385000Y308001I4590J4094D01*
G01*
Y308002D01*
Y308002D01*
G75*
G02*
X391151Y314153I6151J0D01*
G01*
G75*
G02*
X397302Y308002I0J-6151D01*
G01*
Y308002D01*
Y308001D01*
G75*
G02*
X395742Y303907I-6151J0D01*
G01*
X399139D01*
G75*
G02*
X398031Y308002I7012J4094D01*
G01*
G75*
G02*
X402901Y315443I8120J0D01*
G01*
X353968D01*
G75*
G02*
X358838Y308002I-3250J-7441D01*
G01*
G37*
X409401Y315443D02*
G36*
X409401Y315443D02*
G75*
G02*
X412580Y312962I-3250J-7441D01*
G01*
Y315443D01*
X409401D01*
G37*
X29565Y324391D02*
G36*
X29565Y324391D02*
Y315443D01*
X98151D01*
Y316198D01*
X114702D01*
Y315443D01*
X150677D01*
G75*
G02*
X163594I6458J-4921D01*
G01*
X193445D01*
G75*
G02*
X197135Y316672I3690J-4921D01*
G01*
G75*
G02*
X200826Y315443I0J-6151D01*
G01*
X215218D01*
Y321946D01*
X227990D01*
Y319978D01*
X232517D01*
Y315443D01*
X244449D01*
G75*
G02*
X260688I8120J0D01*
G01*
X279844D01*
G75*
G02*
X279843Y315561I6912J128D01*
G01*
G75*
G02*
X290597Y321282I6900J0D01*
G01*
G75*
G02*
X296556Y324391I6775J-5722D01*
G01*
X29565D01*
G37*
X298188D02*
G36*
X298188Y324391D02*
G75*
G02*
X303442Y322025I-816J-8831D01*
G01*
X314466D01*
Y315443D01*
X347468D01*
G75*
G02*
X353968I3250J-7441D01*
G01*
X402901D01*
G75*
G02*
X409401I3250J-7441D01*
G01*
X412580D01*
Y324391D01*
X298188D01*
G37*
D02*
D11*
X104655Y146663D02*
X96781D01*
X104655Y307923D02*
X96781D01*
X106427Y148435D02*
Y156309D01*
Y309694D02*
Y317569D01*
X108198Y146663D02*
X116072D01*
X108198Y307923D02*
X116072D01*
X125305Y146202D02*
X117431D01*
X125305Y307462D02*
X117431D01*
X126584Y147482D02*
Y155356D01*
Y308742D02*
Y316616D01*
X141702Y147482D02*
Y155356D01*
Y308742D02*
Y316616D01*
X157135Y150876D02*
Y158750D01*
Y312135D02*
Y320009D01*
X158750Y149261D02*
X166624D01*
X158750Y310521D02*
X166624D01*
X169754Y66112D02*
X161880D01*
X169754Y227372D02*
X161880D01*
X171624Y64242D02*
Y56368D01*
Y225502D02*
Y217628D01*
X189143Y104025D02*
X181269D01*
X189143Y265285D02*
X181269D01*
X189773Y104025D02*
X197647D01*
X189773Y265285D02*
X197647D01*
X207864Y70836D02*
X199990D01*
X207864Y232096D02*
X199990D01*
X209734Y68966D02*
Y61092D01*
Y230226D02*
Y222352D01*
X211604Y70836D02*
X219478D01*
X211604Y232096D02*
X219478D01*
X221604Y154183D02*
Y162057D01*
Y315443D02*
Y323317D01*
X221722Y154301D02*
X213848D01*
X221722Y315561D02*
X213848D01*
X238356Y45954D02*
X230482D01*
X238356Y207214D02*
X230482D01*
X239970Y44340D02*
Y36466D01*
Y47569D02*
Y55443D01*
Y205600D02*
Y197726D01*
Y208828D02*
Y216702D01*
X240620Y91624D02*
X232746D01*
X240620Y252883D02*
X232746D01*
X241584Y45954D02*
X249458D01*
X241584Y207214D02*
X249458D01*
X242490Y93494D02*
Y101368D01*
Y254754D02*
Y262628D01*
X244360Y91624D02*
X252234D01*
X244360Y252883D02*
X252234D01*
X250954Y154183D02*
X243080D01*
X250954Y315443D02*
X243080D01*
X254183Y154183D02*
X262057D01*
X254183Y315443D02*
X262057D01*
X297372Y151939D02*
Y144065D01*
Y313198D02*
Y305324D01*
X350718Y145128D02*
Y137254D01*
Y148356D02*
Y156230D01*
Y306387D02*
Y298513D01*
Y309616D02*
Y317490D01*
X352332Y146742D02*
X360206D01*
X352332Y308002D02*
X360206D01*
X406151Y145128D02*
Y137254D01*
Y148356D02*
Y156230D01*
Y306387D02*
Y298513D01*
Y309616D02*
Y317490D01*
D02*
D15*
X373846Y86269D02*
Y88769D01*
X375096Y87519D02*
X372596D01*
X373846Y106269D02*
Y108769D01*
Y250049D02*
Y252549D01*
X375096Y251299D02*
X372596D01*
X373846Y270049D02*
Y272549D01*
D02*
D19*
X308002Y154301D03*
Y315561D03*
D02*
D21*
X189458Y104025D03*
Y265285D03*
D02*
D23*
X257608Y124065D03*
Y285324D03*
D02*
D26*
X280246Y94773D03*
Y256033D03*
X288120Y71151D03*
Y118395D03*
Y232411D03*
Y279655D03*
X336151Y71151D03*
Y118395D03*
Y232411D03*
Y279655D03*
D02*
D106*
X171624Y66112D03*
Y227372D03*
X181860Y66112D03*
Y227372D03*
X192096Y66112D03*
Y227372D03*
X209734Y70836D03*
Y81072D03*
Y91309D03*
Y232096D03*
Y242332D03*
Y252569D03*
X242490Y71151D03*
Y81387D03*
Y91624D03*
Y232411D03*
Y242647D03*
Y252883D03*
D02*
D114*
X126584Y137202D02*
Y134143D01*
X146742Y113986D01*
X126584Y298462D02*
Y295403D01*
X146742Y275246D01*
X159340Y79250D02*
X169958D01*
X171939Y81230D01*
X159340Y240509D02*
X169958D01*
X171939Y242490D01*
X159458Y134025D02*
X144880D01*
X141702Y137202D01*
X159458Y295285D02*
X144880D01*
X141702Y298462D01*
X182557Y81230D02*
X171939D01*
X182557Y242490D02*
X171939D01*
X191557Y81230D02*
Y66651D01*
X192096Y66112D01*
X191557Y242490D02*
Y227911D01*
X192096Y227372D01*
X209734Y81072D02*
X191714D01*
X191557Y81230D01*
X209734Y91309D02*
X162399D01*
X159340Y88250D01*
X209734Y104446D02*
Y91309D01*
Y113446D02*
X190037D01*
X189458Y114025D01*
X209734Y242332D02*
X191714D01*
X191557Y242490D01*
X209734Y252569D02*
X162399D01*
X159340Y249509D01*
X209734Y265706D02*
Y252569D01*
Y274706D02*
X190037D01*
X189458Y275285D01*
X227372Y134683D02*
Y123750D01*
X224852Y121230D01*
X227372Y143683D02*
X202714D01*
X197135Y149261D01*
X227372Y295943D02*
Y285009D01*
X224852Y282490D01*
X227372Y304943D02*
X202714D01*
X197135Y310521D01*
X228100Y154301D02*
Y144411D01*
X227372Y143683D01*
X228100Y315561D02*
Y305671D01*
X227372Y304943D01*
D02*
D115*
X171939Y81230D03*
Y242490D03*
D02*
D116*
X119025Y58553D03*
Y219813D03*
X126584Y73986D03*
Y113986D03*
Y235246D03*
Y275246D03*
X146742Y73986D03*
Y113986D03*
Y235246D03*
Y275246D03*
X157135Y149261D03*
Y310521D03*
X159025Y58553D03*
Y219813D03*
X197135Y149261D03*
Y310521D03*
X199970Y45954D03*
Y207214D03*
X224852Y81230D03*
Y121230D03*
Y242490D03*
Y282490D03*
X239970Y45954D03*
Y207214D03*
X252569Y139183D03*
Y154183D03*
Y300443D03*
Y315443D03*
X335718Y146742D03*
Y308002D03*
X350718Y146742D03*
Y308002D03*
X391151Y146742D03*
Y308002D03*
X406151Y146742D03*
Y308002D03*
D02*
D117*
X126584Y137202D03*
Y146202D03*
Y298462D03*
Y307462D03*
X141702Y137202D03*
Y146202D03*
Y298462D03*
Y307462D03*
X159340Y79250D03*
Y88250D03*
Y240509D03*
Y249509D03*
X209734Y104446D03*
Y113446D03*
Y265706D03*
Y274706D03*
X227372Y134683D03*
Y143683D03*
Y295943D03*
Y304943D03*
D02*
D118*
X286742Y154301D03*
Y315561D03*
X297372Y154301D03*
Y315561D03*
D02*
D119*
X159458Y104025D03*
Y114025D03*
Y124025D03*
Y134025D03*
Y265285D03*
Y275285D03*
Y285285D03*
Y295285D03*
X189458Y114025D03*
Y124025D03*
Y134025D03*
Y275285D03*
Y285285D03*
Y295285D03*
D02*
D120*
X257608Y68553D03*
Y229813D03*
D02*
D121*
X221604Y154301D03*
Y315561D03*
X228100Y154301D03*
Y315561D03*
D02*
D122*
X182557Y81230D03*
Y242490D03*
X191557Y81230D03*
Y242490D03*
D02*
D123*
X106427Y136663D03*
Y146663D03*
Y297923D03*
Y307923D03*
X172017Y45954D03*
Y207214D03*
X182017Y45954D03*
Y207214D03*
D02*
D124*
X391151Y88868D03*
Y108868D03*
Y250128D03*
Y270128D03*
X0Y0D02*
M02*
