G05
M48
INCH,TZ
FMAT,2
T1C000.02992
T2C000.03200
T3C000.03500
T4C000.03504
T5C000.03701
T6C000.04016
T7C000.04134
T8C000.05197
T9C000.05906
%
T001
X1.59458Y1.04025
X1.59458Y1.14025
X1.59458Y1.24025
X1.59458Y1.34025
X1.59458Y2.65285
X1.59458Y2.75285
X1.59458Y2.85285
X1.59458Y2.95285
X1.89458Y1.04025
X1.89458Y1.14025
X1.89458Y1.24025
X1.89458Y1.34025
X1.89458Y2.65285
X1.89458Y2.75285
X1.89458Y2.85285
X1.89458Y2.95285
T002
X1.19025Y0.58553
X1.19025Y2.19813
X1.26584Y0.73986
X1.26584Y1.13986
X1.26584Y2.35246
X1.26584Y2.75246
X1.46742Y0.73986
X1.46742Y1.13986
X1.46742Y2.35246
X1.46742Y2.75246
X1.57135Y1.49261
X1.57135Y3.10521
X1.59025Y0.58553
X1.59025Y2.19813
X1.97135Y1.49261
X1.97135Y3.10521
X1.99970Y0.45954
X1.99970Y2.07214
X2.24852Y0.81230
X2.24852Y1.21230
X2.24852Y2.42490
X2.24852Y2.82490
X2.39970Y0.45954
X2.39970Y2.07214
X2.52569Y1.39183
X2.52569Y1.54183
X2.52569Y3.00443
X2.52569Y3.15443
X3.35718Y1.46742
X3.35718Y3.08002
X3.50718Y1.46742
X3.50718Y3.08002
X3.91151Y1.46742
X3.91151Y3.08002
X4.06151Y1.46742
X4.06151Y3.08002
T003
X1.06427Y1.36663
X1.06427Y1.46663
X1.06427Y2.97923
X1.06427Y3.07923
X1.72017Y0.45954
X1.72017Y2.07214
X1.82017Y0.45954
X1.82017Y2.07214
T004
X1.71939Y0.81230
X1.71939Y2.42490
T005
X1.71624Y0.66112
X1.71624Y2.27372
X1.81860Y0.66112
X1.81860Y2.27372
X1.92096Y0.66112
X1.92096Y2.27372
X2.09734Y0.70836
X2.09734Y0.81072
X2.09734Y0.91309
X2.09734Y2.32096
X2.09734Y2.42332
X2.09734Y2.52569
X2.42490Y0.71151
X2.42490Y0.81387
X2.42490Y0.91624
X2.42490Y2.32411
X2.42490Y2.42647
X2.42490Y2.52883
T006
X3.91151Y0.88868
X3.91151Y1.08868
X3.91151Y2.50128
X3.91151Y2.70128
T007
X2.57608Y0.68553
X2.57608Y1.24065
X2.57608Y2.29813
X2.57608Y2.85324
T008
X2.86742Y1.54301
X2.86742Y3.15561
X2.97372Y1.54301
X2.97372Y3.15561
X3.08002Y1.54301
X3.08002Y3.15561
T009
X2.80246Y0.94773
X2.80246Y2.56033
X2.88120Y0.71151
X2.88120Y1.18395
X2.88120Y2.32411
X2.88120Y2.79655
X3.36151Y0.71151
X3.36151Y1.18395
X3.36151Y2.32411
X3.36151Y2.79655
M30
