G04 DesignSpark PCB Gerber Version 10.0 Build 5299*
G04 #@! TF.Part,Single*
G04 #@! TF.FileFunction,Drillmap*
G04 #@! TF.FilePolarity,Positive*
%FSLAX35Y35*%
%MOIN*%
%ADD15C,0.00500*%
G04 #@! TA.AperFunction,ViaPad*
%ADD81C,0.10000*%
G04 #@! TD.AperFunction*
X0Y0D02*
D02*
D15*
X119552Y143226D02*
X119239Y142913D01*
X118614Y142600D01*
X117677D01*
X117052Y142913D01*
X116739Y143226D01*
X116427Y143850D01*
Y145100D01*
X116739Y145726D01*
X117052Y146038D01*
X117677Y146350D01*
X118614D01*
X119239Y146038D01*
X119552Y145726D01*
Y153226D02*
X119239Y152913D01*
X118614Y152600D01*
X117677D01*
X117052Y152913D01*
X116739Y153226D01*
X116427Y153850D01*
Y155100D01*
X116739Y155726D01*
X117052Y156038D01*
X117677Y156350D01*
X118614D01*
X119239Y156038D01*
X119552Y155726D01*
Y304485D02*
X119239Y304173D01*
X118614Y303860D01*
X117677D01*
X117052Y304173D01*
X116739Y304485D01*
X116427Y305110D01*
Y306360D01*
X116739Y306985D01*
X117052Y307298D01*
X117677Y307610D01*
X118614D01*
X119239Y307298D01*
X119552Y306985D01*
Y314485D02*
X119239Y314173D01*
X118614Y313860D01*
X117677D01*
X117052Y314173D01*
X116739Y314485D01*
X116427Y315110D01*
Y316360D01*
X116739Y316985D01*
X117052Y317298D01*
X117677Y317610D01*
X118614D01*
X119239Y317298D01*
X119552Y316985D01*
X131213Y66365D02*
X131838Y66053D01*
X132150Y65428D01*
X131838Y64803D01*
X131213Y64490D01*
X129025D01*
Y68240D01*
X131213D01*
X131838Y67928D01*
X132150Y67303D01*
X131838Y66678D01*
X131213Y66365D01*
X129025D01*
X131213Y227625D02*
X131838Y227313D01*
X132150Y226688D01*
X131838Y226063D01*
X131213Y225750D01*
X129025D01*
Y229500D01*
X131213D01*
X131838Y229188D01*
X132150Y228563D01*
X131838Y227938D01*
X131213Y227625D01*
X129025D01*
X138772Y81798D02*
X139397Y81486D01*
X139709Y80861D01*
X139397Y80236D01*
X138772Y79923D01*
X136584D01*
Y83673D01*
X138772D01*
X139397Y83361D01*
X139709Y82736D01*
X139397Y82111D01*
X138772Y81798D01*
X136584D01*
X138772Y121798D02*
X139397Y121486D01*
X139709Y120861D01*
X139397Y120236D01*
X138772Y119923D01*
X136584D01*
Y123673D01*
X138772D01*
X139397Y123361D01*
X139709Y122736D01*
X139397Y122111D01*
X138772Y121798D01*
X136584D01*
X138772Y243058D02*
X139397Y242746D01*
X139709Y242121D01*
X139397Y241496D01*
X138772Y241183D01*
X136584D01*
Y244933D01*
X138772D01*
X139397Y244621D01*
X139709Y243996D01*
X139397Y243371D01*
X138772Y243058D01*
X136584D01*
X138772Y283058D02*
X139397Y282746D01*
X139709Y282121D01*
X139397Y281496D01*
X138772Y281183D01*
X136584D01*
Y284933D01*
X138772D01*
X139397Y284621D01*
X139709Y283996D01*
X139397Y283371D01*
X138772Y283058D01*
X136584D01*
X158929Y81798D02*
X159554Y81486D01*
X159867Y80861D01*
X159554Y80236D01*
X158929Y79923D01*
X156742D01*
Y83673D01*
X158929D01*
X159554Y83361D01*
X159867Y82736D01*
X159554Y82111D01*
X158929Y81798D01*
X156742D01*
X158929Y121798D02*
X159554Y121486D01*
X159867Y120861D01*
X159554Y120236D01*
X158929Y119923D01*
X156742D01*
Y123673D01*
X158929D01*
X159554Y123361D01*
X159867Y122736D01*
X159554Y122111D01*
X158929Y121798D01*
X156742D01*
X158929Y243058D02*
X159554Y242746D01*
X159867Y242121D01*
X159554Y241496D01*
X158929Y241183D01*
X156742D01*
Y244933D01*
X158929D01*
X159554Y244621D01*
X159867Y243996D01*
X159554Y243371D01*
X158929Y243058D01*
X156742D01*
X158929Y283058D02*
X159554Y282746D01*
X159867Y282121D01*
X159554Y281496D01*
X158929Y281183D01*
X156742D01*
Y284933D01*
X158929D01*
X159554Y284621D01*
X159867Y283996D01*
X159554Y283371D01*
X158929Y283058D01*
X156742D01*
X169323Y157074D02*
X169948Y156761D01*
X170261Y156137D01*
X169948Y155511D01*
X169323Y155199D01*
X167135D01*
Y158949D01*
X169323D01*
X169948Y158637D01*
X170261Y158011D01*
X169948Y157387D01*
X169323Y157074D01*
X167135D01*
X169323Y318334D02*
X169948Y318021D01*
X170261Y317396D01*
X169948Y316771D01*
X169323Y316459D01*
X167135D01*
Y320209D01*
X169323D01*
X169948Y319896D01*
X170261Y319271D01*
X169948Y318646D01*
X169323Y318334D01*
X167135D01*
X171213Y66365D02*
X171838Y66053D01*
X172150Y65428D01*
X171838Y64803D01*
X171213Y64490D01*
X169025D01*
Y68240D01*
X171213D01*
X171838Y67928D01*
X172150Y67303D01*
X171838Y66678D01*
X171213Y66365D01*
X169025D01*
X171213Y227625D02*
X171838Y227313D01*
X172150Y226688D01*
X171838Y226063D01*
X171213Y225750D01*
X169025D01*
Y229500D01*
X171213D01*
X171838Y229188D01*
X172150Y228563D01*
X171838Y227938D01*
X171213Y227625D01*
X169025D01*
X169458Y109963D02*
Y113713D01*
X172583D01*
X171958Y111838D02*
X169458D01*
Y119963D02*
Y123713D01*
X172583D01*
X171958Y121838D02*
X169458D01*
Y129963D02*
Y133713D01*
X172583D01*
X171958Y131838D02*
X169458D01*
Y139963D02*
Y143713D01*
X172583D01*
X171958Y141838D02*
X169458D01*
Y271222D02*
Y274972D01*
X172583D01*
X171958Y273098D02*
X169458D01*
Y281222D02*
Y284972D01*
X172583D01*
X171958Y283098D02*
X169458D01*
Y291222D02*
Y294972D01*
X172583D01*
X171958Y293098D02*
X169458D01*
Y301222D02*
Y304972D01*
X172583D01*
X171958Y303098D02*
X169458D01*
X181624Y72049D02*
Y75799D01*
Y73924D02*
X184749D01*
Y72049D02*
Y75799D01*
X181624Y233309D02*
Y237059D01*
Y235184D02*
X184749D01*
Y233309D02*
Y237059D01*
X181939Y87167D02*
X183501Y90917D01*
X185064Y87167D01*
X182564Y88730D02*
X184439D01*
X181939Y248427D02*
X183501Y252177D01*
X185064Y248427D01*
X182564Y249990D02*
X184439D01*
X185143Y52517D02*
X184830Y52204D01*
X184205Y51892D01*
X183267D01*
X182643Y52204D01*
X182330Y52517D01*
X182017Y53142D01*
Y54392D01*
X182330Y55017D01*
X182643Y55330D01*
X183267Y55642D01*
X184205D01*
X184830Y55330D01*
X185143Y55017D01*
Y213777D02*
X184830Y213464D01*
X184205Y213152D01*
X183267D01*
X182643Y213464D01*
X182330Y213777D01*
X182017Y214402D01*
Y215652D01*
X182330Y216277D01*
X182643Y216589D01*
X183267Y216902D01*
X184205D01*
X184830Y216589D01*
X185143Y216277D01*
X191860Y72049D02*
Y75799D01*
Y73924D02*
X194985D01*
Y72049D02*
Y75799D01*
X191860Y233309D02*
Y237059D01*
Y235184D02*
X194985D01*
Y233309D02*
Y237059D01*
X195143Y52517D02*
X194830Y52204D01*
X194205Y51892D01*
X193267D01*
X192643Y52204D01*
X192330Y52517D01*
X192017Y53142D01*
Y54392D01*
X192330Y55017D01*
X192643Y55330D01*
X193267Y55642D01*
X194205D01*
X194830Y55330D01*
X195143Y55017D01*
Y213777D02*
X194830Y213464D01*
X194205Y213152D01*
X193267D01*
X192643Y213464D01*
X192330Y213777D01*
X192017Y214402D01*
Y215652D01*
X192330Y216277D01*
X192643Y216589D01*
X193267Y216902D01*
X194205D01*
X194830Y216589D01*
X195143Y216277D01*
X199458Y109963D02*
Y113713D01*
X202583D01*
X201958Y111838D02*
X199458D01*
Y119963D02*
Y123713D01*
X202583D01*
X201958Y121838D02*
X199458D01*
Y129963D02*
Y133713D01*
X202583D01*
X201958Y131838D02*
X199458D01*
Y139963D02*
Y143713D01*
X202583D01*
X201958Y141838D02*
X199458D01*
Y271222D02*
Y274972D01*
X202583D01*
X201958Y273098D02*
X199458D01*
Y281222D02*
Y284972D01*
X202583D01*
X201958Y283098D02*
X199458D01*
Y291222D02*
Y294972D01*
X202583D01*
X201958Y293098D02*
X199458D01*
Y301222D02*
Y304972D01*
X202583D01*
X201958Y303098D02*
X199458D01*
X202096Y72049D02*
Y75799D01*
Y73924D02*
X205221D01*
Y72049D02*
Y75799D01*
X202096Y233309D02*
Y237059D01*
Y235184D02*
X205221D01*
Y233309D02*
Y237059D01*
X209323Y157074D02*
X209948Y156761D01*
X210261Y156137D01*
X209948Y155511D01*
X209323Y155199D01*
X207135D01*
Y158949D01*
X209323D01*
X209948Y158637D01*
X210261Y158011D01*
X209948Y157387D01*
X209323Y157074D01*
X207135D01*
X209323Y318334D02*
X209948Y318021D01*
X210261Y317396D01*
X209948Y316771D01*
X209323Y316459D01*
X207135D01*
Y320209D01*
X209323D01*
X209948Y319896D01*
X210261Y319271D01*
X209948Y318646D01*
X209323Y318334D01*
X207135D01*
X212157Y53767D02*
X212783Y53454D01*
X213095Y52830D01*
X212783Y52204D01*
X212157Y51892D01*
X209970D01*
Y55642D01*
X212157D01*
X212783Y55330D01*
X213095Y54704D01*
X212783Y54080D01*
X212157Y53767D01*
X209970D01*
X212157Y215027D02*
X212783Y214714D01*
X213095Y214089D01*
X212783Y213464D01*
X212157Y213152D01*
X209970D01*
Y216902D01*
X212157D01*
X212783Y216589D01*
X213095Y215964D01*
X212783Y215339D01*
X212157Y215027D01*
X209970D01*
X219734Y76774D02*
Y80524D01*
Y78649D02*
X222859D01*
Y76774D02*
Y80524D01*
X219734Y87010D02*
Y90760D01*
Y88885D02*
X222859D01*
Y87010D02*
Y90760D01*
X219734Y97246D02*
Y100996D01*
Y99121D02*
X222859D01*
Y97246D02*
Y100996D01*
X219734Y238033D02*
Y241783D01*
Y239909D02*
X222859D01*
Y238033D02*
Y241783D01*
X219734Y248270D02*
Y252020D01*
Y250145D02*
X222859D01*
Y248270D02*
Y252020D01*
X219734Y258506D02*
Y262256D01*
Y260381D02*
X222859D01*
Y258506D02*
Y262256D01*
X237039Y89043D02*
X237665Y88730D01*
X237977Y88105D01*
X237665Y87480D01*
X237039Y87167D01*
X234852D01*
Y90917D01*
X237039D01*
X237665Y90605D01*
X237977Y89980D01*
X237665Y89355D01*
X237039Y89043D01*
X234852D01*
X237039Y129043D02*
X237665Y128730D01*
X237977Y128105D01*
X237665Y127480D01*
X237039Y127167D01*
X234852D01*
Y130917D01*
X237039D01*
X237665Y130605D01*
X237977Y129980D01*
X237665Y129355D01*
X237039Y129043D01*
X234852D01*
X237039Y250302D02*
X237665Y249990D01*
X237977Y249365D01*
X237665Y248740D01*
X237039Y248427D01*
X234852D01*
Y252177D01*
X237039D01*
X237665Y251865D01*
X237977Y251240D01*
X237665Y250615D01*
X237039Y250302D01*
X234852D01*
X237039Y290302D02*
X237665Y289990D01*
X237977Y289365D01*
X237665Y288740D01*
X237039Y288427D01*
X234852D01*
Y292177D01*
X237039D01*
X237665Y291865D01*
X237977Y291240D01*
X237665Y290615D01*
X237039Y290302D01*
X234852D01*
X252157Y53767D02*
X252783Y53454D01*
X253095Y52830D01*
X252783Y52204D01*
X252157Y51892D01*
X249970D01*
Y55642D01*
X252157D01*
X252783Y55330D01*
X253095Y54704D01*
X252783Y54080D01*
X252157Y53767D01*
X249970D01*
X252157Y215027D02*
X252783Y214714D01*
X253095Y214089D01*
X252783Y213464D01*
X252157Y213152D01*
X249970D01*
Y216902D01*
X252157D01*
X252783Y216589D01*
X253095Y215964D01*
X252783Y215339D01*
X252157Y215027D01*
X249970D01*
X252490Y77089D02*
Y80839D01*
Y78964D02*
X255615D01*
Y77089D02*
Y80839D01*
X252490Y87325D02*
Y91075D01*
Y89200D02*
X255615D01*
Y87325D02*
Y91075D01*
X252490Y97561D02*
Y101311D01*
Y99436D02*
X255615D01*
Y97561D02*
Y101311D01*
X252490Y238348D02*
Y242098D01*
Y240224D02*
X255615D01*
Y238348D02*
Y242098D01*
X252490Y248585D02*
Y252335D01*
Y250460D02*
X255615D01*
Y248585D02*
Y252335D01*
X252490Y258821D02*
Y262571D01*
Y260696D02*
X255615D01*
Y258821D02*
Y262571D01*
X264756Y146995D02*
X265381Y146683D01*
X265694Y146058D01*
X265381Y145433D01*
X264756Y145120D01*
X262569D01*
Y148870D01*
X264756D01*
X265381Y148558D01*
X265694Y147933D01*
X265381Y147308D01*
X264756Y146995D01*
X262569D01*
X264756Y161995D02*
X265381Y161683D01*
X265694Y161058D01*
X265381Y160433D01*
X264756Y160120D01*
X262569D01*
Y163870D01*
X264756D01*
X265381Y163558D01*
X265694Y162933D01*
X265381Y162308D01*
X264756Y161995D01*
X262569D01*
X264756Y308255D02*
X265381Y307943D01*
X265694Y307318D01*
X265381Y306693D01*
X264756Y306380D01*
X262569D01*
Y310130D01*
X264756D01*
X265381Y309818D01*
X265694Y309193D01*
X265381Y308568D01*
X264756Y308255D01*
X262569D01*
X264756Y323255D02*
X265381Y322943D01*
X265694Y322318D01*
X265381Y321693D01*
X264756Y321380D01*
X262569D01*
Y325130D01*
X264756D01*
X265381Y324818D01*
X265694Y324193D01*
X265381Y323568D01*
X264756Y323255D01*
X262569D01*
X269795Y76053D02*
X270733D01*
Y75740D01*
X270420Y75115D01*
X270108Y74803D01*
X269483Y74490D01*
X268858D01*
X268233Y74803D01*
X267920Y75115D01*
X267608Y75740D01*
Y76990D01*
X267920Y77615D01*
X268233Y77928D01*
X268858Y78240D01*
X269483D01*
X270108Y77928D01*
X270420Y77615D01*
X270733Y76990D01*
X269795Y131565D02*
X270733D01*
Y131252D01*
X270420Y130627D01*
X270108Y130315D01*
X269483Y130002D01*
X268858D01*
X268233Y130315D01*
X267920Y130627D01*
X267608Y131252D01*
Y132502D01*
X267920Y133127D01*
X268233Y133440D01*
X268858Y133752D01*
X269483D01*
X270108Y133440D01*
X270420Y133127D01*
X270733Y132502D01*
X269795Y237313D02*
X270733D01*
Y237000D01*
X270420Y236375D01*
X270108Y236063D01*
X269483Y235750D01*
X268858D01*
X268233Y236063D01*
X267920Y236375D01*
X267608Y237000D01*
Y238250D01*
X267920Y238875D01*
X268233Y239188D01*
X268858Y239500D01*
X269483D01*
X270108Y239188D01*
X270420Y238875D01*
X270733Y238250D01*
X269795Y292824D02*
X270733D01*
Y292512D01*
X270420Y291887D01*
X270108Y291574D01*
X269483Y291262D01*
X268858D01*
X268233Y291574D01*
X267920Y291887D01*
X267608Y292512D01*
Y293762D01*
X267920Y294387D01*
X268233Y294700D01*
X268858Y295012D01*
X269483D01*
X270108Y294700D01*
X270420Y294387D01*
X270733Y293762D01*
X291183Y100711D02*
X292433D01*
X291808D02*
Y104461D01*
X291183D02*
X292433D01*
X291183Y261970D02*
X292433D01*
X291808D02*
Y265720D01*
X291183D02*
X292433D01*
X296742Y160238D02*
Y163988D01*
X298617D01*
X299242Y163676D01*
X299554Y163363D01*
X299867Y162738D01*
Y161488D01*
X299554Y160863D01*
X299242Y160551D01*
X298617Y160238D01*
X296742D01*
Y321498D02*
Y325248D01*
X298617D01*
X299242Y324936D01*
X299554Y324623D01*
X299867Y323998D01*
Y322748D01*
X299554Y322123D01*
X299242Y321811D01*
X298617Y321498D01*
X296742D01*
X299057Y77089D02*
X300307D01*
X299682D02*
Y80839D01*
X299057D02*
X300307D01*
X299057Y124333D02*
X300307D01*
X299682D02*
Y128083D01*
X299057D02*
X300307D01*
X299057Y238348D02*
X300307D01*
X299682D02*
Y242098D01*
X299057D02*
X300307D01*
X299057Y285593D02*
X300307D01*
X299682D02*
Y289343D01*
X299057D02*
X300307D01*
X307372Y160238D02*
Y163988D01*
X309247D01*
X309872Y163676D01*
X310184Y163363D01*
X310497Y162738D01*
Y161488D01*
X310184Y160863D01*
X309872Y160551D01*
X309247Y160238D01*
X307372D01*
Y321498D02*
Y325248D01*
X309247D01*
X309872Y324936D01*
X310184Y324623D01*
X310497Y323998D01*
Y322748D01*
X310184Y322123D01*
X309872Y321811D01*
X309247Y321498D01*
X307372D01*
X318002Y160238D02*
Y163988D01*
X319877D01*
X320502Y163676D01*
X320814Y163363D01*
X321127Y162738D01*
Y161488D01*
X320814Y160863D01*
X320502Y160551D01*
X319877Y160238D01*
X318002D01*
Y321498D02*
Y325248D01*
X319877D01*
X320502Y324936D01*
X320814Y324623D01*
X321127Y323998D01*
Y322748D01*
X320814Y322123D01*
X320502Y321811D01*
X319877Y321498D01*
X318002D01*
X347906Y154554D02*
X348531Y154242D01*
X348843Y153617D01*
X348531Y152992D01*
X347906Y152679D01*
X345718D01*
Y156429D01*
X347906D01*
X348531Y156117D01*
X348843Y155492D01*
X348531Y154867D01*
X347906Y154554D01*
X345718D01*
X347906Y315814D02*
X348531Y315502D01*
X348843Y314877D01*
X348531Y314252D01*
X347906Y313939D01*
X345718D01*
Y317689D01*
X347906D01*
X348531Y317377D01*
X348843Y316752D01*
X348531Y316127D01*
X347906Y315814D01*
X345718D01*
X347089Y77089D02*
X348339D01*
X347714D02*
Y80839D01*
X347089D02*
X348339D01*
X347089Y124333D02*
X348339D01*
X347714D02*
Y128083D01*
X347089D02*
X348339D01*
X347089Y238348D02*
X348339D01*
X347714D02*
Y242098D01*
X347089D02*
X348339D01*
X347089Y285593D02*
X348339D01*
X347714D02*
Y289343D01*
X347089D02*
X348339D01*
X362906Y154554D02*
X363531Y154242D01*
X363843Y153617D01*
X363531Y152992D01*
X362906Y152679D01*
X360718D01*
Y156429D01*
X362906D01*
X363531Y156117D01*
X363843Y155492D01*
X363531Y154867D01*
X362906Y154554D01*
X360718D01*
X362906Y315814D02*
X363531Y315502D01*
X363843Y314877D01*
X363531Y314252D01*
X362906Y313939D01*
X360718D01*
Y317689D01*
X362906D01*
X363531Y317377D01*
X363843Y316752D01*
X363531Y316127D01*
X362906Y315814D01*
X360718D01*
X401151Y95430D02*
X401464Y95118D01*
X402089Y94805D01*
X402714Y95118D01*
X403026Y95430D01*
Y98555D01*
X403651D01*
X403026D02*
X401776D01*
X401151Y115430D02*
X401464Y115118D01*
X402089Y114805D01*
X402714Y115118D01*
X403026Y115430D01*
Y118555D01*
X403651D01*
X403026D02*
X401776D01*
X403339Y154554D02*
X403964Y154242D01*
X404276Y153617D01*
X403964Y152992D01*
X403339Y152679D01*
X401151D01*
Y156429D01*
X403339D01*
X403964Y156117D01*
X404276Y155492D01*
X403964Y154867D01*
X403339Y154554D01*
X401151D01*
Y256690D02*
X401464Y256378D01*
X402089Y256065D01*
X402714Y256378D01*
X403026Y256690D01*
Y259815D01*
X403651D01*
X403026D02*
X401776D01*
X401151Y276690D02*
X401464Y276378D01*
X402089Y276065D01*
X402714Y276378D01*
X403026Y276690D01*
Y279815D01*
X403651D01*
X403026D02*
X401776D01*
X403339Y315814D02*
X403964Y315502D01*
X404276Y314877D01*
X403964Y314252D01*
X403339Y313939D01*
X401151D01*
Y317689D01*
X403339D01*
X403964Y317377D01*
X404276Y316752D01*
X403964Y316127D01*
X403339Y315814D01*
X401151D01*
X418339Y154554D02*
X418964Y154242D01*
X419276Y153617D01*
X418964Y152992D01*
X418339Y152679D01*
X416151D01*
Y156429D01*
X418339D01*
X418964Y156117D01*
X419276Y155492D01*
X418964Y154867D01*
X418339Y154554D01*
X416151D01*
X418339Y315814D02*
X418964Y315502D01*
X419276Y314877D01*
X418964Y314252D01*
X418339Y313939D01*
X416151D01*
Y317689D01*
X418339D01*
X418964Y317377D01*
X419276Y316752D01*
X418964Y316127D01*
X418339Y315814D01*
X416151D01*
D02*
D81*
X106427Y136663D03*
Y146663D03*
Y297923D03*
Y307923D03*
X119025Y58553D03*
Y219813D03*
X126584Y73986D03*
Y113986D03*
Y235246D03*
Y275246D03*
X146742Y73986D03*
Y113986D03*
Y235246D03*
Y275246D03*
X157135Y149261D03*
Y310521D03*
X159025Y58553D03*
Y219813D03*
X159458Y104025D03*
Y114025D03*
Y124025D03*
Y134025D03*
Y265285D03*
Y275285D03*
Y285285D03*
Y295285D03*
X171624Y66112D03*
Y227372D03*
X171939Y81230D03*
Y242490D03*
X172017Y45954D03*
Y207214D03*
X181860Y66112D03*
Y227372D03*
X182017Y45954D03*
Y207214D03*
X189458Y104025D03*
Y114025D03*
Y124025D03*
Y134025D03*
Y265285D03*
Y275285D03*
Y285285D03*
Y295285D03*
X192096Y66112D03*
Y227372D03*
X197135Y149261D03*
Y310521D03*
X199970Y45954D03*
Y207214D03*
X209734Y70836D03*
Y81072D03*
Y91309D03*
Y232096D03*
Y242332D03*
Y252569D03*
X224852Y81230D03*
Y121230D03*
Y242490D03*
Y282490D03*
X239970Y45954D03*
Y207214D03*
X242490Y71151D03*
Y81387D03*
Y91624D03*
Y232411D03*
Y242647D03*
Y252883D03*
X252569Y139183D03*
Y154183D03*
Y300443D03*
Y315443D03*
X257608Y68553D03*
Y124065D03*
Y229813D03*
Y285324D03*
X280246Y94773D03*
Y256033D03*
X286742Y154301D03*
Y315561D03*
X288120Y71151D03*
Y118395D03*
Y232411D03*
Y279655D03*
X297372Y154301D03*
Y315561D03*
X308002Y154301D03*
Y315561D03*
X335718Y146742D03*
Y308002D03*
X336151Y71151D03*
Y118395D03*
Y232411D03*
Y279655D03*
X350718Y146742D03*
Y308002D03*
X391151Y88868D03*
Y108868D03*
Y146742D03*
Y250128D03*
Y270128D03*
Y308002D03*
X406151Y146742D03*
Y308002D03*
X0Y0D02*
M02*
