G04 DesignSpark PCB Gerber Version 10.0 Build 5299*
G04 #@! TF.Part,Single*
G04 #@! TF.FileFunction,Paste,Top*
G04 #@! TF.FilePolarity,Positive*
%FSLAX35Y35*%
%MOIN*%
G04 #@! TA.AperFunction,SMDPad,CuDef*
%ADD125R,0.06096X0.06096*%
%ADD126R,0.03301X0.03301*%
G04 #@! TD.AperFunction*
%ADD10C,0.01200*%
G04 #@! TA.AperFunction,SMDPad,CuDef*
%ADD127R,0.06096X0.06096*%
G04 #@! TD.AperFunction*
X0Y0D02*
D02*
D10*
X25797Y25797D02*
Y166899D01*
X50994D01*
Y187057D01*
X25797D01*
Y328159D01*
X416348D01*
Y187057D01*
X381072D01*
Y166899D01*
X416348D01*
Y25797D01*
X25797D01*
X78710Y166899D02*
X144222D01*
Y187057D01*
X78710D01*
Y166899D01*
X176978Y187057D02*
X260128D01*
Y166899D01*
X176978D01*
Y187057D01*
X353356D02*
X285324D01*
Y166899D01*
X353356D01*
Y187057D01*
D02*
D125*
X126584Y137202D03*
D03*
Y146202D03*
D03*
Y298462D03*
D03*
Y307462D03*
D03*
X141702Y137202D03*
D03*
Y146202D03*
D03*
Y298462D03*
D03*
Y307462D03*
D03*
X159340Y79250D03*
D03*
Y88250D03*
D03*
Y240509D03*
D03*
Y249509D03*
D03*
X209734Y104446D03*
D03*
Y113446D03*
D03*
Y265706D03*
D03*
Y274706D03*
D03*
X227372Y134683D03*
D03*
Y143683D03*
D03*
Y295943D03*
D03*
Y304943D03*
D03*
D02*
D126*
X221604Y154301D03*
D03*
Y315561D03*
D03*
X228100Y154301D03*
D03*
Y315561D03*
D03*
D02*
D127*
X182557Y81230D03*
D03*
Y242490D03*
D03*
X191557Y81230D03*
D03*
Y242490D03*
D03*
X0Y0D02*
M02*
