G04 DesignSpark PCB Gerber Version 10.0 Build 5299*
G04 #@! TF.Part,Single*
G04 #@! TF.FileFunction,Copper,L2,Bot*
G04 #@! TF.FilePolarity,Positive*
%FSLAX35Y35*%
%MOIN*%
G04 #@! TA.AperFunction,ComponentPad*
%ADD21R,0.04567X0.04567*%
%ADD123R,0.07480X0.07480*%
%ADD23R,0.07756X0.07756*%
%ADD19R,0.07795X0.07795*%
G04 #@! TD.AperFunction*
%ADD10C,0.01200*%
%ADD114C,0.03465*%
%ADD11C,0.03937*%
G04 #@! TA.AperFunction,ComponentPad*
%ADD119C,0.06969*%
%ADD116C,0.07165*%
G04 #@! TA.AperFunction,ViaPad*
%ADD115C,0.07480*%
G04 #@! TA.AperFunction,ComponentPad*
%ADD106C,0.07677*%
%ADD120C,0.08110*%
%ADD118C,0.08661*%
G04 #@! TD.AperFunction*
%ADD29C,0.10748*%
G04 #@! TA.AperFunction,ComponentPad*
%ADD26C,0.16693*%
%ADD124R,0.15827X0.15827*%
G04 #@! TD.AperFunction*
X0Y0D02*
D02*
D10*
X28965Y163731D02*
Y28965D01*
X413180D01*
Y163731D01*
X381072D01*
G75*
G02*
X377904Y166899I0J3169D01*
G01*
Y187057D01*
G75*
G02*
X381072Y190225I3169J0D01*
G01*
X413180D01*
Y324991D01*
X28965D01*
Y190225D01*
X50994D01*
G75*
G02*
X54162Y187057I0J-3169D01*
G01*
Y166899D01*
G75*
G02*
X50994Y163731I-3169J0D01*
G01*
X28965D01*
X144222Y190225D02*
G75*
G02*
X147391Y187057I0J-3169D01*
G01*
Y166899D01*
G75*
G02*
X144222Y163731I-3169J0D01*
G01*
X78710D01*
G75*
G02*
X75542Y166899I0J3169D01*
G01*
Y187057D01*
G75*
G02*
X78710Y190225I3169J0D01*
G01*
X144222D01*
X112734Y144939D02*
X114702D01*
Y128387D01*
X98151D01*
Y144939D01*
X100120D01*
Y152970D01*
X112734D01*
Y144939D01*
X120433Y73986D02*
G75*
G02*
X132735I6151J0D01*
G01*
G75*
G02*
X130885Y69588I-6151J0D01*
G01*
Y66112D01*
G75*
G02*
X129622Y63067I-4301J0D01*
G01*
X125176Y58621D01*
G75*
G02*
X125176Y58553I-6152J-70D01*
G01*
G75*
G02*
X119025Y52402I-6151J0D01*
G01*
G75*
G02*
X112874Y58553I0J6151D01*
G01*
G75*
G02*
X119025Y64704I6151J0D01*
G01*
G75*
G02*
X119094Y64704I-1J-6152D01*
G01*
X122283Y67893D01*
Y69588D01*
G75*
G02*
X120433Y73986I4301J4398D01*
G01*
X151043Y78383D02*
G75*
G02*
X152893Y73986I-4301J-4398D01*
G01*
G75*
G02*
X140591I-6151J0D01*
G01*
G75*
G02*
X142441Y78383I6151J0D01*
G01*
Y92047D01*
X126653Y107835D01*
G75*
G02*
X120433Y113986I-69J6151D01*
G01*
G75*
G02*
X132735I6151J0D01*
G01*
G75*
G02*
X132735Y113917I-6152J1D01*
G01*
X149780Y96873D01*
G75*
G02*
X151043Y93828I-3038J-3044D01*
G01*
Y78383D01*
X195572Y50255D02*
G75*
G02*
X206121Y45954I4398J-4301D01*
G01*
G75*
G02*
X195572Y41654I-6151J0D01*
G01*
X188324D01*
Y39647D01*
X180293D01*
Y37679D01*
X163742D01*
Y51943D01*
G75*
G02*
X150906Y58553I-4717J6609D01*
G01*
G75*
G02*
X167145I8120J0D01*
G01*
G75*
G02*
X165898Y54230I-8120J0D01*
G01*
X177559D01*
Y61363D01*
G75*
G02*
X176742Y62257I4302J4749D01*
G01*
G75*
G02*
X165217Y66112I-5118J3854D01*
G01*
G75*
G02*
X176742Y69966I6407J0D01*
G01*
G75*
G02*
X186978I5118J-3854D01*
G01*
G75*
G02*
X198503Y66112I5118J-3854D01*
G01*
G75*
G02*
X186978Y62257I-6407J0D01*
G01*
G75*
G02*
X186161Y61363I-5119J3854D01*
G01*
Y52261D01*
X188324D01*
Y50255D01*
X195572D01*
X164313Y110411D02*
G75*
G02*
X159458Y96004I-4855J-6385D01*
G01*
G75*
G02*
X153814Y109724I0J8021D01*
G01*
X151178D01*
G75*
G02*
X140591Y113986I-4436J4261D01*
G01*
G75*
G02*
X151101Y118326I6151J0D01*
G01*
X155157D01*
Y119766D01*
G75*
G02*
X156047Y129025I4301J4259D01*
G01*
G75*
G02*
X159458Y140078I3411J5000D01*
G01*
G75*
G02*
X162869Y129025I0J-6053D01*
G01*
G75*
G02*
X163759Y119766I-3411J-5000D01*
G01*
Y118284D01*
G75*
G02*
X164313Y110411I-4300J-4259D01*
G01*
X163661Y81230D02*
G75*
G02*
X180216I8277J0D01*
G01*
G75*
G02*
X163661I-8277J0D01*
G01*
X112734Y306198D02*
X114702D01*
Y289647D01*
X98151D01*
Y306198D01*
X100120D01*
Y314230D01*
X112734D01*
Y306198D01*
X120433Y235246D02*
G75*
G02*
X132735I6151J0D01*
G01*
G75*
G02*
X130885Y230848I-6151J0D01*
G01*
Y227372D01*
G75*
G02*
X129622Y224327I-4301J0D01*
G01*
X125176Y219881D01*
G75*
G02*
X125176Y219813I-6152J-70D01*
G01*
G75*
G02*
X119025Y213661I-6151J0D01*
G01*
G75*
G02*
X112874Y219813I0J6151D01*
G01*
G75*
G02*
X119025Y225964I6151J0D01*
G01*
G75*
G02*
X119094Y225963I-1J-6152D01*
G01*
X122283Y229153D01*
Y230848D01*
G75*
G02*
X120433Y235246I4301J4398D01*
G01*
X151043Y239643D02*
G75*
G02*
X152893Y235246I-4301J-4398D01*
G01*
G75*
G02*
X140591I-6151J0D01*
G01*
G75*
G02*
X142441Y239643I6151J0D01*
G01*
Y253307D01*
X126653Y269095D01*
G75*
G02*
X120433Y275246I-69J6151D01*
G01*
G75*
G02*
X132735I6151J0D01*
G01*
G75*
G02*
X132735Y275177I-6152J1D01*
G01*
X149780Y258133D01*
G75*
G02*
X151043Y255088I-3038J-3044D01*
G01*
Y239643D01*
X195572Y211515D02*
G75*
G02*
X206121Y207214I4398J-4301D01*
G01*
G75*
G02*
X195572Y202913I-6151J0D01*
G01*
X188324D01*
Y200907D01*
X180293D01*
Y198939D01*
X163742D01*
Y213203D01*
G75*
G02*
X150906Y219813I-4717J6609D01*
G01*
G75*
G02*
X167145I8120J0D01*
G01*
G75*
G02*
X165898Y215490I-8120J0D01*
G01*
X177559D01*
Y222622D01*
G75*
G02*
X176742Y223517I4302J4749D01*
G01*
G75*
G02*
X165217Y227372I-5118J3854D01*
G01*
G75*
G02*
X176742Y231226I6407J0D01*
G01*
G75*
G02*
X186978I5118J-3854D01*
G01*
G75*
G02*
X198503Y227372I5118J-3854D01*
G01*
G75*
G02*
X186978Y223517I-6407J0D01*
G01*
G75*
G02*
X186161Y222622I-5119J3854D01*
G01*
Y213521D01*
X188324D01*
Y211515D01*
X195572D01*
X260128Y190225D02*
G75*
G02*
X263296Y187057I0J-3169D01*
G01*
Y166899D01*
G75*
G02*
X260128Y163731I-3169J0D01*
G01*
X176978D01*
G75*
G02*
X173809Y166899I0J3169D01*
G01*
Y187057D01*
G75*
G02*
X176978Y190225I3169J0D01*
G01*
X260128D01*
X220454Y125531D02*
G75*
G02*
X231003Y121230I4398J-4301D01*
G01*
G75*
G02*
X220454Y116929I-6151J0D01*
G01*
X194769D01*
G75*
G02*
X192639Y108876I-5311J-2904D01*
G01*
X194309D01*
Y99175D01*
X184608D01*
Y108876D01*
X186278D01*
G75*
G02*
X186047Y119025I3181J5150D01*
G01*
G75*
G02*
X184604Y127640I3411J5000D01*
G01*
G75*
G02*
X189458Y142046I4855J6385D01*
G01*
G75*
G02*
X194313Y127640I0J-8021D01*
G01*
G75*
G02*
X195321Y125531I-4856J-3615D01*
G01*
X220454D01*
X203327Y91309D02*
G75*
G02*
X216141I6407J0D01*
G01*
G75*
G02*
X213588Y86191I-6407J0D01*
G01*
G75*
G02*
Y75954I-3854J-5118D01*
G01*
G75*
G02*
X216141Y70836I-3854J-5118D01*
G01*
G75*
G02*
X203327I-6407J0D01*
G01*
G75*
G02*
X205880Y75954I6407J0D01*
G01*
G75*
G02*
Y86191I3854J5118D01*
G01*
G75*
G02*
X203327Y91309I3854J5118D01*
G01*
X278088Y75452D02*
G75*
G02*
X299035Y71151I10032J-4301D01*
G01*
G75*
G02*
X278088Y66850I-10915J0D01*
G01*
X264009D01*
G75*
G02*
X252570Y64252I-6401J1702D01*
G01*
X245088D01*
G75*
G02*
X243045Y64768I0J4301D01*
G01*
G75*
G02*
X238635Y76269I-556J6383D01*
G01*
G75*
G02*
X237741Y77087I3854J5119D01*
G01*
X229398D01*
G75*
G02*
X218701Y81230I-4546J4143D01*
G01*
G75*
G02*
X229090Y85688I6151J0D01*
G01*
X237741D01*
G75*
G02*
X238635Y86506I4749J-4302D01*
G01*
G75*
G02*
X236083Y91624I3854J5118D01*
G01*
G75*
G02*
X248897I6407J0D01*
G01*
G75*
G02*
X246344Y86506I-6407J0D01*
G01*
G75*
G02*
Y76269I-3854J-5118D01*
G01*
G75*
G02*
X248667Y72854I-3854J-5118D01*
G01*
X252570D01*
G75*
G02*
X258530Y75112I5037J-4301D01*
G01*
G75*
G02*
X260206Y75452I1676J-3961D01*
G01*
X278088D01*
X239970Y52106D02*
G75*
G02*
X246121Y45954I0J-6151D01*
G01*
G75*
G02*
X239970Y39803I-6151J0D01*
G01*
G75*
G02*
X233819Y45954I0J6151D01*
G01*
G75*
G02*
X239970Y52106I6151J0D01*
G01*
X197135Y155413D02*
G75*
G02*
X203287Y149261I0J-6151D01*
G01*
G75*
G02*
X197135Y143110I-6151J0D01*
G01*
G75*
G02*
X190984Y149261I0J6151D01*
G01*
G75*
G02*
X197135Y155413I6151J0D01*
G01*
X299569Y162734D02*
X316435D01*
Y145868D01*
X299569D01*
Y147761D01*
G75*
G02*
X292420Y149496I-2197J6540D01*
G01*
Y128427D01*
G75*
G02*
X288120Y107480I-4301J-10032D01*
G01*
G75*
G02*
X277205Y118395I0J10915D01*
G01*
G75*
G02*
X277291Y119764I10916J-1D01*
G01*
X264053D01*
Y117620D01*
X251163D01*
Y130509D01*
X253307D01*
Y132362D01*
X252637Y133032D01*
G75*
G02*
X246417Y139183I-69J6151D01*
G01*
G75*
G02*
X258720I6151J0D01*
G01*
G75*
G02*
X258719Y139114I-6152J1D01*
G01*
X260649Y137184D01*
G75*
G02*
X261909Y134143I-3041J-3041D01*
G01*
G75*
G02*
Y134142I-1574J0D01*
G01*
G75*
G02*
Y134138I-1722J-2D01*
G01*
Y130509D01*
X264053D01*
Y128365D01*
X282450D01*
G75*
G02*
X283431Y128252I0J-4302D01*
G01*
G75*
G02*
X283819Y128427I4691J-9856D01*
G01*
Y148051D01*
G75*
G02*
X286742Y161200I2923J6250D01*
G01*
G75*
G02*
X292057Y158700I0J-6900D01*
G01*
G75*
G02*
X299569Y160841I5315J-4399D01*
G01*
Y162734D01*
X391903Y119348D02*
X401631D01*
Y78387D01*
X380671D01*
Y80846D01*
X368474D01*
G75*
G02*
X362855Y83176I0J7943D01*
G01*
X359200Y86831D01*
X287732D01*
G75*
G02*
X269331Y94773I-7487J7943D01*
G01*
G75*
G02*
X287732Y102716I10915J0D01*
G01*
X362490D01*
G75*
G02*
X368109Y100386I0J-7943D01*
G01*
X371764Y96731D01*
X380671D01*
Y108116D01*
X378334Y110453D01*
X343638D01*
G75*
G02*
X325236Y118395I-7487J7943D01*
G01*
G75*
G02*
X343638Y126338I10915J0D01*
G01*
X381624D01*
G75*
G02*
X387243Y124008I0J-7943D01*
G01*
X391903Y119348D01*
X325236Y71151D02*
G75*
G02*
X347066I10915J0D01*
G01*
G75*
G02*
X325236I-10915J0D01*
G01*
X246417Y154183D02*
G75*
G02*
X258720I6151J0D01*
G01*
G75*
G02*
X246417I-6151J0D01*
G01*
X157135Y155413D02*
G75*
G02*
X163287Y149261I0J-6151D01*
G01*
G75*
G02*
X157135Y143110I-6151J0D01*
G01*
G75*
G02*
X150984Y149261I0J6151D01*
G01*
G75*
G02*
X157135Y155413I6151J0D01*
G01*
X164313Y271670D02*
G75*
G02*
X159458Y257264I-4855J-6385D01*
G01*
G75*
G02*
X153814Y270984I0J8021D01*
G01*
X151178D01*
G75*
G02*
X140591Y275246I-4436J4261D01*
G01*
G75*
G02*
X151101Y279586I6151J0D01*
G01*
X155157D01*
Y281026D01*
G75*
G02*
X156047Y290285I4301J4259D01*
G01*
G75*
G02*
X159458Y301338I3411J5000D01*
G01*
G75*
G02*
X162869Y290285I0J-6053D01*
G01*
G75*
G02*
X163759Y281026I-3411J-5000D01*
G01*
Y279544D01*
G75*
G02*
X164313Y271670I-4300J-4259D01*
G01*
X163661Y242490D02*
G75*
G02*
X180216I8277J0D01*
G01*
G75*
G02*
X163661I-8277J0D01*
G01*
X157135Y316672D02*
G75*
G02*
X163287Y310521I0J-6151D01*
G01*
G75*
G02*
X157135Y304370I-6151J0D01*
G01*
G75*
G02*
X150984Y310521I0J6151D01*
G01*
G75*
G02*
X157135Y316672I6151J0D01*
G01*
X220454Y286791D02*
G75*
G02*
X231003Y282490I4398J-4301D01*
G01*
G75*
G02*
X220454Y278189I-6151J0D01*
G01*
X194769D01*
G75*
G02*
X192639Y270135I-5311J-2904D01*
G01*
X194309D01*
Y260435D01*
X184608D01*
Y270135D01*
X186278D01*
G75*
G02*
X186047Y280285I3181J5150D01*
G01*
G75*
G02*
X184604Y288900I3411J5000D01*
G01*
G75*
G02*
X189458Y303306I4855J6385D01*
G01*
G75*
G02*
X194313Y288900I0J-8021D01*
G01*
G75*
G02*
X195321Y286791I-4856J-3615D01*
G01*
X220454D01*
X203327Y252569D02*
G75*
G02*
X216141I6407J0D01*
G01*
G75*
G02*
X213588Y247450I-6407J0D01*
G01*
G75*
G02*
Y237214I-3854J-5118D01*
G01*
G75*
G02*
X216141Y232096I-3854J-5118D01*
G01*
G75*
G02*
X203327I-6407J0D01*
G01*
G75*
G02*
X205880Y237214I6407J0D01*
G01*
G75*
G02*
Y247450I3854J5118D01*
G01*
G75*
G02*
X203327Y252569I3854J5118D01*
G01*
X278088Y236712D02*
G75*
G02*
X299035Y232411I10032J-4301D01*
G01*
G75*
G02*
X278088Y228110I-10915J0D01*
G01*
X264009D01*
G75*
G02*
X252570Y225512I-6401J1702D01*
G01*
X245088D01*
G75*
G02*
X243045Y226028I0J4301D01*
G01*
G75*
G02*
X238635Y237529I-556J6383D01*
G01*
G75*
G02*
X237741Y238346I3854J5119D01*
G01*
X229398D01*
G75*
G02*
X218701Y242490I-4546J4143D01*
G01*
G75*
G02*
X229090Y246948I6151J0D01*
G01*
X237741D01*
G75*
G02*
X238635Y247765I4749J-4302D01*
G01*
G75*
G02*
X236083Y252883I3854J5118D01*
G01*
G75*
G02*
X248897I6407J0D01*
G01*
G75*
G02*
X246344Y247765I-6407J0D01*
G01*
G75*
G02*
Y237529I-3854J-5118D01*
G01*
G75*
G02*
X248667Y234113I-3854J-5118D01*
G01*
X252570D01*
G75*
G02*
X258530Y236372I5037J-4301D01*
G01*
G75*
G02*
X260206Y236712I1676J-3961D01*
G01*
X278088D01*
X353356Y190225D02*
G75*
G02*
X356524Y187057I0J-3169D01*
G01*
Y166899D01*
G75*
G02*
X353356Y163731I-3169J0D01*
G01*
X285324D01*
G75*
G02*
X282156Y166899I0J3169D01*
G01*
Y187057D01*
G75*
G02*
X285324Y190225I3169J0D01*
G01*
X353356D01*
X327598Y146742D02*
G75*
G02*
X343838I8120J0D01*
G01*
G75*
G02*
X327598I-8120J0D01*
G01*
X350718Y152893D02*
G75*
G02*
X356869Y146742I0J-6151D01*
G01*
G75*
G02*
X350718Y140591I-6151J0D01*
G01*
G75*
G02*
X344567Y146742I0J6151D01*
G01*
G75*
G02*
X350718Y152893I6151J0D01*
G01*
X239970Y213365D02*
G75*
G02*
X246121Y207214I0J-6151D01*
G01*
G75*
G02*
X239970Y201063I-6151J0D01*
G01*
G75*
G02*
X233819Y207214I0J6151D01*
G01*
G75*
G02*
X239970Y213365I6151J0D01*
G01*
X197135Y316672D02*
G75*
G02*
X203287Y310521I0J-6151D01*
G01*
G75*
G02*
X197135Y304370I-6151J0D01*
G01*
G75*
G02*
X190984Y310521I0J6151D01*
G01*
G75*
G02*
X197135Y316672I6151J0D01*
G01*
X299569Y323994D02*
X316435D01*
Y307128D01*
X299569D01*
Y309020D01*
G75*
G02*
X292420Y310756I-2197J6540D01*
G01*
Y289687D01*
G75*
G02*
X288120Y268740I-4301J-10032D01*
G01*
G75*
G02*
X277205Y279655I0J10915D01*
G01*
G75*
G02*
X277291Y281024I10916J-1D01*
G01*
X264053D01*
Y278880D01*
X251163D01*
Y291769D01*
X253307D01*
Y293622D01*
X252637Y294292D01*
G75*
G02*
X246417Y300443I-69J6151D01*
G01*
G75*
G02*
X258720I6151J0D01*
G01*
G75*
G02*
X258719Y300374I-6152J1D01*
G01*
X260649Y298444D01*
G75*
G02*
X261909Y295403I-3041J-3041D01*
G01*
G75*
G02*
Y295402I-1574J0D01*
G01*
G75*
G02*
Y295398I-1722J-2D01*
G01*
Y291769D01*
X264053D01*
Y289625D01*
X282450D01*
G75*
G02*
X283431Y289512I0J-4302D01*
G01*
G75*
G02*
X283819Y289687I4691J-9856D01*
G01*
Y309311D01*
G75*
G02*
X286742Y322460I2923J6250D01*
G01*
G75*
G02*
X292057Y319959I0J-6900D01*
G01*
G75*
G02*
X299569Y322101I5315J-4399D01*
G01*
Y323994D01*
X391903Y280608D02*
X401631D01*
Y239647D01*
X380671D01*
Y242106D01*
X368474D01*
G75*
G02*
X362855Y244436I0J7943D01*
G01*
X359200Y248091D01*
X287732D01*
G75*
G02*
X269331Y256033I-7487J7943D01*
G01*
G75*
G02*
X287732Y263976I10915J0D01*
G01*
X362490D01*
G75*
G02*
X368109Y261646I0J-7943D01*
G01*
X371764Y257991D01*
X380671D01*
Y269376D01*
X378334Y271713D01*
X343638D01*
G75*
G02*
X325236Y279655I-7487J7943D01*
G01*
G75*
G02*
X343638Y287598I10915J0D01*
G01*
X381624D01*
G75*
G02*
X387243Y285268I0J-7943D01*
G01*
X391903Y280608D01*
X325236Y232411D02*
G75*
G02*
X347066I10915J0D01*
G01*
G75*
G02*
X325236I-10915J0D01*
G01*
X246417Y315443D02*
G75*
G02*
X258720I6151J0D01*
G01*
G75*
G02*
X246417I-6151J0D01*
G01*
X327598Y308002D02*
G75*
G02*
X343838I8120J0D01*
G01*
G75*
G02*
X327598I-8120J0D01*
G01*
X350718Y314153D02*
G75*
G02*
X356869Y308002I0J-6151D01*
G01*
G75*
G02*
X350718Y301850I-6151J0D01*
G01*
G75*
G02*
X344567Y308002I0J6151D01*
G01*
G75*
G02*
X350718Y314153I6151J0D01*
G01*
X383031Y308002D02*
G75*
G02*
X399271I8120J0D01*
G01*
G75*
G02*
X383031I-8120J0D01*
G01*
X406151Y314153D02*
G75*
G02*
X412302Y308002I0J-6151D01*
G01*
G75*
G02*
X406151Y301850I-6151J0D01*
G01*
G75*
G02*
X400000Y308002I0J6151D01*
G01*
G75*
G02*
X406151Y314153I6151J0D01*
G01*
X383031Y146742D02*
G75*
G02*
X399271I8120J0D01*
G01*
G75*
G02*
X383031I-8120J0D01*
G01*
X406151Y152893D02*
G75*
G02*
X412302Y146742I0J-6151D01*
G01*
G75*
G02*
X406151Y140591I-6151J0D01*
G01*
G75*
G02*
X400000Y146742I0J6151D01*
G01*
G75*
G02*
X406151Y152893I6151J0D01*
G01*
X29565Y45954D02*
G36*
X29565Y45954D02*
Y29565D01*
X412580D01*
Y45954D01*
X246121D01*
Y45954D01*
G75*
G02*
X239970Y39803I-6151J0D01*
G01*
G75*
G02*
X233819Y45954I0J6151D01*
G01*
Y45954D01*
X206121D01*
G75*
G02*
X195572Y41654I-6151J0D01*
G01*
X188324D01*
Y39647D01*
X180293D01*
Y37679D01*
X163742D01*
Y45954D01*
X29565D01*
G37*
Y66269D02*
G36*
X29565Y66269D02*
Y45954D01*
X163742D01*
Y51943D01*
G75*
G02*
X150906Y58553I-4717J6609D01*
G01*
G75*
G02*
X156498Y66269I8120J0D01*
G01*
X130885D01*
Y66112D01*
G75*
G02*
X129622Y63067I-4302J0D01*
G01*
X125176Y58621D01*
G75*
G02*
X125176Y58570I-2971J-48D01*
G01*
G75*
G02*
Y58553I-3017J-9D01*
G01*
Y58552D01*
G75*
G02*
X119025Y52402I-6151J0D01*
G01*
G75*
G02*
X112874Y58552I0J6151D01*
G01*
Y58553D01*
Y58553D01*
G75*
G02*
X119025Y64704I6151J0D01*
G01*
G75*
G02*
X119094Y64704I17J-2980D01*
G01*
X120659Y66269D01*
X29565D01*
G37*
X165217Y66112D02*
G36*
X165217Y66112D02*
G75*
G02*
X165219Y66269I6409J-1D01*
G01*
X161552D01*
G75*
G02*
X167145Y58553I-2527J-7717D01*
G01*
Y58552D01*
G75*
G02*
X165898Y54230I-8118J0D01*
G01*
X177559D01*
Y61363D01*
G75*
G02*
X176742Y62257I4281J4731D01*
G01*
G75*
G02*
X165217Y66112I-5118J3854D01*
G01*
G37*
X186161Y61363D02*
G36*
X186161Y61363D02*
Y52261D01*
X188324D01*
Y50255D01*
X195572D01*
G75*
G02*
X206121Y45954I4398J-4301D01*
G01*
X233819D01*
Y45955D01*
G75*
G02*
X239970Y52106I6151J0D01*
G01*
G75*
G02*
X246121Y45955I0J-6151D01*
G01*
Y45954D01*
X412580D01*
Y66269D01*
X345913D01*
G75*
G02*
X326389I-9762J4882D01*
G01*
X297882D01*
G75*
G02*
X278357I-9762J4882D01*
G01*
X263826D01*
G75*
G02*
X252570Y64252I-6218J2283D01*
G01*
X245088D01*
G75*
G02*
X243045Y64768I1J4304D01*
G01*
G75*
G02*
X238341Y66269I-555J6383D01*
G01*
X214228D01*
G75*
G02*
X205240I-4494J4567D01*
G01*
X198501D01*
G75*
G02*
X198503Y66112I-6407J-159D01*
G01*
G75*
G02*
X186978Y62257I-6407J0D01*
G01*
G75*
G02*
X186161Y61363I-5099J3836D01*
G01*
G37*
X29565Y81230D02*
G36*
X29565Y81230D02*
Y66269D01*
X120659D01*
X122283Y67893D01*
Y69588D01*
G75*
G02*
X120433Y73986I4302J4398D01*
G01*
G75*
G02*
X132735I6151J0D01*
G01*
G75*
G02*
X130885Y69588I-6152J0D01*
G01*
Y66269D01*
X156498D01*
G75*
G02*
X161552I2527J-7717D01*
G01*
X165219D01*
G75*
G02*
X176742Y69966I6405J-157D01*
G01*
G75*
G02*
X186978I5118J-3854D01*
G01*
G75*
G02*
X198501Y66269I5118J-3854D01*
G01*
X205240D01*
G75*
G02*
X203327Y70836I4494J4567D01*
G01*
G75*
G02*
X205880Y75954I6407J0D01*
G01*
G75*
G02*
X203327Y81072I3854J5118D01*
G01*
G75*
G02*
X203329Y81230I6409J-1D01*
G01*
X180216D01*
G75*
G02*
X163661I-8277J0D01*
G01*
X151043D01*
Y78383D01*
G75*
G02*
X152893Y73986I-4302J-4398D01*
G01*
G75*
G02*
X140591I-6151J0D01*
G01*
G75*
G02*
X142441Y78383I6152J0D01*
G01*
Y81230D01*
X29565D01*
G37*
X216141Y70836D02*
G36*
X216141Y70836D02*
G75*
G02*
X214228Y66269I-6407J0D01*
G01*
X238341D01*
G75*
G02*
X236083Y71151I4150J4882D01*
G01*
G75*
G02*
X238635Y76269I6407J0D01*
G01*
G75*
G02*
X237741Y77087I3836J5099D01*
G01*
X229398D01*
G75*
G02*
X218701Y81230I-4546J4144D01*
G01*
X216139D01*
G75*
G02*
X216141Y81072I-6407J-159D01*
G01*
G75*
G02*
X213588Y75954I-6407J0D01*
G01*
G75*
G02*
X216141Y70836I-3854J-5118D01*
G01*
G37*
X246344Y76269D02*
G36*
X246344Y76269D02*
G75*
G02*
X248667Y72854I-3852J-5116D01*
G01*
X252570D01*
G75*
G02*
X258530Y75112I5037J-4301D01*
G01*
G75*
G02*
X260206Y75452I1676J-3959D01*
G01*
X278088D01*
G75*
G02*
X283930Y81230I10032J-4301D01*
G01*
X248895D01*
G75*
G02*
X246344Y76269I-6405J157D01*
G01*
G37*
X264009Y66850D02*
G36*
X264009Y66850D02*
G75*
G02*
X263826Y66269I-6402J1702D01*
G01*
X278357D01*
G75*
G02*
X278088Y66850I9763J4884D01*
G01*
X264009D01*
G37*
X299035Y71151D02*
G36*
X299035Y71151D02*
G75*
G02*
X297882Y66269I-10915J0D01*
G01*
X326389D01*
G75*
G02*
X325236Y71151I9763J4882D01*
G01*
G75*
G02*
X331961Y81230I10915J0D01*
G01*
X292309D01*
G75*
G02*
X299035Y71151I-4189J-10079D01*
G01*
G37*
X347066D02*
G36*
X347066Y71151D02*
G75*
G02*
X345913Y66269I-10915J0D01*
G01*
X412580D01*
Y81230D01*
X401631D01*
Y78387D01*
X380671D01*
Y80846D01*
X368474D01*
G75*
G02*
X366036Y81230I0J7944D01*
G01*
X340341D01*
G75*
G02*
X347066Y71151I-4190J-10079D01*
G01*
G37*
X29565Y93986D02*
G36*
X29565Y93986D02*
Y81230D01*
X142441D01*
Y92047D01*
X140502Y93986D01*
X29565D01*
G37*
X151043Y93828D02*
G36*
X151043Y93828D02*
Y81230D01*
X163661D01*
G75*
G02*
X180216I8277J0D01*
G01*
X203329D01*
G75*
G02*
X205880Y86191I6405J-157D01*
G01*
G75*
G02*
X203327Y91309I3854J5118D01*
G01*
G75*
G02*
X203913Y93986I6407J0D01*
G01*
X151040D01*
G75*
G02*
X151043Y93828I-4301J-154D01*
G01*
G37*
X213588Y86191D02*
G36*
X213588Y86191D02*
G75*
G02*
X216139Y81230I-3854J-5118D01*
G01*
X218701D01*
G75*
G02*
X229090Y85688I6151J0D01*
G01*
X237741D01*
G75*
G02*
X238635Y86506I4731J-4281D01*
G01*
G75*
G02*
X236083Y91624I3854J5118D01*
G01*
G75*
G02*
X236534Y93986I6407J0D01*
G01*
X215555D01*
G75*
G02*
X216141Y91309I-5821J-2678D01*
G01*
G75*
G02*
X213588Y86191I-6407J0D01*
G01*
G37*
X248897Y81387D02*
G36*
X248897Y81387D02*
G75*
G02*
X248895Y81230I-6409J1D01*
G01*
X283930D01*
G75*
G02*
X292309I4189J-10079D01*
G01*
X331961D01*
G75*
G02*
X340341I4190J-10078D01*
G01*
X366036D01*
G75*
G02*
X362855Y83176I2438J7560D01*
G01*
X359200Y86831D01*
X287732D01*
G75*
G02*
X269359Y93986I-7487J7943D01*
G01*
X248446D01*
G75*
G02*
X248897Y91624I-5956J-2362D01*
G01*
G75*
G02*
X246344Y86506I-6407J0D01*
G01*
G75*
G02*
X248897Y81387I-3854J-5118D01*
G01*
G37*
X401631Y93986D02*
G36*
X401631Y93986D02*
Y81230D01*
X412580D01*
Y93986D01*
X401631D01*
G37*
X29565Y118041D02*
G36*
X29565Y118041D02*
Y93986D01*
X140502D01*
X126653Y107835D01*
G75*
G02*
X120433Y113986I-68J6151D01*
G01*
G75*
G02*
X121959Y118041I6151J0D01*
G01*
X29565D01*
G37*
X131209D02*
G36*
X131209Y118041D02*
G75*
G02*
X132735Y113986I-4625J-4055D01*
G01*
G75*
G02*
Y113969I-2948J-8D01*
G01*
G75*
G02*
X132735Y113917I-2994J-3D01*
G01*
X149780Y96873D01*
G75*
G02*
X151040Y93986I-3039J-3045D01*
G01*
X203913D01*
G75*
G02*
X215555I5821J-2677D01*
G01*
X236534D01*
G75*
G02*
X248446I5956J-2362D01*
G01*
X269359D01*
G75*
G02*
X269331Y94773I10889J786D01*
G01*
G75*
G02*
X287732Y102716I10915J0D01*
G01*
X362490D01*
G75*
G02*
X368109Y100386I-1J-7944D01*
G01*
X371764Y96731D01*
X380671D01*
Y108116D01*
X378334Y110453D01*
X343638D01*
G75*
G02*
X325242Y118041I-7487J7943D01*
G01*
X299029D01*
G75*
G02*
X288120Y107480I-10909J354D01*
G01*
G75*
G02*
X277211Y118041I0J10915D01*
G01*
X264053D01*
Y117620D01*
X251163D01*
Y118041D01*
X230112D01*
G75*
G02*
X220454Y116929I-5260J3189D01*
G01*
X194769D01*
G75*
G02*
X195511Y114025I-5311J-2904D01*
G01*
G75*
G02*
X192639Y108876I-6053J0D01*
G01*
X194309D01*
Y99175D01*
X184608D01*
Y108876D01*
X186278D01*
G75*
G02*
X183406Y114025I3181J5150D01*
G01*
G75*
G02*
X184930Y118041I6053J0D01*
G01*
X163987D01*
G75*
G02*
X165511Y114025I-4529J-4016D01*
G01*
G75*
G02*
X164313Y110411I-6052J0D01*
G01*
G75*
G02*
X167480Y104025I-4855J-6385D01*
G01*
G75*
G02*
X159458Y96004I-8021J0D01*
G01*
G75*
G02*
X151437Y104025I0J8021D01*
G01*
G75*
G02*
X153814Y109724I8021J0D01*
G01*
X151178D01*
G75*
G02*
X140591Y113986I-4436J4261D01*
G01*
G75*
G02*
X142117Y118041I6151J0D01*
G01*
X131209D01*
G37*
X401631D02*
G36*
X401631Y118041D02*
Y93986D01*
X412580D01*
Y118041D01*
X401631D01*
G37*
X29565Y140679D02*
G36*
X29565Y140679D02*
Y118041D01*
X121959D01*
G75*
G02*
X131209I4625J-4055D01*
G01*
X142117D01*
G75*
G02*
X151101Y118326I4625J-4056D01*
G01*
X155157D01*
Y119766D01*
G75*
G02*
X153406Y124025I4300J4259D01*
G01*
G75*
G02*
X156047Y129025I6052J0D01*
G01*
G75*
G02*
X153406Y134025I3411J5000D01*
G01*
G75*
G02*
X159458Y140078I6053J0D01*
G01*
G75*
G02*
X165511Y134025I0J-6053D01*
G01*
G75*
G02*
X162869Y129025I-6053J0D01*
G01*
G75*
G02*
X165511Y124025I-3411J-5000D01*
G01*
G75*
G02*
X163759Y119766I-6053J0D01*
G01*
Y118284D01*
G75*
G02*
X163987Y118041I-4302J-4259D01*
G01*
X184930D01*
G75*
G02*
X186047Y119025I4529J-4016D01*
G01*
G75*
G02*
X183406Y124025I3411J5000D01*
G01*
G75*
G02*
X184604Y127640I6054J0D01*
G01*
G75*
G02*
X181437Y134025I4855J6385D01*
G01*
G75*
G02*
X184978Y140679I8022J0D01*
G01*
X114702D01*
Y128387D01*
X98151D01*
Y140679D01*
X29565D01*
G37*
X194313Y127640D02*
G36*
X194313Y127640D02*
G75*
G02*
X195321Y125531I-4856J-3615D01*
G01*
X220454D01*
G75*
G02*
X231003Y121230I4398J-4300D01*
G01*
Y121230D01*
Y121230D01*
G75*
G02*
X230112Y118041I-6151J0D01*
G01*
X251163D01*
Y130509D01*
X253307D01*
Y132362D01*
X252637Y133032D01*
G75*
G02*
X246417Y139183I-68J6151D01*
G01*
G75*
G02*
X246602Y140679I6151J0D01*
G01*
X193938D01*
G75*
G02*
X197480Y134025I-4480J-6654D01*
G01*
G75*
G02*
X194313Y127640I-8021J0D01*
G01*
G37*
X258535Y140679D02*
G36*
X258535Y140679D02*
G75*
G02*
X258720Y139183I-5967J-1496D01*
G01*
G75*
G02*
Y139166I-2948J-8D01*
G01*
G75*
G02*
X258719Y139114I-2994J-3D01*
G01*
X260649Y137184D01*
G75*
G02*
X261909Y134143I-3042J-3042D01*
G01*
Y134142D01*
Y134138D01*
Y130509D01*
X264053D01*
Y128365D01*
X282450D01*
G75*
G02*
X283431Y128252I1J-4290D01*
G01*
G75*
G02*
X283819Y128427I4998J-10537D01*
G01*
Y140679D01*
X258535D01*
G37*
X264053Y119764D02*
G36*
X264053Y119764D02*
Y118041D01*
X277211D01*
G75*
G02*
X277205Y118395I10911J359D01*
G01*
G75*
G02*
X277291Y119764I10949J-3D01*
G01*
X264053D01*
G37*
X292420Y140679D02*
G36*
X292420Y140679D02*
Y128427D01*
G75*
G02*
X299035Y118395I-4301J-10032D01*
G01*
G75*
G02*
X299029Y118041I-10917J5D01*
G01*
X325242D01*
G75*
G02*
X325236Y118395I10917J359D01*
G01*
G75*
G02*
X343638Y126338I10915J0D01*
G01*
X381624D01*
G75*
G02*
X387243Y124008I-1J-7944D01*
G01*
X391903Y119348D01*
X401631D01*
Y118041D01*
X412580D01*
Y140679D01*
X407189D01*
G75*
G02*
X406151Y140591I-1038J6064D01*
G01*
G75*
G02*
X405113Y140679I0J6152D01*
G01*
X396552D01*
G75*
G02*
X385750I-5401J6063D01*
G01*
X351756D01*
G75*
G02*
X350718Y140591I-1038J6064D01*
G01*
G75*
G02*
X349680Y140679I0J6152D01*
G01*
X341119D01*
G75*
G02*
X330317I-5401J6063D01*
G01*
X292420D01*
G37*
X29565Y149261D02*
G36*
X29565Y149261D02*
Y140679D01*
X98151D01*
Y144939D01*
X100120D01*
Y149261D01*
X29565D01*
G37*
X112734D02*
G36*
X112734Y149261D02*
Y144939D01*
X114702D01*
Y140679D01*
X184978D01*
G75*
G02*
X189458Y142046I4480J-6654D01*
G01*
G75*
G02*
X193938Y140679I0J-8021D01*
G01*
X246602D01*
G75*
G02*
X258535I5967J-1496D01*
G01*
X283819D01*
Y148051D01*
G75*
G02*
X282030Y149261I2923J6250D01*
G01*
X256259D01*
G75*
G02*
X248878I-3690J4921D01*
G01*
X203287D01*
Y149261D01*
G75*
G02*
X197135Y143110I-6151J0D01*
G01*
G75*
G02*
X190984Y149261I0J6151D01*
G01*
Y149261D01*
X163287D01*
Y149261D01*
G75*
G02*
X157135Y143110I-6151J0D01*
G01*
G75*
G02*
X150984Y149261I0J6151D01*
G01*
Y149261D01*
X112734D01*
G37*
X292420D02*
G36*
X292420Y149261D02*
Y140679D01*
X330317D01*
G75*
G02*
X327598Y146742I5401J6063D01*
G01*
G75*
G02*
X327999Y149261I8120J0D01*
G01*
X316435D01*
Y145868D01*
X299569D01*
Y147761D01*
G75*
G02*
X292659Y149261I-2196J6541D01*
G01*
X292420D01*
G37*
X343838Y146742D02*
G36*
X343838Y146742D02*
G75*
G02*
X341119Y140679I-8120J0D01*
G01*
X349680D01*
G75*
G02*
X344567Y146741I1038J6063D01*
G01*
Y146742D01*
Y146742D01*
G75*
G02*
X345107Y149261I6151J0D01*
G01*
X343437D01*
G75*
G02*
X343838Y146742I-7719J-2520D01*
G01*
G37*
X356869Y146741D02*
G36*
X356869Y146741D02*
G75*
G02*
X351756Y140679I-6151J0D01*
G01*
X385750D01*
G75*
G02*
X383031Y146742I5401J6063D01*
G01*
G75*
G02*
X383432Y149261I8120J0D01*
G01*
X356330D01*
G75*
G02*
X356869Y146742I-5611J-2520D01*
G01*
Y146742D01*
Y146741D01*
G37*
X399271Y146742D02*
G36*
X399271Y146742D02*
G75*
G02*
X396552Y140679I-8120J0D01*
G01*
X405113D01*
G75*
G02*
X400000Y146741I1038J6063D01*
G01*
Y146742D01*
Y146742D01*
G75*
G02*
X400540Y149261I6151J0D01*
G01*
X398870D01*
G75*
G02*
X399271Y146742I-7719J-2520D01*
G01*
G37*
X412302Y146741D02*
G36*
X412302Y146741D02*
G75*
G02*
X407189Y140679I-6151J0D01*
G01*
X412580D01*
Y149261D01*
X411763D01*
G75*
G02*
X412302Y146742I-5611J-2520D01*
G01*
Y146742D01*
Y146741D01*
G37*
X29565Y163731D02*
G36*
X29565Y163731D02*
Y149261D01*
X100120D01*
Y152970D01*
X112734D01*
Y149261D01*
X150984D01*
Y149262D01*
G75*
G02*
X157135Y155413I6151J0D01*
G01*
G75*
G02*
X163287Y149262I0J-6151D01*
G01*
Y149261D01*
X190984D01*
Y149262D01*
G75*
G02*
X197135Y155413I6151J0D01*
G01*
G75*
G02*
X203287Y149262I0J-6151D01*
G01*
Y149261D01*
X248878D01*
G75*
G02*
X246417Y154183I3690J4921D01*
G01*
G75*
G02*
X258720I6151J0D01*
G01*
G75*
G02*
X256259Y149261I-6151J0D01*
G01*
X282030D01*
G75*
G02*
X279843Y154301I4712J5039D01*
G01*
G75*
G02*
X286742Y161200I6899J0D01*
G01*
G75*
G02*
X292057Y158700I0J-6898D01*
G01*
G75*
G02*
X299569Y160841I5315J-4398D01*
G01*
Y162734D01*
X316435D01*
Y149261D01*
X327999D01*
G75*
G02*
X343437I7719J-2520D01*
G01*
X345107D01*
G75*
G02*
X350718Y152893I5611J-2519D01*
G01*
G75*
G02*
X356330Y149261I0J-6151D01*
G01*
X383432D01*
G75*
G02*
X398870I7719J-2520D01*
G01*
X400540D01*
G75*
G02*
X406151Y152893I5611J-2519D01*
G01*
G75*
G02*
X411763Y149261I0J-6151D01*
G01*
X412580D01*
Y163731D01*
X381072D01*
G75*
G02*
X377904Y166899I0J3168D01*
G01*
Y166899D01*
Y176978D01*
X356524D01*
Y166899D01*
Y166899D01*
G75*
G02*
X353356Y163731I-3169J0D01*
G01*
X285324D01*
G75*
G02*
X282156Y166899I0J3168D01*
G01*
Y166899D01*
Y176978D01*
X263296D01*
Y166899D01*
Y166899D01*
G75*
G02*
X260128Y163731I-3169J0D01*
G01*
X176978D01*
G75*
G02*
X173809Y166899I0J3168D01*
G01*
Y166899D01*
Y176978D01*
X147391D01*
Y166899D01*
Y166899D01*
G75*
G02*
X144222Y163731I-3169J0D01*
G01*
X78710D01*
G75*
G02*
X75542Y166899I0J3168D01*
G01*
Y166899D01*
Y176978D01*
X54162D01*
Y166899D01*
Y166899D01*
G75*
G02*
X50994Y163731I-3169J0D01*
G01*
X29565D01*
G37*
X292420Y149496D02*
G36*
X292420Y149496D02*
Y149261D01*
X292659D01*
G75*
G02*
X292420Y149496I4714J5040D01*
G01*
G37*
X29565Y207214D02*
G36*
X29565Y207214D02*
Y190225D01*
X50994D01*
G75*
G02*
X54162Y187057I0J-3168D01*
G01*
Y187057D01*
Y176978D01*
X75542D01*
Y187057D01*
Y187057D01*
G75*
G02*
X78710Y190225I3169J0D01*
G01*
X144222D01*
G75*
G02*
X147391Y187057I0J-3168D01*
G01*
Y187057D01*
Y176978D01*
X173809D01*
Y187057D01*
Y187057D01*
G75*
G02*
X176978Y190225I3169J0D01*
G01*
X260128D01*
G75*
G02*
X263296Y187057I0J-3168D01*
G01*
Y187057D01*
Y176978D01*
X282156D01*
Y187057D01*
Y187057D01*
G75*
G02*
X285324Y190225I3169J0D01*
G01*
X353356D01*
G75*
G02*
X356524Y187057I0J-3168D01*
G01*
Y187057D01*
Y176978D01*
X377904D01*
Y187057D01*
Y187057D01*
G75*
G02*
X381072Y190225I3169J0D01*
G01*
X412580D01*
Y207214D01*
X246121D01*
Y207214D01*
G75*
G02*
X239970Y201063I-6151J0D01*
G01*
G75*
G02*
X233819Y207214I0J6151D01*
G01*
Y207214D01*
X206121D01*
G75*
G02*
X195572Y202913I-6151J0D01*
G01*
X188324D01*
Y200907D01*
X180293D01*
Y198939D01*
X163742D01*
Y207214D01*
X29565D01*
G37*
Y227529D02*
G36*
X29565Y227529D02*
Y207214D01*
X163742D01*
Y213203D01*
G75*
G02*
X150906Y219813I-4717J6609D01*
G01*
G75*
G02*
X156498Y227529I8120J0D01*
G01*
X130885D01*
Y227372D01*
G75*
G02*
X129622Y224327I-4302J0D01*
G01*
X125176Y219881D01*
G75*
G02*
X125176Y219830I-2971J-48D01*
G01*
G75*
G02*
Y219813I-3017J-9D01*
G01*
Y219812D01*
G75*
G02*
X119025Y213661I-6151J0D01*
G01*
G75*
G02*
X112874Y219812I0J6151D01*
G01*
Y219813D01*
Y219813D01*
G75*
G02*
X119025Y225964I6151J0D01*
G01*
G75*
G02*
X119094Y225963I17J-2980D01*
G01*
X120659Y227529D01*
X29565D01*
G37*
X165217Y227372D02*
G36*
X165217Y227372D02*
G75*
G02*
X165219Y227529I6409J-1D01*
G01*
X161552D01*
G75*
G02*
X167145Y219813I-2527J-7717D01*
G01*
Y219812D01*
G75*
G02*
X165898Y215490I-8118J0D01*
G01*
X177559D01*
Y222622D01*
G75*
G02*
X176742Y223517I4281J4731D01*
G01*
G75*
G02*
X165217Y227372I-5118J3854D01*
G01*
G37*
X186161Y222622D02*
G36*
X186161Y222622D02*
Y213521D01*
X188324D01*
Y211515D01*
X195572D01*
G75*
G02*
X206121Y207214I4398J-4301D01*
G01*
X233819D01*
Y207215D01*
G75*
G02*
X239970Y213365I6151J0D01*
G01*
G75*
G02*
X246121Y207215I0J-6151D01*
G01*
Y207214D01*
X412580D01*
Y227529D01*
X345913D01*
G75*
G02*
X326389I-9762J4882D01*
G01*
X297882D01*
G75*
G02*
X278357I-9762J4882D01*
G01*
X263826D01*
G75*
G02*
X252570Y225512I-6218J2283D01*
G01*
X245088D01*
G75*
G02*
X243045Y226028I1J4304D01*
G01*
G75*
G02*
X238341Y227529I-555J6383D01*
G01*
X214228D01*
G75*
G02*
X205240I-4494J4567D01*
G01*
X198501D01*
G75*
G02*
X198503Y227372I-6407J-159D01*
G01*
G75*
G02*
X186978Y223517I-6407J0D01*
G01*
G75*
G02*
X186161Y222622I-5099J3836D01*
G01*
G37*
X29565Y242490D02*
G36*
X29565Y242490D02*
Y227529D01*
X120659D01*
X122283Y229153D01*
Y230848D01*
G75*
G02*
X120433Y235246I4302J4398D01*
G01*
G75*
G02*
X132735I6151J0D01*
G01*
G75*
G02*
X130885Y230848I-6152J0D01*
G01*
Y227529D01*
X156498D01*
G75*
G02*
X161552I2527J-7717D01*
G01*
X165219D01*
G75*
G02*
X176742Y231226I6405J-157D01*
G01*
G75*
G02*
X186978I5118J-3854D01*
G01*
G75*
G02*
X198501Y227529I5118J-3854D01*
G01*
X205240D01*
G75*
G02*
X203327Y232096I4494J4567D01*
G01*
G75*
G02*
X205880Y237214I6407J0D01*
G01*
G75*
G02*
X203327Y242332I3854J5118D01*
G01*
G75*
G02*
X203329Y242490I6409J-1D01*
G01*
X180216D01*
G75*
G02*
X163661I-8277J0D01*
G01*
X151043D01*
Y239643D01*
G75*
G02*
X152893Y235246I-4302J-4398D01*
G01*
G75*
G02*
X140591I-6151J0D01*
G01*
G75*
G02*
X142441Y239643I6152J0D01*
G01*
Y242490D01*
X29565D01*
G37*
X216141Y232096D02*
G36*
X216141Y232096D02*
G75*
G02*
X214228Y227529I-6407J0D01*
G01*
X238341D01*
G75*
G02*
X236083Y232411I4150J4882D01*
G01*
G75*
G02*
X238635Y237529I6407J0D01*
G01*
G75*
G02*
X237741Y238346I3836J5099D01*
G01*
X229398D01*
G75*
G02*
X218701Y242490I-4546J4144D01*
G01*
X216139D01*
G75*
G02*
X216141Y242332I-6407J-159D01*
G01*
G75*
G02*
X213588Y237214I-6407J0D01*
G01*
G75*
G02*
X216141Y232096I-3854J-5118D01*
G01*
G37*
X246344Y237529D02*
G36*
X246344Y237529D02*
G75*
G02*
X248667Y234113I-3852J-5116D01*
G01*
X252570D01*
G75*
G02*
X258530Y236372I5037J-4301D01*
G01*
G75*
G02*
X260206Y236712I1676J-3959D01*
G01*
X278088D01*
G75*
G02*
X283930Y242490I10032J-4301D01*
G01*
X248895D01*
G75*
G02*
X246344Y237529I-6405J157D01*
G01*
G37*
X264009Y228110D02*
G36*
X264009Y228110D02*
G75*
G02*
X263826Y227529I-6402J1702D01*
G01*
X278357D01*
G75*
G02*
X278088Y228110I9763J4884D01*
G01*
X264009D01*
G37*
X299035Y232411D02*
G36*
X299035Y232411D02*
G75*
G02*
X297882Y227529I-10915J0D01*
G01*
X326389D01*
G75*
G02*
X325236Y232411I9763J4882D01*
G01*
G75*
G02*
X331961Y242490I10915J0D01*
G01*
X292309D01*
G75*
G02*
X299035Y232411I-4189J-10079D01*
G01*
G37*
X347066D02*
G36*
X347066Y232411D02*
G75*
G02*
X345913Y227529I-10915J0D01*
G01*
X412580D01*
Y242490D01*
X401631D01*
Y239647D01*
X380671D01*
Y242106D01*
X368474D01*
G75*
G02*
X366036Y242490I0J7944D01*
G01*
X340341D01*
G75*
G02*
X347066Y232411I-4190J-10079D01*
G01*
G37*
X29565Y255246D02*
G36*
X29565Y255246D02*
Y242490D01*
X142441D01*
Y253307D01*
X140502Y255246D01*
X29565D01*
G37*
X151043Y255088D02*
G36*
X151043Y255088D02*
Y242490D01*
X163661D01*
G75*
G02*
X180216I8277J0D01*
G01*
X203329D01*
G75*
G02*
X205880Y247450I6405J-157D01*
G01*
G75*
G02*
X203327Y252569I3854J5118D01*
G01*
G75*
G02*
X203913Y255246I6407J0D01*
G01*
X151040D01*
G75*
G02*
X151043Y255088I-4301J-154D01*
G01*
G37*
X213588Y247450D02*
G36*
X213588Y247450D02*
G75*
G02*
X216139Y242490I-3854J-5118D01*
G01*
X218701D01*
G75*
G02*
X229090Y246948I6151J0D01*
G01*
X237741D01*
G75*
G02*
X238635Y247765I4731J-4281D01*
G01*
G75*
G02*
X236083Y252883I3854J5118D01*
G01*
G75*
G02*
X236534Y255246I6407J0D01*
G01*
X215555D01*
G75*
G02*
X216141Y252569I-5821J-2678D01*
G01*
G75*
G02*
X213588Y247450I-6407J0D01*
G01*
G37*
X248897Y242647D02*
G36*
X248897Y242647D02*
G75*
G02*
X248895Y242490I-6409J1D01*
G01*
X283930D01*
G75*
G02*
X292309I4189J-10079D01*
G01*
X331961D01*
G75*
G02*
X340341I4190J-10078D01*
G01*
X366036D01*
G75*
G02*
X362855Y244436I2438J7560D01*
G01*
X359200Y248091D01*
X287732D01*
G75*
G02*
X269359Y255246I-7487J7943D01*
G01*
X248446D01*
G75*
G02*
X248897Y252883I-5956J-2362D01*
G01*
G75*
G02*
X246344Y247765I-6407J0D01*
G01*
G75*
G02*
X248897Y242647I-3854J-5118D01*
G01*
G37*
X401631Y255246D02*
G36*
X401631Y255246D02*
Y242490D01*
X412580D01*
Y255246D01*
X401631D01*
G37*
X29565Y279301D02*
G36*
X29565Y279301D02*
Y255246D01*
X140502D01*
X126653Y269095D01*
G75*
G02*
X120433Y275246I-68J6151D01*
G01*
G75*
G02*
X121959Y279301I6151J0D01*
G01*
X29565D01*
G37*
X131209D02*
G36*
X131209Y279301D02*
G75*
G02*
X132735Y275246I-4625J-4055D01*
G01*
G75*
G02*
Y275229I-2948J-8D01*
G01*
G75*
G02*
X132735Y275177I-2994J-3D01*
G01*
X149780Y258133D01*
G75*
G02*
X151040Y255246I-3039J-3045D01*
G01*
X203913D01*
G75*
G02*
X215555I5821J-2677D01*
G01*
X236534D01*
G75*
G02*
X248446I5956J-2362D01*
G01*
X269359D01*
G75*
G02*
X269331Y256033I10889J786D01*
G01*
G75*
G02*
X287732Y263976I10915J0D01*
G01*
X362490D01*
G75*
G02*
X368109Y261646I-1J-7944D01*
G01*
X371764Y257991D01*
X380671D01*
Y269376D01*
X378334Y271713D01*
X343638D01*
G75*
G02*
X325242Y279301I-7487J7943D01*
G01*
X299029D01*
G75*
G02*
X288120Y268740I-10909J354D01*
G01*
G75*
G02*
X277211Y279301I0J10915D01*
G01*
X264053D01*
Y278880D01*
X251163D01*
Y279301D01*
X230112D01*
G75*
G02*
X220454Y278189I-5260J3189D01*
G01*
X194769D01*
G75*
G02*
X195511Y275285I-5311J-2904D01*
G01*
G75*
G02*
X192639Y270135I-6053J0D01*
G01*
X194309D01*
Y260435D01*
X184608D01*
Y270135D01*
X186278D01*
G75*
G02*
X183406Y275285I3181J5150D01*
G01*
G75*
G02*
X184930Y279301I6053J0D01*
G01*
X163987D01*
G75*
G02*
X165511Y275285I-4529J-4016D01*
G01*
G75*
G02*
X164313Y271670I-6052J0D01*
G01*
G75*
G02*
X167480Y265285I-4855J-6385D01*
G01*
G75*
G02*
X159458Y257264I-8021J0D01*
G01*
G75*
G02*
X151437Y265285I0J8021D01*
G01*
G75*
G02*
X153814Y270984I8021J0D01*
G01*
X151178D01*
G75*
G02*
X140591Y275246I-4436J4261D01*
G01*
G75*
G02*
X142117Y279301I6151J0D01*
G01*
X131209D01*
G37*
X401631D02*
G36*
X401631Y279301D02*
Y255246D01*
X412580D01*
Y279301D01*
X401631D01*
G37*
X29565Y301939D02*
G36*
X29565Y301939D02*
Y279301D01*
X121959D01*
G75*
G02*
X131209I4625J-4055D01*
G01*
X142117D01*
G75*
G02*
X151101Y279586I4625J-4056D01*
G01*
X155157D01*
Y281026D01*
G75*
G02*
X153406Y285285I4300J4259D01*
G01*
G75*
G02*
X156047Y290285I6052J0D01*
G01*
G75*
G02*
X153406Y295285I3411J5000D01*
G01*
G75*
G02*
X159458Y301338I6053J0D01*
G01*
G75*
G02*
X165511Y295285I0J-6053D01*
G01*
G75*
G02*
X162869Y290285I-6053J0D01*
G01*
G75*
G02*
X165511Y285285I-3411J-5000D01*
G01*
G75*
G02*
X163759Y281026I-6053J0D01*
G01*
Y279544D01*
G75*
G02*
X163987Y279301I-4302J-4259D01*
G01*
X184930D01*
G75*
G02*
X186047Y280285I4529J-4016D01*
G01*
G75*
G02*
X183406Y285285I3411J5000D01*
G01*
G75*
G02*
X184604Y288900I6054J0D01*
G01*
G75*
G02*
X181437Y295285I4855J6385D01*
G01*
G75*
G02*
X184978Y301939I8022J0D01*
G01*
X114702D01*
Y289647D01*
X98151D01*
Y301939D01*
X29565D01*
G37*
X194313Y288900D02*
G36*
X194313Y288900D02*
G75*
G02*
X195321Y286791I-4856J-3615D01*
G01*
X220454D01*
G75*
G02*
X231003Y282490I4398J-4300D01*
G01*
Y282490D01*
Y282489D01*
G75*
G02*
X230112Y279301I-6151J0D01*
G01*
X251163D01*
Y291769D01*
X253307D01*
Y293622D01*
X252637Y294292D01*
G75*
G02*
X246417Y300443I-68J6151D01*
G01*
G75*
G02*
X246602Y301939I6151J0D01*
G01*
X193938D01*
G75*
G02*
X197480Y295285I-4480J-6654D01*
G01*
G75*
G02*
X194313Y288900I-8021J0D01*
G01*
G37*
X258535Y301939D02*
G36*
X258535Y301939D02*
G75*
G02*
X258720Y300443I-5967J-1496D01*
G01*
G75*
G02*
Y300426I-2948J-8D01*
G01*
G75*
G02*
X258719Y300374I-2994J-3D01*
G01*
X260649Y298444D01*
G75*
G02*
X261909Y295403I-3042J-3042D01*
G01*
Y295402D01*
Y295398D01*
Y291769D01*
X264053D01*
Y289625D01*
X282450D01*
G75*
G02*
X283431Y289512I1J-4290D01*
G01*
G75*
G02*
X283819Y289687I4998J-10537D01*
G01*
Y301939D01*
X258535D01*
G37*
X264053Y281024D02*
G36*
X264053Y281024D02*
Y279301D01*
X277211D01*
G75*
G02*
X277205Y279655I10911J359D01*
G01*
G75*
G02*
X277291Y281024I10949J-3D01*
G01*
X264053D01*
G37*
X292420Y301939D02*
G36*
X292420Y301939D02*
Y289687D01*
G75*
G02*
X299035Y279655I-4301J-10032D01*
G01*
G75*
G02*
X299029Y279301I-10917J5D01*
G01*
X325242D01*
G75*
G02*
X325236Y279655I10917J359D01*
G01*
G75*
G02*
X343638Y287598I10915J0D01*
G01*
X381624D01*
G75*
G02*
X387243Y285268I-1J-7944D01*
G01*
X391903Y280608D01*
X401631D01*
Y279301D01*
X412580D01*
Y301939D01*
X407189D01*
G75*
G02*
X406151Y301850I-1038J6064D01*
G01*
G75*
G02*
X405113Y301939I0J6152D01*
G01*
X396552D01*
G75*
G02*
X385750I-5401J6063D01*
G01*
X351756D01*
G75*
G02*
X350718Y301850I-1038J6064D01*
G01*
G75*
G02*
X349680Y301939I0J6152D01*
G01*
X341119D01*
G75*
G02*
X330317I-5401J6063D01*
G01*
X292420D01*
G37*
X29565Y310521D02*
G36*
X29565Y310521D02*
Y301939D01*
X98151D01*
Y306198D01*
X100120D01*
Y310521D01*
X29565D01*
G37*
X112734D02*
G36*
X112734Y310521D02*
Y306198D01*
X114702D01*
Y301939D01*
X184978D01*
G75*
G02*
X189458Y303306I4480J-6654D01*
G01*
G75*
G02*
X193938Y301939I0J-8021D01*
G01*
X246602D01*
G75*
G02*
X258535I5967J-1496D01*
G01*
X283819D01*
Y309311D01*
G75*
G02*
X282030Y310521I2923J6250D01*
G01*
X256259D01*
G75*
G02*
X248878I-3690J4921D01*
G01*
X203287D01*
Y310521D01*
G75*
G02*
X197135Y304370I-6151J0D01*
G01*
G75*
G02*
X190984Y310521I0J6151D01*
G01*
Y310521D01*
X163287D01*
Y310521D01*
G75*
G02*
X157135Y304370I-6151J0D01*
G01*
G75*
G02*
X150984Y310521I0J6151D01*
G01*
Y310521D01*
X112734D01*
G37*
X292420D02*
G36*
X292420Y310521D02*
Y301939D01*
X330317D01*
G75*
G02*
X327598Y308002I5401J6063D01*
G01*
G75*
G02*
X327999Y310521I8120J0D01*
G01*
X316435D01*
Y307128D01*
X299569D01*
Y309020D01*
G75*
G02*
X292659Y310521I-2196J6541D01*
G01*
X292420D01*
G37*
X343838Y308002D02*
G36*
X343838Y308002D02*
G75*
G02*
X341119Y301939I-8120J0D01*
G01*
X349680D01*
G75*
G02*
X344567Y308001I1038J6063D01*
G01*
Y308002D01*
Y308002D01*
G75*
G02*
X345107Y310521I6151J0D01*
G01*
X343437D01*
G75*
G02*
X343838Y308002I-7719J-2520D01*
G01*
G37*
X356869Y308001D02*
G36*
X356869Y308001D02*
G75*
G02*
X351756Y301939I-6151J0D01*
G01*
X385750D01*
G75*
G02*
X383031Y308002I5401J6063D01*
G01*
G75*
G02*
X383432Y310521I8120J0D01*
G01*
X356330D01*
G75*
G02*
X356869Y308002I-5611J-2520D01*
G01*
Y308002D01*
Y308001D01*
G37*
X399271Y308002D02*
G36*
X399271Y308002D02*
G75*
G02*
X396552Y301939I-8120J0D01*
G01*
X405113D01*
G75*
G02*
X400000Y308001I1038J6063D01*
G01*
Y308002D01*
Y308002D01*
G75*
G02*
X400540Y310521I6151J0D01*
G01*
X398870D01*
G75*
G02*
X399271Y308002I-7719J-2520D01*
G01*
G37*
X412302Y308001D02*
G36*
X412302Y308001D02*
G75*
G02*
X407189Y301939I-6151J0D01*
G01*
X412580D01*
Y310521D01*
X411763D01*
G75*
G02*
X412302Y308002I-5611J-2520D01*
G01*
Y308002D01*
Y308001D01*
G37*
X29565Y324391D02*
G36*
X29565Y324391D02*
Y310521D01*
X100120D01*
Y314230D01*
X112734D01*
Y310521D01*
X150984D01*
Y310522D01*
G75*
G02*
X157135Y316672I6151J0D01*
G01*
G75*
G02*
X163287Y310522I0J-6151D01*
G01*
Y310521D01*
X190984D01*
Y310522D01*
G75*
G02*
X197135Y316672I6151J0D01*
G01*
G75*
G02*
X203287Y310522I0J-6151D01*
G01*
Y310521D01*
X248878D01*
G75*
G02*
X246417Y315443I3690J4921D01*
G01*
G75*
G02*
X258720I6151J0D01*
G01*
G75*
G02*
X256259Y310521I-6151J0D01*
G01*
X282030D01*
G75*
G02*
X279843Y315561I4712J5039D01*
G01*
G75*
G02*
X286742Y322460I6899J0D01*
G01*
G75*
G02*
X292057Y319959I0J-6898D01*
G01*
G75*
G02*
X299569Y322101I5315J-4398D01*
G01*
Y323994D01*
X316435D01*
Y310521D01*
X327999D01*
G75*
G02*
X343437I7719J-2520D01*
G01*
X345107D01*
G75*
G02*
X350718Y314153I5611J-2519D01*
G01*
G75*
G02*
X356330Y310521I0J-6151D01*
G01*
X383432D01*
G75*
G02*
X398870I7719J-2520D01*
G01*
X400540D01*
G75*
G02*
X406151Y314153I5611J-2519D01*
G01*
G75*
G02*
X411763Y310521I0J-6151D01*
G01*
X412580D01*
Y324391D01*
X29565D01*
G37*
X292420Y310756D02*
G36*
X292420Y310756D02*
Y310521D01*
X292659D01*
G75*
G02*
X292420Y310756I4714J5040D01*
G01*
G37*
D02*
D11*
X104655Y136663D02*
X96781D01*
X104655Y297923D02*
X96781D01*
X106427Y134891D02*
Y127017D01*
Y296151D02*
Y288277D01*
X108198Y136663D02*
X116072D01*
X108198Y297923D02*
X116072D01*
X157411Y58553D02*
X149537D01*
X157411Y219813D02*
X149537D01*
X157943Y104025D02*
X150069D01*
X157943Y265285D02*
X150069D01*
X159025Y56939D02*
Y49065D01*
Y60167D02*
Y68041D01*
Y218198D02*
Y210324D01*
Y221427D02*
Y229301D01*
X159458Y102509D02*
Y94635D01*
Y263769D02*
Y255895D01*
X160639Y58553D02*
X168513D01*
X160639Y219813D02*
X168513D01*
X160974Y104025D02*
X168848D01*
X160974Y265285D02*
X168848D01*
X170167Y81230D02*
X162293D01*
X170167Y242490D02*
X162293D01*
X170246Y45954D02*
X162372D01*
X170246Y207214D02*
X162372D01*
X171939Y83002D02*
Y90876D01*
Y244261D02*
Y252135D01*
X172017Y44183D02*
Y36309D01*
Y47726D02*
Y55600D01*
Y205443D02*
Y197569D01*
Y208986D02*
Y216860D01*
X173710Y81230D02*
X181584D01*
X173710Y242490D02*
X181584D01*
X187943Y134025D02*
X180069D01*
X187943Y295285D02*
X180069D01*
X189458Y135541D02*
Y143415D01*
Y296801D02*
Y304675D01*
X190974Y134025D02*
X198848D01*
X190974Y295285D02*
X198848D01*
X308002Y152372D02*
Y144498D01*
Y313631D02*
Y305757D01*
X309931Y154301D02*
X317805D01*
X309931Y315561D02*
X317805D01*
X334104Y146742D02*
X326230D01*
X334104Y308002D02*
X326230D01*
X335718Y145128D02*
Y137254D01*
Y148356D02*
Y156230D01*
Y306387D02*
Y298513D01*
Y309616D02*
Y317490D01*
X389537Y146742D02*
X381663D01*
X389537Y308002D02*
X381663D01*
X391151Y145128D02*
Y137254D01*
Y148356D02*
Y156230D01*
Y306387D02*
Y298513D01*
Y309616D02*
Y317490D01*
D02*
D19*
X308002Y154301D03*
Y315561D03*
D02*
D21*
X189458Y104025D03*
Y265285D03*
D02*
D23*
X257608Y124065D03*
Y285324D03*
D02*
D26*
X280246Y94773D03*
Y256033D03*
X288120Y71151D03*
Y118395D03*
Y232411D03*
Y279655D03*
X336151Y71151D03*
Y118395D03*
Y232411D03*
Y279655D03*
D02*
D29*
X280246Y94773D02*
X362490D01*
X368474Y88789D01*
X391072D01*
X391151Y88868D01*
X280246Y256033D02*
X362490D01*
X368474Y250049D01*
X391072D01*
X391151Y250128D01*
X336151Y118395D02*
X381624D01*
X391151Y108868D01*
X336151Y279655D02*
X381624D01*
X391151Y270128D01*
D02*
D106*
X171624Y66112D03*
Y227372D03*
X181860Y66112D03*
Y227372D03*
X192096Y66112D03*
Y227372D03*
X209734Y70836D03*
Y81072D03*
Y91309D03*
Y232096D03*
Y242332D03*
Y252569D03*
X242490Y71151D03*
Y81387D03*
Y91624D03*
Y232411D03*
Y242647D03*
Y252883D03*
D02*
D114*
X126584Y73986D02*
Y66112D01*
X119025Y58553D01*
X126584Y235246D02*
Y227372D01*
X119025Y219813D01*
X146742Y73986D02*
Y93828D01*
X126584Y113986D01*
X146742Y235246D02*
Y255088D01*
X126584Y275246D01*
X159458Y114025D02*
X146781D01*
X146742Y113986D01*
X159458Y124025D02*
Y114025D01*
Y275285D02*
X146781D01*
X146742Y275246D01*
X159458Y285285D02*
Y275285D01*
X181860Y66112D02*
Y46112D01*
X182017Y45954D01*
X181860Y227372D02*
Y207372D01*
X182017Y207214D01*
X199970Y45954D02*
X182017D01*
X199970Y207214D02*
X182017D01*
X224852Y121230D02*
X192254D01*
X189458Y124025D01*
X224852Y282490D02*
X192254D01*
X189458Y285285D01*
X242490Y81387D02*
X225009D01*
X224852Y81230D01*
X242490Y242647D02*
X225009D01*
X224852Y242490D01*
X257608Y68553D02*
X245088D01*
X242490Y71151D01*
X257608Y124065D02*
Y134143D01*
X252569Y139183D01*
X257608Y124065D02*
X282450D01*
X288120Y118395D01*
X257608Y229813D02*
X245088D01*
X242490Y232411D01*
X257608Y285324D02*
Y295403D01*
X252569Y300443D01*
X257608Y285324D02*
X282450D01*
X288120Y279655D01*
Y71151D02*
X260206D01*
X257608Y68553D01*
X288120Y118395D02*
Y152923D01*
X286742Y154301D01*
X288120Y232411D02*
X260206D01*
X257608Y229813D01*
X288120Y279655D02*
Y314183D01*
X286742Y315561D01*
D02*
D115*
X171939Y81230D03*
Y242490D03*
D02*
D116*
X119025Y58553D03*
Y219813D03*
X126584Y73986D03*
Y113986D03*
Y235246D03*
Y275246D03*
X146742Y73986D03*
Y113986D03*
Y235246D03*
Y275246D03*
X157135Y149261D03*
Y310521D03*
X159025Y58553D03*
Y219813D03*
X197135Y149261D03*
Y310521D03*
X199970Y45954D03*
Y207214D03*
X224852Y81230D03*
Y121230D03*
Y242490D03*
Y282490D03*
X239970Y45954D03*
Y207214D03*
X252569Y139183D03*
Y154183D03*
Y300443D03*
Y315443D03*
X335718Y146742D03*
Y308002D03*
X350718Y146742D03*
Y308002D03*
X391151Y146742D03*
Y308002D03*
X406151Y146742D03*
Y308002D03*
D02*
D118*
X286742Y154301D03*
Y315561D03*
X297372Y154301D03*
Y315561D03*
D02*
D119*
X159458Y104025D03*
Y114025D03*
Y124025D03*
Y134025D03*
Y265285D03*
Y275285D03*
Y285285D03*
Y295285D03*
X189458Y114025D03*
Y124025D03*
Y134025D03*
Y275285D03*
Y285285D03*
Y295285D03*
D02*
D120*
X257608Y68553D03*
Y229813D03*
D02*
D123*
X106427Y136663D03*
Y146663D03*
Y297923D03*
Y307923D03*
X172017Y45954D03*
Y207214D03*
X182017Y45954D03*
Y207214D03*
D02*
D124*
X391151Y88868D03*
Y108868D03*
Y250128D03*
Y270128D03*
X0Y0D02*
M02*
